{"glyphs":{"0":{"ha":856,"x_min":82,"x_max":774,"o":"m 774 407 q 747 238 774 315 q 675 105 721 161 q 566 17 629 49 q 428 -14 503 -14 q 290 17 353 -14 q 180 105 226 49 q 108 238 133 161 q 82 407 82 315 q 108 576 82 499 q 180 709 133 653 q 290 797 226 765 q 428 829 353 829 q 566 797 503 829 q 675 709 629 765 q 747 576 721 653 q 774 407 774 499 m 703 407 q 683 552 703 486 q 626 665 663 618 q 540 738 590 711 q 428 764 489 764 q 315 738 367 764 q 228 665 264 711 q 172 552 192 618 q 151 407 151 486 q 172 263 151 328 q 228 150 192 197 q 315 77 264 103 q 428 51 367 51 q 540 77 489 51 q 626 150 590 103 q 683 263 663 197 q 703 407 703 328 z "},"1":{"ha":569,"x_min":64,"x_max":539,"o":"m 539 64 l 539 0 l 94 0 l 94 64 l 292 64 l 292 706 q 253 669 281 689 q 194 633 226 650 q 126 603 161 615 q 64 592 92 592 l 64 661 q 138 680 99 661 q 210 722 176 699 q 266 767 243 746 q 292 793 289 789 l 363 793 l 363 64 l 539 64 z "},"2":{"ha":726,"x_min":75,"x_max":650,"o":"m 75 0 q 82 88 75 40 q 113 184 89 136 q 183 278 138 232 q 308 364 229 325 q 385 400 342 381 q 468 445 429 419 q 534 505 507 471 q 561 585 561 539 q 549 642 561 614 q 512 693 536 671 q 451 729 488 715 q 367 743 415 743 q 278 729 317 743 q 212 697 240 715 q 164 658 183 678 q 135 626 144 639 l 88 675 q 131 717 104 693 q 194 760 158 740 q 276 793 231 779 q 376 807 321 807 q 485 790 438 807 q 567 742 533 772 q 617 672 600 711 q 635 588 635 632 q 609 490 635 531 q 544 419 583 449 q 462 369 506 390 q 381 335 418 349 q 273 278 315 308 q 205 213 231 247 q 168 140 179 178 q 154 64 157 103 l 650 64 l 650 0 l 75 0 z "},"3":{"ha":736,"x_min":58,"x_max":668,"o":"m 460 328 q 611 243 554 313 q 668 72 668 174 q 645 -41 668 10 q 581 -128 622 -92 q 483 -184 540 -164 q 357 -204 426 -204 q 174 -160 253 -204 q 58 -37 94 -115 l 110 4 q 201 -101 138 -62 q 358 -140 265 -140 q 532 -83 468 -140 q 596 75 596 -26 q 530 236 596 176 q 343 296 464 296 l 310 296 l 310 357 l 346 357 q 518 408 458 357 q 578 543 578 458 q 561 624 578 589 q 515 685 544 660 q 446 723 486 710 q 358 736 406 736 q 213 698 275 736 q 121 594 150 660 l 74 633 q 119 701 90 671 q 185 754 147 732 q 269 788 224 776 q 364 800 314 800 q 478 782 426 800 q 569 731 531 764 q 628 651 607 697 q 650 550 650 606 q 637 469 650 507 q 599 403 624 432 q 538 353 574 374 q 460 328 503 333 z "},"4":{"ha":744,"x_min":29,"x_max":701,"o":"m 510 -176 l 510 82 l 29 82 l 29 143 l 531 793 l 579 793 l 579 146 l 701 146 l 701 82 l 579 82 l 579 -176 l 510 -176 m 107 146 l 515 146 l 515 681 l 107 146 z "},"5":{"ha":764,"x_min":57,"x_max":707,"o":"m 386 431 q 511 408 453 431 q 613 343 569 385 q 682 244 657 301 q 707 117 707 186 q 680 -16 707 43 q 607 -118 653 -75 q 500 -184 561 -161 q 371 -207 439 -207 q 270 -193 318 -207 q 181 -153 222 -179 q 109 -92 140 -128 q 57 -12 78 -57 l 107 17 q 216 -99 146 -56 q 371 -143 286 -143 q 475 -124 426 -143 q 559 -71 524 -106 q 615 11 594 -36 q 636 117 636 58 q 616 218 636 172 q 561 297 596 264 q 480 349 526 331 q 379 367 433 367 q 246 335 308 367 q 143 246 183 304 l 76 246 q 84 285 78 256 q 98 354 90 314 q 115 443 106 394 q 135 540 125 492 q 186 793 158 654 l 658 793 l 658 728 l 239 728 l 163 338 q 261 406 203 382 q 386 431 319 431 z "},"6":{"ha":840,"x_min":79,"x_max":778,"o":"m 778 324 q 751 192 778 253 q 677 85 724 131 q 567 13 631 39 q 431 -14 503 -14 q 290 14 354 -14 q 178 93 225 42 q 106 219 132 144 q 79 388 79 293 q 106 657 79 543 q 179 846 132 771 q 292 957 226 921 q 438 993 358 993 q 615 942 538 993 q 729 801 693 890 l 681 764 q 587 885 653 839 q 438 931 521 931 q 319 899 372 931 q 228 808 265 868 q 169 660 190 747 q 147 460 147 572 q 192 541 163 504 q 259 604 221 578 q 343 645 297 631 q 439 660 389 660 q 572 633 510 660 q 679 561 633 607 q 751 454 725 515 q 778 324 778 393 m 433 49 q 540 70 490 49 q 628 129 590 92 q 688 217 665 167 q 710 324 710 267 q 688 431 710 381 q 628 518 665 481 q 540 578 590 556 q 432 600 489 600 q 324 578 375 600 q 236 518 274 556 q 176 431 199 481 q 154 324 154 381 q 176 217 154 267 q 237 129 199 167 q 326 70 275 92 q 433 49 376 49 z "},"7":{"ha":754,"x_min":67,"x_max":732,"o":"m 622 744 l 67 744 l 67 810 l 732 810 l 232 -176 l 153 -176 l 622 744 z "},"8":{"ha":825,"x_min":74,"x_max":750,"o":"m 750 269 q 722 154 750 206 q 647 66 694 103 q 538 10 600 29 q 408 -10 476 -10 q 272 13 333 -10 q 167 74 211 36 q 98 164 122 113 q 74 274 74 215 q 92 364 74 322 q 140 438 110 406 q 207 494 169 471 q 283 529 244 517 q 216 563 247 542 q 161 610 185 583 q 124 669 138 636 q 110 740 110 703 q 137 846 110 800 q 207 923 164 892 q 304 970 250 954 q 413 986 358 986 q 521 970 467 986 q 618 923 575 954 q 688 847 661 892 q 715 742 715 801 q 701 670 715 703 q 663 610 686 638 q 606 563 639 583 q 539 529 574 542 q 621 490 582 514 q 688 432 660 465 q 733 358 717 399 q 750 269 750 317 m 679 275 q 655 369 679 328 q 592 440 631 411 q 505 483 553 468 q 410 499 457 499 q 314 483 361 499 q 229 438 267 467 q 168 367 192 408 q 144 274 144 325 q 169 180 144 221 q 232 110 193 139 q 319 67 271 82 q 414 51 367 51 q 509 67 461 51 q 594 113 557 83 q 656 183 632 142 q 679 275 679 224 m 179 738 q 201 660 179 693 q 256 603 222 626 q 330 567 289 579 q 411 556 371 556 q 493 568 451 556 q 568 604 535 581 q 623 662 601 628 q 644 740 644 696 q 624 817 644 783 q 572 874 604 851 q 497 910 539 897 q 410 922 454 922 q 324 910 365 922 q 250 873 282 897 q 199 815 218 849 q 179 738 179 781 z "},"9":{"ha":818,"x_min":54,"x_max":753,"o":"m 54 456 q 81 588 54 526 q 155 694 108 649 q 265 767 201 740 q 401 793 328 793 q 542 765 478 793 q 653 686 606 738 q 726 560 700 635 q 753 392 753 485 q 726 122 753 236 q 653 -67 700 8 q 540 -178 606 -142 q 394 -214 474 -214 q 217 -162 294 -214 q 103 -22 139 -111 l 151 15 q 245 -106 179 -60 q 394 -151 311 -151 q 513 -120 460 -151 q 604 -28 567 -89 q 663 119 642 32 q 685 319 685 207 q 640 238 669 275 q 573 175 611 201 q 489 134 535 149 q 393 119 443 119 q 260 146 322 119 q 153 218 199 172 q 81 325 107 264 q 54 456 54 386 m 399 731 q 292 709 342 731 q 204 650 242 688 q 144 563 167 613 q 122 456 122 513 q 144 349 122 399 q 204 261 167 299 q 292 201 242 224 q 400 179 343 179 q 508 201 457 179 q 596 261 558 224 q 656 349 633 299 q 678 456 678 399 q 656 561 678 511 q 595 649 633 611 q 506 708 557 686 q 399 731 456 731 z "}," ":{"ha":363,"x_min":0,"x_max":0,"o":""},"Ǽ":{"ha":1381,"x_min":3,"x_max":1314,"o":"m 726 1133 l 678 1156 l 763 1274 l 843 1274 l 726 1133 m 644 986 l 1301 986 l 1301 922 l 732 922 l 732 536 l 1226 536 l 1226 471 l 732 471 l 732 64 l 1314 64 l 1314 0 l 663 0 l 663 325 l 292 325 l 82 0 l 3 0 l 644 986 m 658 389 l 658 897 l 326 389 l 658 389 z "},"´":{"ha":296,"x_min":68,"x_max":233,"o":"m 117 874 l 68 896 l 153 1014 l 233 1014 l 117 874 z "},"Á":{"ha":946,"x_min":25,"x_max":922,"o":"m 25 0 l 444 986 l 503 986 l 922 0 l 846 0 l 708 325 l 238 325 l 100 0 l 25 0 m 474 900 l 254 383 l 689 383 l 474 900 m 472 1133 l 424 1156 l 508 1274 l 589 1274 l 472 1133 z "},"Ă":{"ha":946,"x_min":25,"x_max":922,"o":"m 25 0 l 444 986 l 503 986 l 922 0 l 846 0 l 708 325 l 238 325 l 100 0 l 25 0 m 474 900 l 254 383 l 689 383 l 474 900 m 475 1185 q 526 1210 503 1185 q 553 1274 549 1236 l 599 1274 q 589 1224 599 1247 q 562 1183 579 1200 q 522 1156 544 1165 q 475 1146 500 1146 q 427 1156 450 1146 q 388 1183 404 1165 q 361 1224 371 1200 q 351 1274 351 1247 l 397 1274 q 421 1212 397 1239 q 475 1185 444 1185 z "},"˘":{"ha":374,"x_min":64,"x_max":311,"o":"m 188 925 q 238 951 215 925 q 265 1014 261 976 l 311 1014 q 301 964 311 988 q 274 923 292 940 q 235 896 257 906 q 188 886 213 886 q 140 896 163 886 q 100 923 117 906 q 74 964 83 940 q 64 1014 64 988 l 110 1014 q 133 952 110 979 q 188 925 157 925 z "},"Â":{"ha":946,"x_min":25,"x_max":922,"o":"m 25 0 l 444 986 l 503 986 l 922 0 l 846 0 l 708 325 l 238 325 l 100 0 l 25 0 m 474 900 l 254 383 l 689 383 l 474 900 m 314 1161 l 447 1274 l 499 1274 l 633 1161 l 592 1138 l 474 1225 l 356 1138 l 314 1161 z "},"ˆ":{"ha":444,"x_min":63,"x_max":382,"o":"m 63 901 l 196 1014 l 247 1014 l 382 901 l 340 878 l 222 965 l 104 878 l 63 901 z "},"Ä":{"ha":946,"x_min":25,"x_max":922,"o":"m 25 0 l 444 986 l 503 986 l 922 0 l 846 0 l 708 325 l 238 325 l 100 0 l 25 0 m 474 900 l 254 383 l 689 383 l 474 900 m 349 1150 l 349 1272 l 410 1272 l 410 1150 l 349 1150 m 538 1150 l 538 1272 l 599 1272 l 599 1150 l 538 1150 z "},"¨":{"ha":408,"x_min":79,"x_max":329,"o":"m 79 889 l 79 1011 l 140 1011 l 140 889 l 79 889 m 268 889 l 268 1011 l 329 1011 l 329 889 l 268 889 z "},"À":{"ha":946,"x_min":25,"x_max":922,"o":"m 25 0 l 444 986 l 503 986 l 922 0 l 846 0 l 708 325 l 238 325 l 100 0 l 25 0 m 474 900 l 254 383 l 689 383 l 474 900 m 357 1275 l 436 1275 l 522 1157 l 475 1135 l 357 1275 z "},"`":{"ha":296,"x_min":68,"x_max":233,"o":"m 68 1014 l 147 1014 l 233 896 l 186 874 l 68 1014 z "},"Ā":{"ha":946,"x_min":25,"x_max":922,"o":"m 25 0 l 444 986 l 503 986 l 922 0 l 846 0 l 708 325 l 238 325 l 100 0 l 25 0 m 474 900 l 254 383 l 689 383 l 474 900 m 276 1193 l 276 1244 l 672 1244 l 672 1193 l 276 1193 z "},"¯":{"ha":542,"x_min":74,"x_max":469,"o":"m 74 933 l 74 985 l 469 985 l 469 933 l 74 933 z "},"Ą":{"ha":946,"x_min":25,"x_max":922,"o":"m 854 -232 q 785 -197 810 -222 q 761 -137 761 -172 q 784 -70 761 -103 q 858 0 807 -37 l 846 0 l 708 325 l 238 325 l 100 0 l 25 0 l 444 986 l 503 986 l 919 4 l 922 3 q 921 1 921 3 l 922 0 l 918 0 q 833 -68 857 -40 q 808 -128 808 -96 q 876 -190 808 -181 l 854 -232 m 474 900 l 254 383 l 689 383 l 474 900 z "},"˛":{"ha":314,"x_min":72,"x_max":233,"o":"m 165 -235 q 97 -200 121 -225 q 72 -140 72 -175 q 104 -62 72 -100 q 207 22 136 -24 l 233 0 q 145 -69 171 -40 q 119 -131 119 -99 q 188 -193 119 -183 l 165 -235 l 165 -235 z "},"Å":{"ha":946,"x_min":25,"x_max":922,"o":"m 25 0 l 444 986 l 503 986 l 922 0 l 846 0 l 708 325 l 238 325 l 100 0 l 25 0 m 474 900 l 254 383 l 689 383 l 474 900 m 379 1188 q 406 1249 379 1225 q 474 1274 433 1274 q 541 1249 514 1274 q 568 1188 568 1225 q 541 1124 568 1149 q 474 1100 514 1100 q 406 1124 433 1100 q 379 1188 379 1149 m 474 1242 q 434 1227 450 1242 q 418 1188 418 1213 q 434 1148 418 1164 q 474 1132 450 1132 q 513 1148 496 1132 q 531 1188 531 1164 q 514 1227 531 1213 q 474 1242 497 1242 z "},"˚":{"ha":339,"x_min":75,"x_max":264,"o":"m 75 928 q 102 990 75 965 q 169 1014 129 1014 q 237 990 210 1014 q 264 928 264 965 q 237 865 264 889 q 169 840 210 840 q 102 865 129 840 q 75 928 75 889 m 169 982 q 130 967 146 982 q 114 928 114 953 q 130 888 114 904 q 169 872 146 872 q 209 888 192 872 q 226 928 226 904 q 210 967 226 953 q 169 982 193 982 z "},"Ǻ":{"ha":946,"x_min":25,"x_max":922,"o":"m 379 1042 q 406 1103 379 1079 q 474 1128 433 1128 q 541 1103 514 1128 q 568 1042 568 1079 q 553 992 568 1013 q 513 961 538 971 l 922 0 l 846 0 l 708 325 l 238 325 l 100 0 l 25 0 l 435 961 q 394 992 410 971 q 379 1042 379 1013 m 474 900 l 254 383 l 689 383 l 474 900 m 474 1096 q 434 1081 450 1096 q 418 1042 418 1067 q 434 1002 418 1018 q 474 986 450 986 q 513 1002 496 986 q 531 1042 531 1018 q 514 1081 531 1067 q 474 1096 497 1096 m 476 1138 l 428 1160 l 513 1275 l 593 1275 l 476 1138 z "},"Ã":{"ha":946,"x_min":25,"x_max":922,"o":"m 25 0 l 444 986 l 503 986 l 922 0 l 846 0 l 708 325 l 238 325 l 100 0 l 25 0 m 474 900 l 254 383 l 689 383 l 474 900 m 558 1158 q 504 1167 528 1158 q 461 1185 481 1175 q 423 1205 442 1196 q 383 1214 404 1214 q 346 1204 360 1214 q 325 1183 332 1194 q 315 1160 318 1171 q 313 1147 313 1150 l 265 1147 q 269 1172 265 1153 q 287 1210 274 1190 q 323 1247 300 1231 q 383 1263 346 1263 q 433 1253 411 1263 q 474 1234 454 1244 q 513 1215 493 1224 q 560 1207 533 1207 q 603 1217 588 1207 q 627 1238 619 1226 q 637 1260 635 1250 q 639 1274 639 1271 l 686 1274 q 681 1248 686 1267 q 663 1210 676 1229 q 625 1174 650 1190 q 558 1158 600 1158 z "},"˜":{"ha":551,"x_min":65,"x_max":486,"o":"m 358 899 q 304 907 328 899 q 261 926 281 915 q 223 945 242 936 q 183 954 204 954 q 146 944 160 954 q 125 923 132 935 q 115 901 118 911 q 113 888 113 890 l 65 888 q 69 912 65 893 q 87 951 74 931 q 123 987 100 971 q 183 1003 146 1003 q 233 994 211 1003 q 274 974 254 985 q 313 956 293 964 q 360 947 333 947 q 403 957 388 947 q 427 978 419 967 q 437 1001 435 990 q 439 1014 439 1011 l 486 1014 q 481 988 486 1007 q 463 950 476 969 q 425 915 450 931 q 358 899 400 899 z "},"B":{"ha":924,"x_min":131,"x_max":857,"o":"m 857 256 q 836 155 857 201 q 779 74 815 108 q 694 19 743 39 q 592 0 646 0 l 131 0 l 131 986 l 590 986 q 683 964 642 986 q 754 906 725 942 q 799 826 783 871 q 815 735 815 781 q 778 597 815 660 q 674 506 740 535 q 808 412 758 481 q 857 256 857 343 m 786 265 q 772 341 786 304 q 733 406 758 378 q 674 451 708 435 q 601 468 640 468 l 201 468 l 201 64 l 592 64 q 669 81 633 64 q 730 126 704 97 q 771 190 756 154 q 786 265 786 226 m 201 922 l 201 528 l 563 528 q 636 544 603 528 q 694 588 669 561 q 732 651 718 615 q 746 725 746 688 q 733 801 746 765 q 697 863 719 836 q 642 906 674 890 q 571 922 610 922 l 201 922 z "},"C":{"ha":964,"x_min":65,"x_max":915,"o":"m 65 500 q 97 677 65 589 q 188 835 128 765 q 334 948 247 904 q 532 992 421 992 q 757 931 664 992 q 894 776 850 871 l 836 743 q 776 829 811 794 q 699 885 740 864 q 614 917 658 907 q 526 926 569 926 q 360 888 432 926 q 238 789 288 850 q 162 651 188 728 q 136 496 136 574 q 167 329 136 408 q 250 190 197 250 q 375 93 303 129 q 531 57 447 57 q 622 68 575 57 q 712 103 668 79 q 793 163 756 126 q 856 250 831 200 l 915 221 q 848 122 890 165 q 753 50 806 79 q 641 6 700 21 q 525 -8 582 -8 q 340 36 424 -8 q 194 152 256 81 q 99 315 133 224 q 65 500 65 406 z "},"Ć":{"ha":964,"x_min":65,"x_max":915,"o":"m 529 1133 l 481 1156 l 565 1274 l 646 1274 l 529 1133 m 65 500 q 97 677 65 589 q 188 835 128 765 q 334 948 247 904 q 532 992 421 992 q 757 931 664 992 q 894 776 850 871 l 836 743 q 776 829 811 794 q 699 885 740 864 q 614 917 658 907 q 526 926 569 926 q 360 888 432 926 q 238 789 288 850 q 162 651 188 728 q 136 496 136 574 q 167 329 136 408 q 250 190 197 250 q 375 93 303 129 q 531 57 447 57 q 622 68 575 57 q 712 103 668 79 q 793 163 756 126 q 856 250 831 200 l 915 221 q 848 122 890 165 q 753 50 806 79 q 641 6 700 21 q 525 -8 582 -8 q 340 36 424 -8 q 194 152 256 81 q 99 315 133 224 q 65 500 65 406 z "},"Č":{"ha":964,"x_min":65,"x_max":915,"o":"m 413 1274 l 531 1186 l 649 1274 l 690 1250 l 556 1138 l 504 1138 l 371 1250 l 413 1274 m 65 500 q 97 677 65 589 q 188 835 128 765 q 334 948 247 904 q 532 992 421 992 q 757 931 664 992 q 894 776 850 871 l 836 743 q 776 829 811 794 q 699 885 740 864 q 614 917 658 907 q 526 926 569 926 q 360 888 432 926 q 238 789 288 850 q 162 651 188 728 q 136 496 136 574 q 167 329 136 408 q 250 190 197 250 q 375 93 303 129 q 531 57 447 57 q 622 68 575 57 q 712 103 668 79 q 793 163 756 126 q 856 250 831 200 l 915 221 q 848 122 890 165 q 753 50 806 79 q 641 6 700 21 q 525 -8 582 -8 q 340 36 424 -8 q 194 152 256 81 q 99 315 133 224 q 65 500 65 406 z "},"ˇ":{"ha":444,"x_min":63,"x_max":382,"o":"m 104 1014 l 222 926 l 340 1014 l 382 990 l 247 878 l 196 878 l 63 990 l 104 1014 z "},"Ç":{"ha":965,"x_min":67,"x_max":917,"o":"m 422 -174 q 474 -192 442 -183 q 543 -200 507 -200 q 624 -149 624 -200 q 605 -110 624 -121 q 556 -99 586 -99 q 494 -106 526 -99 q 443 -118 463 -112 l 504 -7 q 326 43 407 -3 q 188 160 246 89 q 99 319 131 231 q 67 500 67 408 q 98 677 67 589 q 189 835 129 765 q 335 948 249 904 q 533 992 422 992 q 758 931 665 992 q 896 776 851 871 l 838 743 q 777 829 813 794 q 701 885 742 864 q 615 917 660 907 q 528 926 571 926 q 361 888 433 926 q 239 789 289 850 q 163 651 189 728 q 138 496 138 574 q 168 329 138 408 q 251 190 199 250 q 376 93 304 129 q 532 57 449 57 q 623 68 576 57 q 713 103 669 79 q 794 163 757 126 q 857 250 832 200 l 917 221 q 853 127 893 168 q 765 57 814 86 q 660 12 715 28 q 551 -7 606 -4 l 511 -74 q 540 -67 524 -68 q 567 -65 556 -65 q 640 -86 614 -65 q 667 -147 667 -107 q 633 -215 667 -192 q 538 -237 600 -237 q 463 -230 497 -237 q 403 -211 429 -222 l 422 -174 z "},"¸":{"ha":376,"x_min":32,"x_max":296,"o":"m 51 -174 q 103 -192 71 -183 q 172 -200 136 -200 q 253 -149 253 -200 q 234 -110 253 -121 q 185 -99 215 -99 q 124 -106 156 -99 q 72 -118 92 -112 l 150 21 l 188 4 l 140 -74 q 169 -67 153 -68 q 196 -65 185 -65 q 269 -86 243 -65 q 296 -147 296 -107 q 263 -215 296 -192 q 167 -237 229 -237 q 92 -230 126 -237 q 32 -211 58 -222 l 51 -174 z "},"Ĉ":{"ha":964,"x_min":65,"x_max":915,"o":"m 371 1161 l 504 1274 l 556 1274 l 690 1161 l 649 1138 l 531 1225 l 413 1138 l 371 1161 m 65 500 q 97 677 65 589 q 188 835 128 765 q 334 948 247 904 q 532 992 421 992 q 757 931 664 992 q 894 776 850 871 l 836 743 q 776 829 811 794 q 699 885 740 864 q 614 917 658 907 q 526 926 569 926 q 360 888 432 926 q 238 789 288 850 q 162 651 188 728 q 136 496 136 574 q 167 329 136 408 q 250 190 197 250 q 375 93 303 129 q 531 57 447 57 q 622 68 575 57 q 712 103 668 79 q 793 163 756 126 q 856 250 831 200 l 915 221 q 848 122 890 165 q 753 50 806 79 q 641 6 700 21 q 525 -8 582 -8 q 340 36 424 -8 q 194 152 256 81 q 99 315 133 224 q 65 500 65 406 z "},"Ċ":{"ha":964,"x_min":65,"x_max":915,"o":"m 65 500 q 97 677 65 589 q 188 835 128 765 q 334 948 247 904 q 532 992 421 992 q 757 931 664 992 q 894 776 850 871 l 836 743 q 776 829 811 794 q 699 885 740 864 q 614 917 658 907 q 526 926 569 926 q 360 888 432 926 q 238 789 288 850 q 162 651 188 728 q 136 496 136 574 q 167 329 136 408 q 250 190 197 250 q 375 93 303 129 q 531 57 447 57 q 622 68 575 57 q 712 103 668 79 q 793 163 756 126 q 856 250 831 200 l 915 221 q 848 122 890 165 q 753 50 806 79 q 641 6 700 21 q 525 -8 582 -8 q 340 36 424 -8 q 194 152 256 81 q 99 315 133 224 q 65 500 65 406 m 497 1149 l 497 1274 l 561 1274 l 561 1149 l 497 1149 z "},"˙":{"ha":203,"x_min":69,"x_max":133,"o":"m 69 889 l 69 1014 l 133 1014 l 133 889 l 69 889 z "},"D":{"ha":997,"x_min":131,"x_max":926,"o":"m 131 0 l 131 986 l 458 986 q 663 947 575 986 q 810 842 751 908 q 897 685 868 775 q 926 494 926 596 q 894 291 926 382 q 800 135 861 200 q 652 35 739 71 q 458 0 565 0 l 131 0 m 856 494 q 829 666 856 588 q 752 801 803 744 q 628 890 701 858 q 458 922 554 922 l 201 922 l 201 64 l 458 64 q 630 97 556 64 q 754 188 704 129 q 830 324 804 246 q 856 494 856 403 z "},"Ď":{"ha":997,"x_min":131,"x_max":926,"o":"m 367 1274 l 485 1186 l 603 1274 l 644 1250 l 510 1138 l 458 1138 l 325 1250 l 367 1274 m 131 0 l 131 986 l 458 986 q 663 947 575 986 q 810 842 751 908 q 897 685 868 775 q 926 494 926 596 q 894 291 926 382 q 800 135 861 200 q 652 35 739 71 q 458 0 565 0 l 131 0 m 856 494 q 829 666 856 588 q 752 801 803 744 q 628 890 701 858 q 458 922 554 922 l 201 922 l 201 64 l 458 64 q 630 97 556 64 q 754 188 704 129 q 830 324 804 246 q 856 494 856 403 z "},"Đ":{"ha":1006,"x_min":49,"x_max":935,"o":"m 139 0 l 139 467 l 49 467 l 49 525 l 139 525 l 139 986 l 467 986 q 672 947 583 986 q 818 842 760 908 q 906 685 876 775 q 935 494 935 596 q 902 291 935 382 q 808 135 869 200 q 660 35 747 71 q 467 0 574 0 l 139 0 m 864 494 q 838 666 864 588 q 760 801 811 744 q 636 890 710 858 q 467 922 563 922 l 210 922 l 210 525 l 457 525 l 457 467 l 210 467 l 210 64 l 467 64 q 638 97 564 64 q 763 188 713 129 q 838 324 813 246 q 864 494 864 403 z "},"E":{"ha":854,"x_min":131,"x_max":788,"o":"m 788 64 l 788 0 l 131 0 l 131 986 l 775 986 l 775 922 l 201 922 l 201 535 l 703 535 l 703 474 l 201 474 l 201 64 l 788 64 z "},"É":{"ha":854,"x_min":131,"x_max":788,"o":"m 472 1133 l 424 1156 l 508 1274 l 589 1274 l 472 1133 m 788 64 l 788 0 l 131 0 l 131 986 l 775 986 l 775 922 l 201 922 l 201 535 l 703 535 l 703 474 l 201 474 l 201 64 l 788 64 z "},"Ĕ":{"ha":854,"x_min":131,"x_max":788,"o":"m 788 64 l 788 0 l 131 0 l 131 986 l 775 986 l 775 922 l 201 922 l 201 535 l 703 535 l 703 474 l 201 474 l 201 64 l 788 64 m 474 1185 q 524 1210 501 1185 q 551 1274 547 1236 l 597 1274 q 588 1224 597 1247 q 560 1183 578 1200 q 521 1156 543 1165 q 474 1146 499 1146 q 426 1156 449 1146 q 386 1183 403 1165 q 360 1224 369 1200 q 350 1274 350 1247 l 396 1274 q 419 1212 396 1239 q 474 1185 443 1185 z "},"Ě":{"ha":854,"x_min":131,"x_max":788,"o":"m 356 1274 l 474 1186 l 592 1274 l 633 1250 l 499 1138 l 447 1138 l 314 1250 l 356 1274 m 788 64 l 788 0 l 131 0 l 131 986 l 775 986 l 775 922 l 201 922 l 201 535 l 703 535 l 703 474 l 201 474 l 201 64 l 788 64 z "},"Ê":{"ha":854,"x_min":131,"x_max":788,"o":"m 314 1161 l 447 1274 l 499 1274 l 633 1161 l 592 1138 l 474 1225 l 356 1138 l 314 1161 m 788 64 l 788 0 l 131 0 l 131 986 l 775 986 l 775 922 l 201 922 l 201 535 l 703 535 l 703 474 l 201 474 l 201 64 l 788 64 z "},"Ë":{"ha":854,"x_min":131,"x_max":788,"o":"m 349 1150 l 349 1272 l 410 1272 l 410 1150 l 349 1150 m 538 1150 l 538 1272 l 599 1272 l 599 1150 l 538 1150 m 788 64 l 788 0 l 131 0 l 131 986 l 775 986 l 775 922 l 201 922 l 201 535 l 703 535 l 703 474 l 201 474 l 201 64 l 788 64 z "},"Ė":{"ha":854,"x_min":131,"x_max":788,"o":"m 788 64 l 788 0 l 131 0 l 131 986 l 775 986 l 775 922 l 201 922 l 201 535 l 703 535 l 703 474 l 201 474 l 201 64 l 788 64 m 440 1149 l 440 1274 l 504 1274 l 504 1149 l 440 1149 z "},"È":{"ha":854,"x_min":131,"x_max":788,"o":"m 788 64 l 788 0 l 131 0 l 131 986 l 775 986 l 775 922 l 201 922 l 201 535 l 703 535 l 703 474 l 201 474 l 201 64 l 788 64 m 357 1275 l 436 1275 l 522 1157 l 475 1135 l 357 1275 z "},"Ē":{"ha":854,"x_min":131,"x_max":788,"o":"m 788 64 l 788 0 l 131 0 l 131 986 l 775 986 l 775 922 l 201 922 l 201 535 l 703 535 l 703 474 l 201 474 l 201 64 l 788 64 m 276 1193 l 276 1244 l 672 1244 l 672 1193 l 276 1193 z "},"Ŋ":{"ha":1072,"x_min":131,"x_max":942,"o":"m 201 851 l 201 0 l 131 0 l 131 986 l 185 986 l 871 121 l 871 985 l 942 985 l 942 -40 q 924 -124 942 -86 q 878 -188 907 -161 q 813 -231 849 -215 q 739 -246 776 -246 q 656 -234 694 -246 q 588 -194 618 -222 l 626 -149 q 676 -175 649 -168 q 732 -182 704 -182 q 783 -172 758 -182 q 828 -142 808 -161 q 860 -98 847 -124 q 872 -42 872 -72 l 872 6 l 201 851 z "},"Ę":{"ha":854,"x_min":131,"x_max":788,"o":"m 788 64 l 788 0 l 497 0 q 409 -69 435 -40 q 383 -131 383 -99 q 451 -193 383 -183 l 429 -235 q 360 -200 385 -225 q 336 -140 336 -175 q 360 -72 336 -106 q 438 0 385 -37 l 131 0 l 131 986 l 775 986 l 775 922 l 201 922 l 201 535 l 703 535 l 703 474 l 201 474 l 201 64 l 788 64 z "},"Ð":{"ha":1006,"x_min":49,"x_max":935,"o":"m 139 0 l 139 467 l 49 467 l 49 525 l 139 525 l 139 986 l 467 986 q 672 947 583 986 q 818 842 760 908 q 906 685 876 775 q 935 494 935 596 q 902 291 935 382 q 808 135 869 200 q 660 35 747 71 q 467 0 574 0 l 139 0 m 864 494 q 838 666 864 588 q 760 801 811 744 q 636 890 710 858 q 467 922 563 922 l 210 922 l 210 525 l 457 525 l 457 467 l 210 467 l 210 64 l 467 64 q 638 97 564 64 q 763 188 713 129 q 838 324 813 246 q 864 494 864 403 z "},"Ẽ":{"ha":854,"x_min":131,"x_max":788,"o":"m 788 64 l 788 0 l 131 0 l 131 986 l 775 986 l 775 922 l 201 922 l 201 535 l 703 535 l 703 474 l 201 474 l 201 64 l 788 64 m 558 1158 q 504 1167 528 1158 q 461 1185 481 1175 q 423 1205 442 1196 q 383 1214 404 1214 q 346 1204 360 1214 q 325 1183 332 1194 q 315 1160 318 1171 q 313 1147 313 1150 l 265 1147 q 269 1172 265 1153 q 287 1210 274 1190 q 323 1247 300 1231 q 383 1263 346 1263 q 433 1253 411 1263 q 474 1234 454 1244 q 513 1215 493 1224 q 560 1207 533 1207 q 603 1217 588 1207 q 627 1238 619 1226 q 637 1260 635 1250 q 639 1274 639 1271 l 686 1274 q 681 1248 686 1267 q 663 1210 676 1229 q 625 1174 650 1190 q 558 1158 600 1158 z "},"€":{"ha":1124,"x_min":47,"x_max":1047,"o":"m 201 569 q 249 726 213 650 q 344 862 285 803 q 483 956 403 921 q 664 992 564 992 q 889 931 796 992 q 1026 776 982 871 l 968 743 q 908 829 943 794 q 831 885 872 864 q 746 917 790 907 q 658 926 701 926 q 509 897 575 926 q 394 817 443 867 q 314 702 344 767 q 274 569 283 638 l 772 569 l 751 522 l 268 522 l 268 496 q 272 432 268 463 l 721 432 l 699 385 l 281 385 q 333 256 297 315 q 418 152 368 196 q 531 83 468 108 q 663 57 593 57 q 753 68 707 57 q 844 103 800 79 q 925 163 888 126 q 988 250 963 200 l 1047 221 q 980 122 1022 165 q 885 50 938 79 q 773 6 832 21 q 657 -8 714 -8 q 497 24 571 -8 q 365 110 424 56 q 267 235 307 164 q 210 385 228 307 l 47 385 l 68 432 l 201 432 q 197 500 197 465 l 197 522 l 93 522 l 114 569 l 201 569 z "},"F":{"ha":818,"x_min":131,"x_max":772,"o":"m 131 0 l 131 986 l 772 986 l 772 922 l 201 922 l 201 531 l 686 531 l 686 469 l 201 469 l 201 0 l 131 0 z "},"G":{"ha":1007,"x_min":67,"x_max":922,"o":"m 860 153 q 529 -7 717 -7 q 344 36 429 -7 q 197 150 258 79 q 101 311 136 221 q 67 494 67 401 q 101 682 67 592 q 195 842 135 772 q 338 952 256 911 q 519 993 421 993 q 653 977 594 993 q 758 933 713 961 q 838 865 804 904 q 896 778 872 825 l 839 743 q 705 884 788 840 q 518 928 622 928 q 360 890 431 928 q 240 792 290 853 q 164 653 190 731 q 138 493 138 575 q 168 327 138 406 q 252 189 199 249 q 378 94 306 129 q 533 58 450 58 q 703 100 624 58 q 860 231 783 142 l 860 422 l 636 422 l 636 479 l 922 479 l 922 0 l 860 0 l 860 153 z "},"Ğ":{"ha":1007,"x_min":67,"x_max":922,"o":"m 860 153 q 529 -7 717 -7 q 344 36 429 -7 q 197 150 258 79 q 101 311 136 221 q 67 494 67 401 q 101 682 67 592 q 195 842 135 772 q 338 952 256 911 q 519 993 421 993 q 653 977 594 993 q 758 933 713 961 q 838 865 804 904 q 896 778 872 825 l 839 743 q 705 884 788 840 q 518 928 622 928 q 360 890 431 928 q 240 792 290 853 q 164 653 190 731 q 138 493 138 575 q 168 327 138 406 q 252 189 199 249 q 378 94 306 129 q 533 58 450 58 q 703 100 624 58 q 860 231 783 142 l 860 422 l 636 422 l 636 479 l 922 479 l 922 0 l 860 0 l 860 153 m 519 1185 q 570 1210 547 1185 q 597 1274 593 1236 l 643 1274 q 633 1224 643 1247 q 606 1183 624 1200 q 567 1156 589 1165 q 519 1146 544 1146 q 472 1156 494 1146 q 432 1183 449 1165 q 406 1224 415 1200 q 396 1274 396 1247 l 442 1274 q 465 1212 442 1239 q 519 1185 489 1185 z "},"Ĝ":{"ha":1007,"x_min":67,"x_max":922,"o":"m 358 1161 l 492 1274 l 543 1274 l 678 1161 l 636 1138 l 518 1225 l 400 1138 l 358 1161 m 860 153 q 529 -7 717 -7 q 344 36 429 -7 q 197 150 258 79 q 101 311 136 221 q 67 494 67 401 q 101 682 67 592 q 195 842 135 772 q 338 952 256 911 q 519 993 421 993 q 653 977 594 993 q 758 933 713 961 q 838 865 804 904 q 896 778 872 825 l 839 743 q 705 884 788 840 q 518 928 622 928 q 360 890 431 928 q 240 792 290 853 q 164 653 190 731 q 138 493 138 575 q 168 327 138 406 q 252 189 199 249 q 378 94 306 129 q 533 58 450 58 q 703 100 624 58 q 860 231 783 142 l 860 422 l 636 422 l 636 479 l 922 479 l 922 0 l 860 0 l 860 153 z "},"Ģ":{"ha":1007,"x_min":67,"x_max":922,"o":"m 475 -179 q 500 -157 500 -179 l 500 -68 l 561 -68 l 561 -157 q 538 -206 561 -193 q 475 -219 514 -219 l 475 -179 m 860 153 q 529 -7 717 -7 q 344 36 429 -7 q 197 150 258 79 q 101 311 136 221 q 67 494 67 401 q 101 682 67 592 q 195 842 135 772 q 338 952 256 911 q 519 993 421 993 q 653 977 594 993 q 758 933 713 961 q 838 865 804 904 q 896 778 872 825 l 839 743 q 705 884 788 840 q 518 928 622 928 q 360 890 431 928 q 240 792 290 853 q 164 653 190 731 q 138 493 138 575 q 168 327 138 406 q 252 189 199 249 q 378 94 306 129 q 533 58 450 58 q 703 100 624 58 q 860 231 783 142 l 860 422 l 636 422 l 636 479 l 922 479 l 922 0 l 860 0 l 860 153 z "},"":{"ha":196,"x_min":60,"x_max":146,"o":"m 60 -179 q 85 -157 85 -179 l 85 -68 l 146 -68 l 146 -157 q 122 -206 146 -193 q 60 -219 99 -219 l 60 -179 z "},"Ġ":{"ha":1007,"x_min":67,"x_max":922,"o":"m 860 153 q 529 -7 717 -7 q 344 36 429 -7 q 197 150 258 79 q 101 311 136 221 q 67 494 67 401 q 101 682 67 592 q 195 842 135 772 q 338 952 256 911 q 519 993 421 993 q 653 977 594 993 q 758 933 713 961 q 838 865 804 904 q 896 778 872 825 l 839 743 q 705 884 788 840 q 518 928 622 928 q 360 890 431 928 q 240 792 290 853 q 164 653 190 731 q 138 493 138 575 q 168 327 138 406 q 252 189 199 249 q 378 94 306 129 q 533 58 450 58 q 703 100 624 58 q 860 231 783 142 l 860 422 l 636 422 l 636 479 l 922 479 l 922 0 l 860 0 l 860 153 m 486 1149 l 486 1274 l 550 1274 l 550 1149 l 486 1149 z "},"H":{"ha":1025,"x_min":131,"x_max":894,"o":"m 894 986 l 894 0 l 824 0 l 824 472 l 201 472 l 201 0 l 131 0 l 131 986 l 201 986 l 201 536 l 824 536 l 824 986 l 894 986 z "},"Ħ":{"ha":1035,"x_min":67,"x_max":969,"o":"m 900 986 l 900 810 l 969 810 l 969 765 l 900 765 l 900 0 l 829 0 l 829 472 l 207 472 l 207 0 l 136 0 l 136 765 l 67 765 l 67 810 l 136 810 l 136 986 l 207 986 l 207 810 l 829 810 l 829 986 l 900 986 m 829 536 l 829 765 l 207 765 l 207 536 l 829 536 z "},"Ĥ":{"ha":1025,"x_min":131,"x_max":894,"o":"m 356 1161 l 489 1274 l 540 1274 l 675 1161 l 633 1138 l 515 1225 l 397 1138 l 356 1161 m 894 986 l 894 0 l 824 0 l 824 472 l 201 472 l 201 0 l 131 0 l 131 986 l 201 986 l 201 536 l 824 536 l 824 986 l 894 986 z "},"I":{"ha":332,"x_min":131,"x_max":201,"o":"m 131 0 l 131 985 l 201 985 l 201 0 l 131 0 z "},"Ĳ":{"ha":1004,"x_min":131,"x_max":885,"o":"m 131 0 l 131 985 l 201 985 l 201 0 l 131 0 m 382 103 q 465 65 417 79 q 574 50 514 50 q 701 79 654 50 q 774 164 749 108 q 806 301 799 219 q 814 485 814 382 l 814 985 l 885 985 l 885 485 q 875 280 885 372 q 833 122 865 188 q 739 21 800 57 q 574 -15 678 -15 q 360 46 449 -15 l 382 103 z "},"J":{"ha":672,"x_min":28,"x_max":553,"o":"m 50 103 q 133 65 85 79 q 242 50 182 50 q 369 79 322 50 q 442 164 417 108 q 474 301 467 219 q 482 485 482 382 l 482 985 l 553 985 l 553 485 q 543 280 553 372 q 501 122 533 188 q 407 21 468 57 q 242 -15 346 -15 q 28 46 117 -15 l 50 103 z "},"Í":{"ha":332,"x_min":117,"x_max":282,"o":"m 131 0 l 131 985 l 201 985 l 201 0 l 131 0 m 165 1133 l 117 1156 l 201 1274 l 282 1274 l 165 1133 z "},"Ĭ":{"ha":332,"x_min":43,"x_max":290,"o":"m 131 0 l 131 985 l 201 985 l 201 0 l 131 0 m 167 1185 q 217 1210 194 1185 q 244 1274 240 1236 l 290 1274 q 281 1224 290 1247 q 253 1183 271 1200 q 214 1156 236 1165 q 167 1146 192 1146 q 119 1156 142 1146 q 79 1183 96 1165 q 53 1224 63 1200 q 43 1274 43 1247 l 89 1274 q 113 1212 89 1239 q 167 1185 136 1185 z "},"Î":{"ha":332,"x_min":7,"x_max":326,"o":"m 131 0 l 131 985 l 201 985 l 201 0 l 131 0 m 7 1161 l 140 1274 l 192 1274 l 326 1161 l 285 1138 l 167 1225 l 49 1138 l 7 1161 z "},"Ï":{"ha":332,"x_min":40,"x_max":290,"o":"m 131 0 l 131 985 l 201 985 l 201 0 l 131 0 m 40 1150 l 40 1272 l 101 1272 l 101 1150 l 40 1150 m 229 1150 l 229 1272 l 290 1272 l 290 1150 l 229 1150 z "},"İ":{"ha":332,"x_min":131,"x_max":201,"o":"m 131 0 l 131 985 l 201 985 l 201 0 l 131 0 m 133 1149 l 133 1274 l 197 1274 l 197 1149 l 133 1149 z "},"Ì":{"ha":332,"x_min":49,"x_max":214,"o":"m 131 0 l 131 985 l 201 985 l 201 0 l 131 0 m 49 1275 l 128 1275 l 214 1157 l 167 1135 l 49 1275 z "},"Ī":{"ha":332,"x_min":-31,"x_max":365,"o":"m 131 0 l 131 985 l 201 985 l 201 0 l 131 0 m -31 1193 l -31 1244 l 365 1244 l 365 1193 l -31 1193 z "},"Į":{"ha":332,"x_min":40,"x_max":201,"o":"m 133 -235 q 65 -200 89 -225 q 40 -140 40 -175 q 65 -72 40 -106 q 142 0 89 -37 l 131 0 l 131 985 l 201 985 l 201 0 q 113 -69 139 -40 q 88 -131 88 -99 q 156 -193 88 -183 l 133 -235 l 133 -235 z "},"Ĩ":{"ha":332,"x_min":-42,"x_max":379,"o":"m 131 0 l 131 985 l 201 985 l 201 0 l 131 0 m 251 1158 q 197 1167 221 1158 q 154 1185 174 1175 q 116 1205 135 1196 q 76 1214 97 1214 q 39 1204 53 1214 q 18 1183 25 1194 q 8 1160 11 1171 q 6 1147 6 1150 l -42 1147 q -37 1172 -42 1153 q -20 1210 -33 1190 q 16 1247 -7 1231 q 76 1263 39 1263 q 126 1253 104 1263 q 167 1234 147 1244 q 206 1215 186 1224 q 253 1207 226 1207 q 297 1217 281 1207 q 320 1238 313 1226 q 330 1260 328 1250 q 332 1274 332 1271 l 379 1274 q 374 1248 379 1267 q 356 1210 369 1229 q 318 1174 343 1190 q 251 1158 293 1158 z "},"Ĵ":{"ha":672,"x_min":28,"x_max":678,"o":"m 358 1161 l 492 1274 l 543 1274 l 678 1161 l 636 1138 l 518 1225 l 400 1138 l 358 1161 m 50 103 q 133 65 85 79 q 242 50 182 50 q 369 79 322 50 q 442 164 417 108 q 474 301 467 219 q 482 485 482 382 l 482 985 l 553 985 l 553 485 q 543 280 553 372 q 501 122 533 188 q 407 21 468 57 q 242 -15 346 -15 q 28 46 117 -15 l 50 103 z "},"K":{"ha":881,"x_min":131,"x_max":879,"o":"m 131 0 l 131 985 l 201 985 l 201 388 l 776 986 l 858 986 l 449 554 l 879 0 l 799 0 l 403 511 l 201 304 l 201 0 l 131 0 z "},"Ķ":{"ha":881,"x_min":131,"x_max":879,"o":"m 396 -179 q 421 -157 421 -179 l 421 -68 l 482 -68 l 482 -157 q 458 -206 482 -193 q 396 -219 435 -219 l 396 -179 m 131 0 l 131 985 l 201 985 l 201 388 l 776 986 l 858 986 l 449 554 l 879 0 l 799 0 l 403 511 l 201 304 l 201 0 l 131 0 z "},"L":{"ha":821,"x_min":131,"x_max":790,"o":"m 131 0 l 131 986 l 201 986 l 201 64 l 790 64 l 790 0 l 131 0 z "},"Ĺ":{"ha":821,"x_min":131,"x_max":790,"o":"m 471 1133 l 422 1156 l 507 1274 l 588 1274 l 471 1133 m 131 0 l 131 986 l 201 986 l 201 64 l 790 64 l 790 0 l 131 0 z "},"Ľ":{"ha":821,"x_min":131,"x_max":790,"o":"m 518 874 l 469 896 l 554 1014 l 635 1014 l 518 874 m 131 0 l 131 986 l 201 986 l 201 64 l 790 64 l 790 0 l 131 0 z "},"Ļ":{"ha":821,"x_min":131,"x_max":790,"o":"m 407 -179 q 432 -157 432 -179 l 432 -68 l 493 -68 l 493 -157 q 469 -206 493 -193 q 407 -219 446 -219 l 407 -179 m 131 0 l 131 986 l 201 986 l 201 64 l 790 64 l 790 0 l 131 0 z "},"Ŀ":{"ha":821,"x_min":131,"x_max":790,"o":"m 131 0 l 131 986 l 201 986 l 201 64 l 790 64 l 790 0 l 131 0 m 510 490 l 510 631 l 571 631 l 571 490 l 510 490 z "},"·":{"ha":250,"x_min":94,"x_max":156,"o":"m 94 344 l 94 485 l 156 485 l 156 344 l 94 344 z "},"Ł":{"ha":829,"x_min":31,"x_max":800,"o":"m 140 0 l 140 388 l 57 314 l 31 357 l 140 454 l 140 986 l 211 986 l 211 518 l 443 725 l 469 683 l 211 451 l 211 64 l 800 64 l 800 0 l 140 0 z "},"M":{"ha":1225,"x_min":131,"x_max":1094,"o":"m 1024 0 l 1024 853 l 635 188 l 590 188 l 201 853 l 201 0 l 131 0 l 131 986 l 201 986 l 613 281 l 1024 986 l 1094 986 l 1094 0 l 1024 0 z "},"N":{"ha":1078,"x_min":131,"x_max":947,"o":"m 201 853 l 201 0 l 131 0 l 131 986 l 185 986 l 876 118 l 876 985 l 947 985 l 947 0 l 882 0 l 201 853 z "},"A":{"ha":946,"x_min":25,"x_max":922,"o":"m 25 0 l 444 986 l 503 986 l 922 0 l 846 0 l 708 325 l 238 325 l 100 0 l 25 0 m 474 900 l 254 383 l 689 383 l 474 900 z "},"Ń":{"ha":1078,"x_min":131,"x_max":947,"o":"m 543 1133 l 494 1156 l 579 1274 l 660 1274 l 543 1133 m 201 853 l 201 0 l 131 0 l 131 986 l 185 986 l 876 118 l 876 985 l 947 985 l 947 0 l 882 0 l 201 853 z "},"Ň":{"ha":1078,"x_min":131,"x_max":947,"o":"m 426 1274 l 544 1186 l 663 1274 l 704 1250 l 569 1138 l 518 1138 l 385 1250 l 426 1274 m 201 853 l 201 0 l 131 0 l 131 986 l 185 986 l 876 118 l 876 985 l 947 985 l 947 0 l 882 0 l 201 853 z "},"Ņ":{"ha":1078,"x_min":131,"x_max":947,"o":"m 489 -179 q 514 -157 514 -179 l 514 -68 l 575 -68 l 575 -157 q 551 -206 575 -193 q 489 -219 528 -219 l 489 -179 m 201 853 l 201 0 l 131 0 l 131 986 l 185 986 l 876 118 l 876 985 l 947 985 l 947 0 l 882 0 l 201 853 z "},"Ṅ":{"ha":1078,"x_min":131,"x_max":947,"o":"m 511 1149 l 511 1274 l 575 1274 l 575 1149 l 511 1149 m 201 853 l 201 0 l 131 0 l 131 986 l 185 986 l 876 118 l 876 985 l 947 985 l 947 0 l 882 0 l 201 853 z "},"Ñ":{"ha":1078,"x_min":131,"x_max":947,"o":"m 201 853 l 201 0 l 131 0 l 131 986 l 185 986 l 876 118 l 876 985 l 947 985 l 947 0 l 882 0 l 201 853 m 629 1158 q 575 1167 599 1158 q 532 1185 551 1175 q 494 1205 513 1196 q 454 1214 475 1214 q 417 1204 431 1214 q 396 1183 403 1194 q 386 1160 389 1171 q 383 1147 383 1150 l 336 1147 q 340 1172 336 1153 q 358 1210 344 1190 q 394 1247 371 1231 q 454 1263 417 1263 q 503 1253 482 1263 q 544 1234 525 1244 q 584 1215 564 1224 q 631 1207 604 1207 q 674 1217 658 1207 q 698 1238 690 1226 q 708 1260 706 1250 q 710 1274 710 1271 l 757 1274 q 752 1248 757 1267 q 734 1210 747 1229 q 696 1174 721 1190 q 629 1158 671 1158 z "},"O":{"ha":1056,"x_min":67,"x_max":989,"o":"m 528 -7 q 340 36 425 -7 q 194 149 256 79 q 100 308 133 218 q 67 493 67 399 q 102 682 67 592 q 199 842 138 772 q 346 952 261 911 q 529 993 431 993 q 717 949 632 993 q 862 835 801 906 q 956 674 922 764 q 989 493 989 585 q 953 303 989 393 q 856 144 918 213 q 710 34 794 75 q 528 -7 626 -7 m 138 493 q 166 330 138 408 q 247 191 194 251 q 370 94 299 131 q 528 58 442 58 q 688 96 617 58 q 811 195 760 133 q 890 335 863 257 q 918 493 918 413 q 889 656 918 578 q 808 795 860 735 q 684 892 756 856 q 528 928 613 928 q 367 890 439 928 q 244 791 294 853 q 165 651 193 729 q 138 493 138 574 z "},"Œ":{"ha":1639,"x_min":67,"x_max":1572,"o":"m 1572 64 l 1572 0 l 919 0 l 919 278 q 857 166 896 218 q 768 76 818 114 q 658 15 718 38 q 531 -7 597 -7 q 342 35 428 -7 q 196 148 257 78 q 101 308 135 218 q 67 493 67 399 q 102 682 67 592 q 199 842 138 772 q 346 952 261 911 q 529 993 431 993 q 660 970 599 993 q 771 908 721 947 q 858 817 821 869 q 919 707 896 765 l 919 986 l 1560 986 l 1560 922 l 990 922 l 990 536 l 1485 536 l 1485 471 l 990 471 l 990 64 l 1572 64 m 528 58 q 688 96 617 58 q 811 195 760 133 q 890 335 863 257 q 918 494 918 413 q 889 657 918 579 q 808 795 860 735 q 684 892 756 856 q 528 928 613 928 q 367 890 439 928 q 244 791 294 853 q 165 651 193 729 q 138 493 138 574 q 166 330 138 408 q 247 191 194 251 q 370 94 299 131 q 528 58 442 58 z "},"Ó":{"ha":1056,"x_min":67,"x_max":989,"o":"m 528 1133 l 479 1156 l 564 1274 l 644 1274 l 528 1133 m 528 -7 q 340 36 425 -7 q 194 149 256 79 q 100 308 133 218 q 67 493 67 399 q 102 682 67 592 q 199 842 138 772 q 346 952 261 911 q 529 993 431 993 q 717 949 632 993 q 862 835 801 906 q 956 674 922 764 q 989 493 989 585 q 953 303 989 393 q 856 144 918 213 q 710 34 794 75 q 528 -7 626 -7 m 138 493 q 166 330 138 408 q 247 191 194 251 q 370 94 299 131 q 528 58 442 58 q 688 96 617 58 q 811 195 760 133 q 890 335 863 257 q 918 493 918 413 q 889 656 918 578 q 808 795 860 735 q 684 892 756 856 q 528 928 613 928 q 367 890 439 928 q 244 791 294 853 q 165 651 193 729 q 138 493 138 574 z "},"Ŏ":{"ha":1056,"x_min":67,"x_max":989,"o":"m 528 -7 q 340 36 425 -7 q 194 149 256 79 q 100 308 133 218 q 67 493 67 399 q 102 682 67 592 q 199 842 138 772 q 346 952 261 911 q 529 993 431 993 q 717 949 632 993 q 862 835 801 906 q 956 674 922 764 q 989 493 989 585 q 953 303 989 393 q 856 144 918 213 q 710 34 794 75 q 528 -7 626 -7 m 138 493 q 166 330 138 408 q 247 191 194 251 q 370 94 299 131 q 528 58 442 58 q 688 96 617 58 q 811 195 760 133 q 890 335 863 257 q 918 493 918 413 q 889 656 918 578 q 808 795 860 735 q 684 892 756 856 q 528 928 613 928 q 367 890 439 928 q 244 791 294 853 q 165 651 193 729 q 138 493 138 574 m 529 1185 q 580 1210 557 1185 q 607 1274 603 1236 l 653 1274 q 643 1224 653 1247 q 616 1183 633 1200 q 576 1156 599 1165 q 529 1146 554 1146 q 481 1156 504 1146 q 442 1183 458 1165 q 415 1224 425 1200 q 406 1274 406 1247 l 451 1274 q 475 1212 451 1239 q 529 1185 499 1185 z "},"Ô":{"ha":1056,"x_min":67,"x_max":989,"o":"m 369 1161 l 503 1274 l 554 1274 l 689 1161 l 647 1138 l 529 1225 l 411 1138 l 369 1161 m 528 -7 q 340 36 425 -7 q 194 149 256 79 q 100 308 133 218 q 67 493 67 399 q 102 682 67 592 q 199 842 138 772 q 346 952 261 911 q 529 993 431 993 q 717 949 632 993 q 862 835 801 906 q 956 674 922 764 q 989 493 989 585 q 953 303 989 393 q 856 144 918 213 q 710 34 794 75 q 528 -7 626 -7 m 138 493 q 166 330 138 408 q 247 191 194 251 q 370 94 299 131 q 528 58 442 58 q 688 96 617 58 q 811 195 760 133 q 890 335 863 257 q 918 493 918 413 q 889 656 918 578 q 808 795 860 735 q 684 892 756 856 q 528 928 613 928 q 367 890 439 928 q 244 791 294 853 q 165 651 193 729 q 138 493 138 574 z "},"Ö":{"ha":1056,"x_min":67,"x_max":989,"o":"m 404 1150 l 404 1272 l 465 1272 l 465 1150 l 404 1150 m 593 1150 l 593 1272 l 654 1272 l 654 1150 l 593 1150 m 528 -7 q 340 36 425 -7 q 194 149 256 79 q 100 308 133 218 q 67 493 67 399 q 102 682 67 592 q 199 842 138 772 q 346 952 261 911 q 529 993 431 993 q 717 949 632 993 q 862 835 801 906 q 956 674 922 764 q 989 493 989 585 q 953 303 989 393 q 856 144 918 213 q 710 34 794 75 q 528 -7 626 -7 m 138 493 q 166 330 138 408 q 247 191 194 251 q 370 94 299 131 q 528 58 442 58 q 688 96 617 58 q 811 195 760 133 q 890 335 863 257 q 918 493 918 413 q 889 656 918 578 q 808 795 860 735 q 684 892 756 856 q 528 928 613 928 q 367 890 439 928 q 244 791 294 853 q 165 651 193 729 q 138 493 138 574 z "},"Ò":{"ha":1056,"x_min":67,"x_max":989,"o":"m 528 -7 q 340 36 425 -7 q 194 149 256 79 q 100 308 133 218 q 67 493 67 399 q 102 682 67 592 q 199 842 138 772 q 346 952 261 911 q 529 993 431 993 q 717 949 632 993 q 862 835 801 906 q 956 674 922 764 q 989 493 989 585 q 953 303 989 393 q 856 144 918 213 q 710 34 794 75 q 528 -7 626 -7 m 138 493 q 166 330 138 408 q 247 191 194 251 q 370 94 299 131 q 528 58 442 58 q 688 96 617 58 q 811 195 760 133 q 890 335 863 257 q 918 493 918 413 q 889 656 918 578 q 808 795 860 735 q 684 892 756 856 q 528 928 613 928 q 367 890 439 928 q 244 791 294 853 q 165 651 193 729 q 138 493 138 574 m 413 1275 l 492 1275 l 578 1157 l 531 1135 l 413 1275 z "},"Ő":{"ha":1056,"x_min":67,"x_max":989,"o":"m 442 1135 l 401 1157 l 483 1275 l 557 1275 l 442 1135 m 603 1135 l 561 1157 l 644 1275 l 718 1275 l 603 1135 m 528 -7 q 340 36 425 -7 q 194 149 256 79 q 100 308 133 218 q 67 493 67 399 q 102 682 67 592 q 199 842 138 772 q 346 952 261 911 q 529 993 431 993 q 717 949 632 993 q 862 835 801 906 q 956 674 922 764 q 989 493 989 585 q 953 303 989 393 q 856 144 918 213 q 710 34 794 75 q 528 -7 626 -7 m 138 493 q 166 330 138 408 q 247 191 194 251 q 370 94 299 131 q 528 58 442 58 q 688 96 617 58 q 811 195 760 133 q 890 335 863 257 q 918 493 918 413 q 889 656 918 578 q 808 795 860 735 q 684 892 756 856 q 528 928 613 928 q 367 890 439 928 q 244 791 294 853 q 165 651 193 729 q 138 493 138 574 z "},"˝":{"ha":439,"x_min":64,"x_max":381,"o":"m 104 874 l 64 896 l 146 1014 l 219 1014 l 104 874 m 265 874 l 224 896 l 307 1014 l 381 1014 l 265 874 z "},"Ō":{"ha":1056,"x_min":67,"x_max":989,"o":"m 332 1193 l 332 1244 l 728 1244 l 728 1193 l 332 1193 m 528 -7 q 340 36 425 -7 q 194 149 256 79 q 100 308 133 218 q 67 493 67 399 q 102 682 67 592 q 199 842 138 772 q 346 952 261 911 q 529 993 431 993 q 717 949 632 993 q 862 835 801 906 q 956 674 922 764 q 989 493 989 585 q 953 303 989 393 q 856 144 918 213 q 710 34 794 75 q 528 -7 626 -7 m 138 493 q 166 330 138 408 q 247 191 194 251 q 370 94 299 131 q 528 58 442 58 q 688 96 617 58 q 811 195 760 133 q 890 335 863 257 q 918 493 918 413 q 889 656 918 578 q 808 795 860 735 q 684 892 756 856 q 528 928 613 928 q 367 890 439 928 q 244 791 294 853 q 165 651 193 729 q 138 493 138 574 z "},"Ǫ":{"ha":1056,"x_min":67,"x_max":989,"o":"m 486 -239 q 417 -204 442 -229 q 393 -144 393 -179 q 417 -76 393 -110 q 493 -6 440 -43 q 319 47 397 3 q 184 160 240 92 q 97 316 128 229 q 67 493 67 403 q 102 682 67 592 q 199 842 138 772 q 346 952 261 911 q 529 993 431 993 q 717 949 632 993 q 862 835 801 906 q 956 674 922 764 q 989 493 989 585 q 956 309 989 397 q 864 152 922 221 q 725 41 806 83 q 551 -6 644 -1 q 465 -74 489 -46 q 440 -135 440 -103 q 508 -197 440 -187 l 486 -239 m 138 493 q 166 330 138 408 q 247 191 194 251 q 370 94 299 131 q 528 58 442 58 q 688 96 617 58 q 811 195 760 133 q 890 335 863 257 q 918 493 918 413 q 889 656 918 578 q 808 795 860 735 q 684 892 756 856 q 528 928 613 928 q 367 890 439 928 q 244 791 294 853 q 165 651 193 729 q 138 493 138 574 z "},"Ø":{"ha":1056,"x_min":67,"x_max":989,"o":"m 892 986 l 821 878 q 944 702 900 804 q 989 493 989 600 q 953 303 989 393 q 856 144 918 213 q 710 34 794 75 q 528 -7 626 -7 q 399 13 460 -6 q 288 67 339 32 l 244 0 l 165 0 l 235 107 q 111 281 156 179 q 67 493 67 382 q 102 682 67 592 q 199 842 138 772 q 346 952 261 911 q 529 993 431 993 q 657 974 597 993 q 767 919 717 954 l 811 986 l 892 986 m 138 493 q 173 311 138 397 q 272 163 208 225 l 731 864 q 635 911 686 894 q 528 928 585 928 q 367 890 439 928 q 244 791 294 853 q 165 651 193 729 q 138 493 138 574 m 918 493 q 882 673 918 588 q 783 821 846 758 l 324 121 q 419 75 368 92 q 528 58 469 58 q 688 96 617 58 q 811 195 760 133 q 890 335 863 257 q 918 493 918 413 z "},"/":{"ha":807,"x_min":42,"x_max":768,"o":"m 768 986 l 121 0 l 42 0 l 688 986 l 768 986 z "},"Ǿ":{"ha":1056,"x_min":67,"x_max":989,"o":"m 892 986 l 821 878 q 944 702 900 804 q 989 493 989 600 q 953 303 989 393 q 856 144 918 213 q 710 34 794 75 q 528 -7 626 -7 q 399 13 460 -6 q 288 67 339 32 l 244 0 l 165 0 l 235 107 q 111 281 156 179 q 67 493 67 382 q 102 682 67 592 q 199 842 138 772 q 346 952 261 911 q 529 993 431 993 q 657 974 597 993 q 767 919 717 954 l 811 986 l 892 986 m 138 493 q 173 311 138 397 q 272 163 208 225 l 731 864 q 635 911 686 894 q 528 928 585 928 q 367 890 439 928 q 244 791 294 853 q 165 651 193 729 q 138 493 138 574 m 918 493 q 882 673 918 588 q 783 821 846 758 l 324 121 q 419 75 368 92 q 528 58 469 58 q 688 96 617 58 q 811 195 760 133 q 890 335 863 257 q 918 493 918 413 m 528 1133 l 479 1156 l 564 1274 l 644 1274 l 528 1133 z "},"Õ":{"ha":1056,"x_min":67,"x_max":989,"o":"m 528 -7 q 340 36 425 -7 q 194 149 256 79 q 100 308 133 218 q 67 493 67 399 q 102 682 67 592 q 199 842 138 772 q 346 952 261 911 q 529 993 431 993 q 717 949 632 993 q 862 835 801 906 q 956 674 922 764 q 989 493 989 585 q 953 303 989 393 q 856 144 918 213 q 710 34 794 75 q 528 -7 626 -7 m 138 493 q 166 330 138 408 q 247 191 194 251 q 370 94 299 131 q 528 58 442 58 q 688 96 617 58 q 811 195 760 133 q 890 335 863 257 q 918 493 918 413 q 889 656 918 578 q 808 795 860 735 q 684 892 756 856 q 528 928 613 928 q 367 890 439 928 q 244 791 294 853 q 165 651 193 729 q 138 493 138 574 m 614 1158 q 560 1167 583 1158 q 517 1185 536 1175 q 478 1205 497 1196 q 439 1214 460 1214 q 401 1204 415 1214 q 381 1183 388 1194 q 371 1160 374 1171 q 368 1147 368 1150 l 321 1147 q 325 1172 321 1153 q 342 1210 329 1190 q 378 1247 356 1231 q 439 1263 401 1263 q 488 1253 467 1263 q 529 1234 510 1244 q 569 1215 549 1224 q 615 1207 589 1207 q 659 1217 643 1207 q 683 1238 675 1226 q 692 1260 690 1250 q 694 1274 694 1271 l 742 1274 q 737 1248 742 1267 q 719 1210 732 1229 q 681 1174 706 1190 q 614 1158 656 1158 z "},"P":{"ha":864,"x_min":131,"x_max":824,"o":"m 131 0 l 131 986 l 536 986 q 651 960 599 986 q 742 890 704 933 q 802 791 781 846 q 824 681 824 736 q 803 565 824 621 q 747 467 783 510 q 659 398 710 424 q 546 372 608 372 l 201 372 l 201 0 l 131 0 m 201 438 l 542 438 q 629 458 590 438 q 695 512 668 478 q 737 590 722 546 q 751 681 751 633 q 734 773 751 729 q 687 850 717 817 q 617 903 657 883 q 533 922 578 922 l 201 922 l 201 438 z "},"Q":{"ha":1056,"x_min":67,"x_max":989,"o":"m 806 93 q 677 19 747 46 q 528 -7 607 -7 q 340 36 425 -7 q 194 149 256 79 q 100 308 133 218 q 67 493 67 399 q 102 682 67 592 q 199 842 138 772 q 346 952 261 911 q 529 993 431 993 q 717 949 632 993 q 862 835 801 906 q 956 674 922 764 q 989 493 989 585 q 951 296 989 389 q 846 132 913 203 l 956 0 l 883 0 l 806 93 m 528 58 q 656 82 597 58 q 763 146 714 106 l 646 286 l 719 286 l 803 185 q 888 328 858 247 q 918 493 918 408 q 889 656 918 578 q 808 795 860 735 q 684 892 756 856 q 528 928 613 928 q 367 890 439 928 q 244 791 294 853 q 165 651 193 729 q 138 493 138 574 q 166 330 138 408 q 247 191 194 251 q 370 94 299 131 q 528 58 442 58 z "},"R":{"ha":911,"x_min":131,"x_max":842,"o":"m 131 0 l 131 986 l 542 986 q 657 960 604 986 q 747 890 710 933 q 806 791 785 846 q 828 681 828 736 q 811 576 828 626 q 764 485 794 525 q 690 418 733 444 q 596 383 647 392 l 842 0 l 760 0 l 521 372 l 201 372 l 201 0 l 131 0 m 201 438 l 547 438 q 633 458 594 438 q 700 513 672 479 q 742 591 728 547 q 757 681 757 635 q 740 772 757 728 q 692 849 722 815 q 623 902 663 882 q 538 922 583 922 l 201 922 l 201 438 z "},"Ŕ":{"ha":911,"x_min":131,"x_max":842,"o":"m 442 1138 l 393 1160 l 478 1278 l 558 1278 l 442 1138 m 131 0 l 131 986 l 542 986 q 657 960 604 986 q 747 890 710 933 q 806 791 785 846 q 828 681 828 736 q 811 576 828 626 q 764 485 794 525 q 690 418 733 444 q 596 383 647 392 l 842 0 l 760 0 l 521 372 l 201 372 l 201 0 l 131 0 m 201 438 l 547 438 q 633 458 594 438 q 700 513 672 479 q 742 591 728 547 q 757 681 757 635 q 740 772 757 728 q 692 849 722 815 q 623 902 663 882 q 538 922 583 922 l 201 922 l 201 438 z "},"Ř":{"ha":911,"x_min":131,"x_max":842,"o":"m 324 1278 l 442 1190 l 560 1278 l 601 1254 l 467 1142 l 415 1142 l 282 1254 l 324 1278 m 131 0 l 131 986 l 542 986 q 657 960 604 986 q 747 890 710 933 q 806 791 785 846 q 828 681 828 736 q 811 576 828 626 q 764 485 794 525 q 690 418 733 444 q 596 383 647 392 l 842 0 l 760 0 l 521 372 l 201 372 l 201 0 l 131 0 m 201 438 l 547 438 q 633 458 594 438 q 700 513 672 479 q 742 591 728 547 q 757 681 757 635 q 740 772 757 728 q 692 849 722 815 q 623 902 663 882 q 538 922 583 922 l 201 922 l 201 438 z "},"Ŗ":{"ha":911,"x_min":131,"x_max":842,"o":"m 394 -179 q 419 -157 419 -179 l 419 -68 l 481 -68 l 481 -157 q 457 -206 481 -193 q 394 -219 433 -219 l 394 -179 m 131 0 l 131 986 l 542 986 q 657 960 604 986 q 747 890 710 933 q 806 791 785 846 q 828 681 828 736 q 811 576 828 626 q 764 485 794 525 q 690 418 733 444 q 596 383 647 392 l 842 0 l 760 0 l 521 372 l 201 372 l 201 0 l 131 0 m 201 438 l 547 438 q 633 458 594 438 q 700 513 672 479 q 742 591 728 547 q 757 681 757 635 q 740 772 757 728 q 692 849 722 815 q 623 902 663 882 q 538 922 583 922 l 201 922 l 201 438 z "},"S":{"ha":849,"x_min":53,"x_max":796,"o":"m 707 822 q 436 929 611 929 q 226 874 292 929 q 160 726 160 819 q 176 647 160 679 q 228 594 193 615 q 319 556 264 572 q 449 525 374 540 q 593 488 529 508 q 702 438 657 468 q 772 363 747 407 q 796 253 796 318 q 770 139 796 188 q 698 58 744 90 q 587 8 651 25 q 443 -8 522 -8 q 53 139 213 -8 l 90 196 q 243 92 153 131 q 446 54 333 54 q 648 101 575 54 q 721 244 721 149 q 702 327 721 293 q 644 386 683 361 q 548 429 606 411 q 413 464 490 447 q 273 499 333 481 q 171 547 213 518 q 108 615 129 575 q 88 717 88 656 q 113 835 88 783 q 185 922 139 886 q 294 975 231 957 q 436 993 358 993 q 607 965 532 993 q 743 878 682 936 l 707 822 z "},"Ś":{"ha":849,"x_min":53,"x_max":796,"o":"m 436 1160 l 388 1182 l 472 1300 l 553 1300 l 436 1160 m 707 822 q 436 929 611 929 q 226 874 292 929 q 160 726 160 819 q 176 647 160 679 q 228 594 193 615 q 319 556 264 572 q 449 525 374 540 q 593 488 529 508 q 702 438 657 468 q 772 363 747 407 q 796 253 796 318 q 770 139 796 188 q 698 58 744 90 q 587 8 651 25 q 443 -8 522 -8 q 53 139 213 -8 l 90 196 q 243 92 153 131 q 446 54 333 54 q 648 101 575 54 q 721 244 721 149 q 702 327 721 293 q 644 386 683 361 q 548 429 606 411 q 413 464 490 447 q 273 499 333 481 q 171 547 213 518 q 108 615 129 575 q 88 717 88 656 q 113 835 88 783 q 185 922 139 886 q 294 975 231 957 q 436 993 358 993 q 607 965 532 993 q 743 878 682 936 l 707 822 z "},"Š":{"ha":849,"x_min":53,"x_max":796,"o":"m 319 1300 l 438 1213 l 556 1300 l 597 1276 l 463 1164 l 411 1164 l 278 1276 l 319 1300 m 707 822 q 436 929 611 929 q 226 874 292 929 q 160 726 160 819 q 176 647 160 679 q 228 594 193 615 q 319 556 264 572 q 449 525 374 540 q 593 488 529 508 q 702 438 657 468 q 772 363 747 407 q 796 253 796 318 q 770 139 796 188 q 698 58 744 90 q 587 8 651 25 q 443 -8 522 -8 q 53 139 213 -8 l 90 196 q 243 92 153 131 q 446 54 333 54 q 648 101 575 54 q 721 244 721 149 q 702 327 721 293 q 644 386 683 361 q 548 429 606 411 q 413 464 490 447 q 273 499 333 481 q 171 547 213 518 q 108 615 129 575 q 88 717 88 656 q 113 835 88 783 q 185 922 139 886 q 294 975 231 957 q 436 993 358 993 q 607 965 532 993 q 743 878 682 936 l 707 822 z "},"Ŝ":{"ha":849,"x_min":53,"x_max":796,"o":"m 278 1188 l 411 1300 l 463 1300 l 597 1188 l 556 1164 l 438 1251 l 319 1164 l 278 1188 m 707 822 q 436 929 611 929 q 226 874 292 929 q 160 726 160 819 q 176 647 160 679 q 228 594 193 615 q 319 556 264 572 q 449 525 374 540 q 593 488 529 508 q 702 438 657 468 q 772 363 747 407 q 796 253 796 318 q 770 139 796 188 q 698 58 744 90 q 587 8 651 25 q 443 -8 522 -8 q 53 139 213 -8 l 90 196 q 243 92 153 131 q 446 54 333 54 q 648 101 575 54 q 721 244 721 149 q 702 327 721 293 q 644 386 683 361 q 548 429 606 411 q 413 464 490 447 q 273 499 333 481 q 171 547 213 518 q 108 615 129 575 q 88 717 88 656 q 113 835 88 783 q 185 922 139 886 q 294 975 231 957 q 436 993 358 993 q 607 965 532 993 q 743 878 682 936 l 707 822 z "},"T":{"ha":851,"x_min":29,"x_max":822,"o":"m 822 922 l 461 922 l 461 0 l 390 0 l 390 922 l 29 922 l 29 986 l 822 986 l 822 922 z "},"Ŧ":{"ha":904,"x_min":56,"x_max":849,"o":"m 849 922 l 488 922 l 488 572 l 804 572 l 804 528 l 488 528 l 488 0 l 417 0 l 417 528 l 100 528 l 100 572 l 417 572 l 417 922 l 56 922 l 56 986 l 849 986 l 849 922 z "},"Ť":{"ha":851,"x_min":29,"x_max":822,"o":"m 310 1274 l 428 1186 l 546 1274 l 588 1250 l 453 1138 l 401 1138 l 268 1250 l 310 1274 m 822 922 l 461 922 l 461 0 l 390 0 l 390 922 l 29 922 l 29 986 l 822 986 l 822 922 z "},"Þ":{"ha":842,"x_min":131,"x_max":797,"o":"m 510 786 q 625 760 572 786 q 716 690 678 733 q 776 591 754 646 q 797 479 797 536 q 777 364 797 419 q 720 266 757 308 q 632 198 683 224 q 518 172 581 172 l 201 172 l 201 0 l 131 0 l 131 986 l 201 986 l 201 786 l 510 786 m 517 238 q 604 258 565 238 q 670 313 643 279 q 712 390 697 347 q 726 479 726 433 q 709 570 726 526 q 662 647 692 614 q 592 701 632 681 q 507 721 553 721 l 201 721 l 201 238 l 517 238 z "},"U":{"ha":1051,"x_min":115,"x_max":938,"o":"m 525 58 q 691 96 625 58 q 796 194 757 133 q 851 333 835 256 q 867 490 867 411 l 867 986 l 938 986 l 938 490 q 916 301 938 392 q 846 142 894 211 q 719 33 797 74 q 526 -7 640 -7 q 331 35 410 -7 q 203 148 251 78 q 135 307 156 218 q 115 490 115 396 l 115 986 l 186 986 l 186 490 q 202 331 186 408 q 257 192 218 253 q 361 95 296 132 q 525 58 426 58 z "},"Ú":{"ha":1051,"x_min":115,"x_max":938,"o":"m 525 1133 l 476 1156 l 561 1274 l 642 1274 l 525 1133 m 525 58 q 691 96 625 58 q 796 194 757 133 q 851 333 835 256 q 867 490 867 411 l 867 986 l 938 986 l 938 490 q 916 301 938 392 q 846 142 894 211 q 719 33 797 74 q 526 -7 640 -7 q 331 35 410 -7 q 203 148 251 78 q 135 307 156 218 q 115 490 115 396 l 115 986 l 186 986 l 186 490 q 202 331 186 408 q 257 192 218 253 q 361 95 296 132 q 525 58 426 58 z "},"Ŭ":{"ha":1051,"x_min":115,"x_max":938,"o":"m 525 58 q 691 96 625 58 q 796 194 757 133 q 851 333 835 256 q 867 490 867 411 l 867 986 l 938 986 l 938 490 q 916 301 938 392 q 846 142 894 211 q 719 33 797 74 q 526 -7 640 -7 q 331 35 410 -7 q 203 148 251 78 q 135 307 156 218 q 115 490 115 396 l 115 986 l 186 986 l 186 490 q 202 331 186 408 q 257 192 218 253 q 361 95 296 132 q 525 58 426 58 m 528 1185 q 578 1210 556 1185 q 606 1274 601 1236 l 651 1274 q 642 1224 651 1247 q 615 1183 632 1200 q 575 1156 597 1165 q 528 1146 553 1146 q 480 1156 503 1146 q 440 1183 457 1165 q 414 1224 424 1200 q 404 1274 404 1247 l 450 1274 q 474 1212 450 1239 q 528 1185 497 1185 z "},"Û":{"ha":1051,"x_min":115,"x_max":938,"o":"m 367 1161 l 500 1274 l 551 1274 l 686 1161 l 644 1138 l 526 1225 l 408 1138 l 367 1161 m 525 58 q 691 96 625 58 q 796 194 757 133 q 851 333 835 256 q 867 490 867 411 l 867 986 l 938 986 l 938 490 q 916 301 938 392 q 846 142 894 211 q 719 33 797 74 q 526 -7 640 -7 q 331 35 410 -7 q 203 148 251 78 q 135 307 156 218 q 115 490 115 396 l 115 986 l 186 986 l 186 490 q 202 331 186 408 q 257 192 218 253 q 361 95 296 132 q 525 58 426 58 z "},"Ü":{"ha":1051,"x_min":115,"x_max":938,"o":"m 401 1150 l 401 1272 l 463 1272 l 463 1150 l 401 1150 m 590 1150 l 590 1272 l 651 1272 l 651 1150 l 590 1150 m 525 58 q 691 96 625 58 q 796 194 757 133 q 851 333 835 256 q 867 490 867 411 l 867 986 l 938 986 l 938 490 q 916 301 938 392 q 846 142 894 211 q 719 33 797 74 q 526 -7 640 -7 q 331 35 410 -7 q 203 148 251 78 q 135 307 156 218 q 115 490 115 396 l 115 986 l 186 986 l 186 490 q 202 331 186 408 q 257 192 218 253 q 361 95 296 132 q 525 58 426 58 z "},"Ù":{"ha":1051,"x_min":115,"x_max":938,"o":"m 525 58 q 691 96 625 58 q 796 194 757 133 q 851 333 835 256 q 867 490 867 411 l 867 986 l 938 986 l 938 490 q 916 301 938 392 q 846 142 894 211 q 719 33 797 74 q 526 -7 640 -7 q 331 35 410 -7 q 203 148 251 78 q 135 307 156 218 q 115 490 115 396 l 115 986 l 186 986 l 186 490 q 202 331 186 408 q 257 192 218 253 q 361 95 296 132 q 525 58 426 58 m 410 1275 l 489 1275 l 575 1157 l 528 1135 l 410 1275 z "},"Ű":{"ha":1051,"x_min":115,"x_max":938,"o":"m 525 58 q 691 96 625 58 q 796 194 757 133 q 851 333 835 256 q 867 490 867 411 l 867 986 l 938 986 l 938 490 q 916 301 938 392 q 846 142 894 211 q 719 33 797 74 q 526 -7 640 -7 q 331 35 410 -7 q 203 148 251 78 q 135 307 156 218 q 115 490 115 396 l 115 986 l 186 986 l 186 490 q 202 331 186 408 q 257 192 218 253 q 361 95 296 132 q 525 58 426 58 m 438 1135 l 397 1157 l 479 1275 l 553 1275 l 438 1135 m 599 1135 l 557 1157 l 640 1275 l 714 1275 l 599 1135 z "},"Ū":{"ha":1051,"x_min":115,"x_max":938,"o":"m 525 58 q 691 96 625 58 q 796 194 757 133 q 851 333 835 256 q 867 490 867 411 l 867 986 l 938 986 l 938 490 q 916 301 938 392 q 846 142 894 211 q 719 33 797 74 q 526 -7 640 -7 q 331 35 410 -7 q 203 148 251 78 q 135 307 156 218 q 115 490 115 396 l 115 986 l 186 986 l 186 490 q 202 331 186 408 q 257 192 218 253 q 361 95 296 132 q 525 58 426 58 m 329 1193 l 329 1244 l 725 1244 l 725 1193 l 329 1193 z "},"Ų":{"ha":1051,"x_min":115,"x_max":938,"o":"m 525 58 q 691 96 625 58 q 796 194 757 133 q 851 333 835 256 q 867 490 867 411 l 867 986 l 938 986 l 938 490 q 917 306 938 394 q 850 150 896 218 q 730 40 804 82 q 549 -6 656 -1 q 463 -74 488 -46 q 439 -135 439 -103 q 507 -197 439 -187 l 485 -239 q 416 -204 440 -229 q 392 -144 392 -179 q 415 -76 392 -110 q 492 -6 439 -43 q 313 46 385 1 q 197 159 240 90 q 134 314 153 228 q 115 490 115 400 l 115 986 l 186 986 l 186 490 q 202 331 186 408 q 257 192 218 253 q 361 95 296 132 q 525 58 426 58 z "},"Ů":{"ha":1051,"x_min":115,"x_max":938,"o":"m 432 1188 q 459 1249 432 1225 q 526 1274 486 1274 q 594 1249 567 1274 q 621 1188 621 1225 q 594 1124 621 1149 q 526 1100 567 1100 q 459 1124 486 1100 q 432 1188 432 1149 m 526 1242 q 487 1227 503 1242 q 471 1188 471 1213 q 487 1148 471 1164 q 526 1132 503 1132 q 566 1148 549 1132 q 583 1188 583 1164 q 567 1227 583 1213 q 526 1242 550 1242 m 525 58 q 691 96 625 58 q 796 194 757 133 q 851 333 835 256 q 867 490 867 411 l 867 986 l 938 986 l 938 490 q 916 301 938 392 q 846 142 894 211 q 719 33 797 74 q 526 -7 640 -7 q 331 35 410 -7 q 203 148 251 78 q 135 307 156 218 q 115 490 115 396 l 115 986 l 186 986 l 186 490 q 202 331 186 408 q 257 192 218 253 q 361 95 296 132 q 525 58 426 58 z "},"Ũ":{"ha":1051,"x_min":115,"x_max":938,"o":"m 525 58 q 691 96 625 58 q 796 194 757 133 q 851 333 835 256 q 867 490 867 411 l 867 986 l 938 986 l 938 490 q 916 301 938 392 q 846 142 894 211 q 719 33 797 74 q 526 -7 640 -7 q 331 35 410 -7 q 203 148 251 78 q 135 307 156 218 q 115 490 115 396 l 115 986 l 186 986 l 186 490 q 202 331 186 408 q 257 192 218 253 q 361 95 296 132 q 525 58 426 58 m 611 1158 q 557 1167 581 1158 q 514 1185 533 1175 q 476 1205 494 1196 q 436 1214 457 1214 q 399 1204 413 1214 q 378 1183 385 1194 q 368 1160 371 1171 q 365 1147 365 1150 l 318 1147 q 322 1172 318 1153 q 340 1210 326 1190 q 376 1247 353 1231 q 436 1263 399 1263 q 485 1253 464 1263 q 526 1234 507 1244 q 566 1215 546 1224 q 613 1207 586 1207 q 656 1217 640 1207 q 680 1238 672 1226 q 690 1260 688 1250 q 692 1274 692 1271 l 739 1274 q 734 1248 739 1267 q 716 1210 729 1229 q 678 1174 703 1190 q 611 1158 653 1158 z "},"V":{"ha":942,"x_min":21,"x_max":921,"o":"m 94 986 l 471 89 l 846 986 l 921 986 l 503 0 l 439 0 l 21 986 l 94 986 z "},"W":{"ha":1450,"x_min":21,"x_max":1429,"o":"m 507 979 l 576 979 l 724 621 l 871 979 l 940 979 l 767 564 l 974 83 l 1351 986 l 1429 986 l 1007 0 l 942 0 l 725 507 l 507 0 l 442 0 l 21 986 l 97 986 l 476 83 l 681 564 l 507 979 z "},"Ẃ":{"ha":1450,"x_min":21,"x_max":1429,"o":"m 722 1133 l 674 1156 l 758 1274 l 839 1274 l 722 1133 m 507 979 l 576 979 l 724 621 l 871 979 l 940 979 l 767 564 l 974 83 l 1351 986 l 1429 986 l 1007 0 l 942 0 l 725 507 l 507 0 l 442 0 l 21 986 l 97 986 l 476 83 l 681 564 l 507 979 z "},"Ŵ":{"ha":1450,"x_min":21,"x_max":1429,"o":"m 564 1161 l 697 1274 l 749 1274 l 883 1161 l 842 1138 l 724 1225 l 606 1138 l 564 1161 m 507 979 l 576 979 l 724 621 l 871 979 l 940 979 l 767 564 l 974 83 l 1351 986 l 1429 986 l 1007 0 l 942 0 l 725 507 l 507 0 l 442 0 l 21 986 l 97 986 l 476 83 l 681 564 l 507 979 z "},"Ẅ":{"ha":1450,"x_min":21,"x_max":1429,"o":"m 599 1150 l 599 1272 l 660 1272 l 660 1150 l 599 1150 m 788 1150 l 788 1272 l 849 1272 l 849 1150 l 788 1150 m 507 979 l 576 979 l 724 621 l 871 979 l 940 979 l 767 564 l 974 83 l 1351 986 l 1429 986 l 1007 0 l 942 0 l 725 507 l 507 0 l 442 0 l 21 986 l 97 986 l 476 83 l 681 564 l 507 979 z "},"Ẁ":{"ha":1450,"x_min":21,"x_max":1429,"o":"m 507 979 l 576 979 l 724 621 l 871 979 l 940 979 l 767 564 l 974 83 l 1351 986 l 1429 986 l 1007 0 l 942 0 l 725 507 l 507 0 l 442 0 l 21 986 l 97 986 l 476 83 l 681 564 l 507 979 m 607 1275 l 686 1275 l 772 1157 l 725 1135 l 607 1275 z "},"X":{"ha":871,"x_min":10,"x_max":861,"o":"m 92 986 l 436 538 l 781 986 l 861 986 l 475 486 l 850 0 l 769 0 l 436 435 l 103 0 l 21 0 l 396 486 l 10 986 l 92 986 z "},"Y":{"ha":876,"x_min":15,"x_max":863,"o":"m 93 986 l 438 440 l 785 986 l 863 986 l 474 372 l 474 0 l 403 0 l 403 375 l 15 986 l 93 986 z "},"Ý":{"ha":876,"x_min":15,"x_max":863,"o":"m 93 986 l 438 440 l 785 986 l 863 986 l 474 372 l 474 0 l 403 0 l 403 375 l 15 986 l 93 986 m 436 1133 l 388 1156 l 472 1274 l 553 1274 l 436 1133 z "},"Ŷ":{"ha":876,"x_min":15,"x_max":863,"o":"m 93 986 l 438 440 l 785 986 l 863 986 l 474 372 l 474 0 l 403 0 l 403 375 l 15 986 l 93 986 m 278 1161 l 411 1274 l 463 1274 l 597 1161 l 556 1138 l 438 1225 l 319 1138 l 278 1161 z "},"Ÿ":{"ha":876,"x_min":15,"x_max":863,"o":"m 93 986 l 438 440 l 785 986 l 863 986 l 474 372 l 474 0 l 403 0 l 403 375 l 15 986 l 93 986 m 313 1150 l 313 1272 l 374 1272 l 374 1150 l 313 1150 m 501 1150 l 501 1272 l 563 1272 l 563 1150 l 501 1150 z "},"Ỳ":{"ha":876,"x_min":15,"x_max":863,"o":"m 93 986 l 438 440 l 785 986 l 863 986 l 474 372 l 474 0 l 403 0 l 403 375 l 15 986 l 93 986 m 321 1275 l 400 1275 l 486 1157 l 439 1135 l 321 1275 z "},"Ỹ":{"ha":876,"x_min":15,"x_max":863,"o":"m 93 986 l 438 440 l 785 986 l 863 986 l 474 372 l 474 0 l 403 0 l 403 375 l 15 986 l 93 986 m 522 1158 q 468 1167 492 1158 q 425 1185 444 1175 q 387 1205 406 1196 q 347 1214 368 1214 q 310 1204 324 1214 q 289 1183 296 1194 q 279 1160 282 1171 q 276 1147 276 1150 l 229 1147 q 233 1172 229 1153 q 251 1210 238 1190 q 287 1247 264 1231 q 347 1263 310 1263 q 397 1253 375 1263 q 438 1234 418 1244 q 477 1215 457 1224 q 524 1207 497 1207 q 567 1217 551 1207 q 591 1238 583 1226 q 601 1260 599 1250 q 603 1274 603 1271 l 650 1274 q 645 1248 650 1267 q 627 1210 640 1229 q 589 1174 614 1190 q 522 1158 564 1158 z "},"Z":{"ha":868,"x_min":40,"x_max":825,"o":"m 40 58 l 740 922 l 49 922 l 49 986 l 825 986 l 825 928 l 128 64 l 822 64 l 822 0 l 40 0 l 40 58 z "},"Ź":{"ha":868,"x_min":40,"x_max":825,"o":"m 456 1133 l 407 1156 l 492 1274 l 572 1274 l 456 1133 m 40 58 l 740 922 l 49 922 l 49 986 l 825 986 l 825 928 l 128 64 l 822 64 l 822 0 l 40 0 l 40 58 z "},"Ž":{"ha":868,"x_min":40,"x_max":825,"o":"m 339 1274 l 457 1186 l 575 1274 l 617 1250 l 482 1138 l 431 1138 l 297 1250 l 339 1274 m 40 58 l 740 922 l 49 922 l 49 986 l 825 986 l 825 928 l 128 64 l 822 64 l 822 0 l 40 0 l 40 58 z "},"Ż":{"ha":868,"x_min":40,"x_max":825,"o":"m 40 58 l 740 922 l 49 922 l 49 986 l 825 986 l 825 928 l 128 64 l 822 64 l 822 0 l 40 0 l 40 58 m 425 1149 l 425 1274 l 489 1274 l 489 1149 l 425 1149 z "},"a":{"ha":749,"x_min":47,"x_max":672,"o":"m 286 -14 q 192 3 236 -14 q 116 51 149 21 q 65 122 83 81 q 47 210 47 163 q 69 296 47 257 q 132 363 92 335 q 227 408 172 392 q 349 424 282 424 q 467 413 407 424 q 574 385 526 403 l 574 456 q 515 619 574 558 q 357 679 457 679 q 244 657 303 679 q 125 593 185 635 l 97 640 q 361 735 238 735 q 567 659 492 735 q 643 450 643 583 l 643 97 q 672 63 643 63 l 672 0 q 659 -1 665 -1 q 647 -1 653 -1 q 601 16 622 -1 q 581 61 581 33 l 581 121 q 453 21 531 56 q 286 -14 376 -14 m 300 42 q 449 72 381 42 q 550 153 517 101 q 574 208 574 181 l 574 336 q 357 375 468 375 q 182 331 249 375 q 115 214 115 286 q 129 146 115 178 q 168 91 143 114 q 227 55 193 68 q 300 42 261 42 z "},"á":{"ha":749,"x_min":47,"x_max":672,"o":"m 286 -14 q 192 3 236 -14 q 116 51 149 21 q 65 122 83 81 q 47 210 47 163 q 69 296 47 257 q 132 363 92 335 q 227 408 172 392 q 349 424 282 424 q 467 413 407 424 q 574 385 526 403 l 574 456 q 515 619 574 558 q 357 679 457 679 q 244 657 303 679 q 125 593 185 635 l 97 640 q 361 735 238 735 q 567 659 492 735 q 643 450 643 583 l 643 97 q 672 63 643 63 l 672 0 q 659 -1 665 -1 q 647 -1 653 -1 q 601 16 622 -1 q 581 61 581 33 l 581 121 q 453 21 531 56 q 286 -14 376 -14 m 300 42 q 449 72 381 42 q 550 153 517 101 q 574 208 574 181 l 574 336 q 357 375 468 375 q 182 331 249 375 q 115 214 115 286 q 129 146 115 178 q 168 91 143 114 q 227 55 193 68 q 300 42 261 42 m 361 874 l 313 896 l 397 1014 l 478 1014 l 361 874 z "},"ă":{"ha":749,"x_min":47,"x_max":672,"o":"m 286 -14 q 192 3 236 -14 q 116 51 149 21 q 65 122 83 81 q 47 210 47 163 q 69 296 47 257 q 132 363 92 335 q 227 408 172 392 q 349 424 282 424 q 467 413 407 424 q 574 385 526 403 l 574 456 q 515 619 574 558 q 357 679 457 679 q 244 657 303 679 q 125 593 185 635 l 97 640 q 361 735 238 735 q 567 659 492 735 q 643 450 643 583 l 643 97 q 672 63 643 63 l 672 0 q 659 -1 665 -1 q 647 -1 653 -1 q 601 16 622 -1 q 581 61 581 33 l 581 121 q 453 21 531 56 q 286 -14 376 -14 m 300 42 q 449 72 381 42 q 550 153 517 101 q 574 208 574 181 l 574 336 q 357 375 468 375 q 182 331 249 375 q 115 214 115 286 q 129 146 115 178 q 168 91 143 114 q 227 55 193 68 q 300 42 261 42 m 363 925 q 413 951 390 925 q 440 1014 436 976 l 486 1014 q 476 964 486 988 q 449 923 467 940 q 410 896 432 906 q 363 886 388 886 q 315 896 338 886 q 275 923 292 906 q 249 964 258 940 q 239 1014 239 988 l 285 1014 q 308 952 285 979 q 363 925 332 925 z "},"â":{"ha":749,"x_min":47,"x_max":672,"o":"m 286 -14 q 192 3 236 -14 q 116 51 149 21 q 65 122 83 81 q 47 210 47 163 q 69 296 47 257 q 132 363 92 335 q 227 408 172 392 q 349 424 282 424 q 467 413 407 424 q 574 385 526 403 l 574 456 q 515 619 574 558 q 357 679 457 679 q 244 657 303 679 q 125 593 185 635 l 97 640 q 361 735 238 735 q 567 659 492 735 q 643 450 643 583 l 643 97 q 672 63 643 63 l 672 0 q 659 -1 665 -1 q 647 -1 653 -1 q 601 16 622 -1 q 581 61 581 33 l 581 121 q 453 21 531 56 q 286 -14 376 -14 m 300 42 q 449 72 381 42 q 550 153 517 101 q 574 208 574 181 l 574 336 q 357 375 468 375 q 182 331 249 375 q 115 214 115 286 q 129 146 115 178 q 168 91 143 114 q 227 55 193 68 q 300 42 261 42 m 203 901 l 336 1014 l 388 1014 l 522 901 l 481 878 l 363 965 l 244 878 l 203 901 z "},"ä":{"ha":749,"x_min":47,"x_max":672,"o":"m 286 -14 q 192 3 236 -14 q 116 51 149 21 q 65 122 83 81 q 47 210 47 163 q 69 296 47 257 q 132 363 92 335 q 227 408 172 392 q 349 424 282 424 q 467 413 407 424 q 574 385 526 403 l 574 456 q 515 619 574 558 q 357 679 457 679 q 244 657 303 679 q 125 593 185 635 l 97 640 q 361 735 238 735 q 567 659 492 735 q 643 450 643 583 l 643 97 q 672 63 643 63 l 672 0 q 659 -1 665 -1 q 647 -1 653 -1 q 601 16 622 -1 q 581 61 581 33 l 581 121 q 453 21 531 56 q 286 -14 376 -14 m 300 42 q 449 72 381 42 q 550 153 517 101 q 574 208 574 181 l 574 336 q 357 375 468 375 q 182 331 249 375 q 115 214 115 286 q 129 146 115 178 q 168 91 143 114 q 227 55 193 68 q 300 42 261 42 m 236 889 l 236 1011 l 297 1011 l 297 889 l 236 889 m 425 889 l 425 1011 l 486 1011 l 486 889 l 425 889 z "},"æ":{"ha":1293,"x_min":49,"x_max":1249,"o":"m 286 -14 q 193 3 236 -14 q 117 51 150 21 q 67 122 85 81 q 49 210 49 163 q 71 296 49 257 q 133 363 93 335 q 228 408 172 392 q 350 424 283 424 q 449 416 399 424 q 540 396 499 408 q 568 513 544 457 q 498 635 553 590 q 357 679 443 679 q 245 657 304 679 q 125 593 186 635 l 99 640 q 363 735 239 735 q 518 694 454 735 q 611 581 582 654 q 730 692 657 650 q 892 735 803 735 q 1033 706 968 735 q 1147 625 1099 676 q 1222 506 1194 574 q 1249 361 1249 438 q 1249 347 1249 357 q 1247 333 1249 336 l 607 333 q 636 217 611 271 q 701 125 661 164 q 792 64 740 86 q 900 42 843 42 q 974 52 938 42 q 1042 81 1011 63 q 1098 124 1074 99 q 1136 181 1122 150 l 1197 164 q 1152 92 1182 125 q 1083 36 1122 60 q 996 -1 1043 13 q 899 -14 949 -14 q 728 31 804 -14 q 604 149 651 75 q 544 75 581 106 q 465 24 508 44 q 376 -5 422 4 q 286 -14 329 -14 m 300 42 q 449 72 382 42 q 551 153 517 101 q 575 201 571 179 q 551 272 560 233 q 540 347 542 311 q 357 375 453 375 q 258 363 303 375 q 182 331 214 351 q 133 280 150 310 q 115 214 115 250 q 130 146 115 178 q 169 91 144 114 q 228 55 194 68 q 300 42 261 42 m 1181 385 q 1153 503 1176 449 q 1091 596 1129 557 q 1002 656 1053 635 q 893 678 951 678 q 783 656 835 678 q 694 594 732 633 q 633 502 656 556 q 607 385 610 449 l 1181 385 z "},"ǽ":{"ha":1293,"x_min":49,"x_max":1249,"o":"m 610 874 l 561 896 l 646 1014 l 726 1014 l 610 874 m 286 -14 q 193 3 236 -14 q 117 51 150 21 q 67 122 85 81 q 49 210 49 163 q 71 296 49 257 q 133 363 93 335 q 228 408 172 392 q 350 424 283 424 q 449 416 399 424 q 540 396 499 408 q 568 513 544 457 q 498 635 553 590 q 357 679 443 679 q 245 657 304 679 q 125 593 186 635 l 99 640 q 363 735 239 735 q 518 694 454 735 q 611 581 582 654 q 730 692 657 650 q 892 735 803 735 q 1033 706 968 735 q 1147 625 1099 676 q 1222 506 1194 574 q 1249 361 1249 438 q 1249 347 1249 357 q 1247 333 1249 336 l 607 333 q 636 217 611 271 q 701 125 661 164 q 792 64 740 86 q 900 42 843 42 q 974 52 938 42 q 1042 81 1011 63 q 1098 124 1074 99 q 1136 181 1122 150 l 1197 164 q 1152 92 1182 125 q 1083 36 1122 60 q 996 -1 1043 13 q 899 -14 949 -14 q 728 31 804 -14 q 604 149 651 75 q 544 75 581 106 q 465 24 508 44 q 376 -5 422 4 q 286 -14 329 -14 m 300 42 q 449 72 382 42 q 551 153 517 101 q 575 201 571 179 q 551 272 560 233 q 540 347 542 311 q 357 375 453 375 q 258 363 303 375 q 182 331 214 351 q 133 280 150 310 q 115 214 115 250 q 130 146 115 178 q 169 91 144 114 q 228 55 194 68 q 300 42 261 42 m 1181 385 q 1153 503 1176 449 q 1091 596 1129 557 q 1002 656 1053 635 q 893 678 951 678 q 783 656 835 678 q 694 594 732 633 q 633 502 656 556 q 607 385 610 449 l 1181 385 z "},"à":{"ha":749,"x_min":47,"x_max":672,"o":"m 286 -14 q 192 3 236 -14 q 116 51 149 21 q 65 122 83 81 q 47 210 47 163 q 69 296 47 257 q 132 363 92 335 q 227 408 172 392 q 349 424 282 424 q 467 413 407 424 q 574 385 526 403 l 574 456 q 515 619 574 558 q 357 679 457 679 q 244 657 303 679 q 125 593 185 635 l 97 640 q 361 735 238 735 q 567 659 492 735 q 643 450 643 583 l 643 97 q 672 63 643 63 l 672 0 q 659 -1 665 -1 q 647 -1 653 -1 q 601 16 622 -1 q 581 61 581 33 l 581 121 q 453 21 531 56 q 286 -14 376 -14 m 300 42 q 449 72 381 42 q 550 153 517 101 q 574 208 574 181 l 574 336 q 357 375 468 375 q 182 331 249 375 q 115 214 115 286 q 129 146 115 178 q 168 91 143 114 q 227 55 193 68 q 300 42 261 42 m 244 1014 l 324 1014 l 410 896 l 363 874 l 244 1014 z "},"ā":{"ha":749,"x_min":47,"x_max":672,"o":"m 286 -14 q 192 3 236 -14 q 116 51 149 21 q 65 122 83 81 q 47 210 47 163 q 69 296 47 257 q 132 363 92 335 q 227 408 172 392 q 349 424 282 424 q 467 413 407 424 q 574 385 526 403 l 574 456 q 515 619 574 558 q 357 679 457 679 q 244 657 303 679 q 125 593 185 635 l 97 640 q 361 735 238 735 q 567 659 492 735 q 643 450 643 583 l 643 97 q 672 63 643 63 l 672 0 q 659 -1 665 -1 q 647 -1 653 -1 q 601 16 622 -1 q 581 61 581 33 l 581 121 q 453 21 531 56 q 286 -14 376 -14 m 300 42 q 449 72 381 42 q 550 153 517 101 q 574 208 574 181 l 574 336 q 357 375 468 375 q 182 331 249 375 q 115 214 115 286 q 129 146 115 178 q 168 91 143 114 q 227 55 193 68 q 300 42 261 42 m 164 933 l 164 985 l 560 985 l 560 933 l 164 933 z "},"&":{"ha":917,"x_min":69,"x_max":900,"o":"m 808 0 l 682 132 q 548 26 625 65 q 379 -14 471 -14 q 261 4 317 -14 q 163 56 206 22 q 94 138 119 90 q 69 247 69 186 q 87 339 69 297 q 134 417 104 381 q 203 484 164 453 q 288 546 243 515 q 222 622 249 588 q 177 683 194 656 q 152 737 160 711 q 144 788 144 763 q 163 869 144 831 q 215 936 182 907 q 291 982 247 965 q 386 999 335 999 q 474 984 433 999 q 545 944 515 969 q 592 885 575 919 q 608 810 608 850 q 590 731 608 768 q 541 663 572 694 q 469 600 510 631 q 382 540 428 569 l 679 229 q 728 349 711 285 q 744 483 744 413 l 804 483 q 783 324 804 400 q 721 186 761 249 l 900 0 l 808 0 m 386 43 q 530 78 465 43 q 642 174 594 114 l 328 504 q 253 448 288 476 q 193 388 219 419 q 152 322 167 357 q 138 244 138 286 q 160 157 138 194 q 217 94 182 119 q 297 56 253 68 q 386 43 342 43 m 210 789 q 215 753 210 771 q 234 710 219 735 q 274 656 249 686 q 342 582 300 625 q 424 640 388 613 q 488 693 461 667 q 528 747 514 719 q 543 807 543 775 q 499 903 543 865 q 386 942 454 942 q 317 929 349 942 q 260 896 285 917 q 223 847 236 875 q 210 789 210 819 z "},"ą":{"ha":749,"x_min":47,"x_max":672,"o":"m 604 -235 q 535 -200 560 -225 q 511 -140 511 -175 q 537 -70 511 -104 q 619 4 563 -36 q 592 26 603 11 q 581 61 581 40 l 581 121 q 453 21 531 56 q 286 -14 376 -14 q 192 3 236 -14 q 116 51 149 21 q 65 122 83 81 q 47 210 47 163 q 69 296 47 257 q 132 363 92 335 q 227 408 172 392 q 349 424 282 424 q 467 413 407 424 q 574 385 526 403 l 574 456 q 515 619 574 558 q 357 679 457 679 q 244 657 303 679 q 125 593 185 635 l 97 640 q 361 735 238 735 q 567 659 492 735 q 643 450 643 583 l 643 97 q 672 63 643 63 l 672 0 q 584 -69 610 -40 q 558 -131 558 -99 q 626 -193 558 -183 l 604 -235 m 300 42 q 449 72 381 42 q 550 153 517 101 q 574 208 574 181 l 574 336 q 357 375 468 375 q 182 331 249 375 q 115 214 115 286 q 129 146 115 178 q 168 91 143 114 q 227 55 193 68 q 300 42 261 42 z "},"ʼ":{"ha":506,"x_min":197,"x_max":363,"o":"m 244 874 l 197 896 l 251 971 l 251 1014 l 363 1014 l 244 874 z "},"å":{"ha":749,"x_min":47,"x_max":672,"o":"m 286 -14 q 192 3 236 -14 q 116 51 149 21 q 65 122 83 81 q 47 210 47 163 q 69 296 47 257 q 132 363 92 335 q 227 408 172 392 q 349 424 282 424 q 467 413 407 424 q 574 385 526 403 l 574 456 q 515 619 574 558 q 357 679 457 679 q 244 657 303 679 q 125 593 185 635 l 97 640 q 361 735 238 735 q 567 659 492 735 q 643 450 643 583 l 643 97 q 672 63 643 63 l 672 0 q 659 -1 665 -1 q 647 -1 653 -1 q 601 16 622 -1 q 581 61 581 33 l 581 121 q 453 21 531 56 q 286 -14 376 -14 m 300 42 q 449 72 381 42 q 550 153 517 101 q 574 208 574 181 l 574 336 q 357 375 468 375 q 182 331 249 375 q 115 214 115 286 q 129 146 115 178 q 168 91 143 114 q 227 55 193 68 q 300 42 261 42 m 267 928 q 294 990 267 965 q 361 1014 321 1014 q 428 990 401 1014 q 456 928 456 965 q 428 865 456 889 q 361 840 401 840 q 294 865 321 840 q 267 928 267 889 m 361 982 q 322 967 338 982 q 306 928 306 953 q 322 888 306 904 q 361 872 338 872 q 401 888 383 872 q 418 928 418 904 q 401 967 418 953 q 361 982 385 982 z "},"ǻ":{"ha":749,"x_min":47,"x_max":672,"o":"m 286 -14 q 192 3 236 -14 q 116 51 149 21 q 65 122 83 81 q 47 210 47 163 q 69 296 47 257 q 132 363 92 335 q 227 408 172 392 q 349 424 282 424 q 467 413 407 424 q 574 385 526 403 l 574 456 q 515 619 574 558 q 357 679 457 679 q 244 657 303 679 q 125 593 185 635 l 97 640 q 361 735 238 735 q 567 659 492 735 q 643 450 643 583 l 643 97 q 672 63 643 63 l 672 0 q 659 -1 665 -1 q 647 -1 653 -1 q 601 16 622 -1 q 581 61 581 33 l 581 121 q 453 21 531 56 q 286 -14 376 -14 m 300 42 q 449 72 381 42 q 550 153 517 101 q 574 208 574 181 l 574 336 q 357 375 468 375 q 182 331 249 375 q 115 214 115 286 q 129 146 115 178 q 168 91 143 114 q 227 55 193 68 q 300 42 261 42 m 361 1074 l 313 1096 l 397 1214 l 478 1214 l 361 1074 m 267 928 q 294 990 267 965 q 361 1014 321 1014 q 428 990 401 1014 q 456 928 456 965 q 428 865 456 889 q 361 840 401 840 q 294 865 321 840 q 267 928 267 889 m 361 982 q 322 967 338 982 q 306 928 306 953 q 322 888 306 904 q 361 872 338 872 q 401 888 383 872 q 418 928 418 904 q 401 967 418 953 q 361 982 385 982 z "},"^":{"ha":735,"x_min":64,"x_max":672,"o":"m 64 421 l 339 986 l 399 986 l 672 421 l 608 421 l 368 915 l 125 421 l 64 421 z "},"~":{"ha":685,"x_min":94,"x_max":592,"o":"m 94 340 q 102 366 94 344 q 126 411 110 388 q 168 453 142 435 q 232 472 194 472 q 289 459 263 472 q 342 431 315 446 q 394 402 368 415 q 449 389 419 389 q 493 399 475 389 q 522 423 511 410 q 539 448 533 436 q 544 463 544 460 l 592 463 q 585 441 592 460 q 561 399 578 422 q 517 358 544 376 q 447 340 489 340 q 385 353 414 340 q 329 381 356 365 q 278 410 303 397 q 231 422 254 422 q 190 410 207 422 q 163 382 174 397 q 147 354 153 367 q 142 340 142 342 l 94 340 l 94 340 z "},"*":{"ha":440,"x_min":90,"x_max":349,"o":"m 126 768 l 185 851 l 90 882 l 103 922 l 199 889 l 194 989 l 246 989 l 242 889 l 336 922 l 349 882 l 254 851 l 314 768 l 278 743 l 219 828 l 161 743 l 126 768 z "},"@":{"ha":1143,"x_min":72,"x_max":1083,"o":"m 582 838 q 776 798 685 838 q 935 688 867 758 q 1044 521 1004 618 q 1083 308 1083 424 q 1081 256 1083 289 q 1072 187 1079 224 q 1052 113 1065 150 q 1017 45 1039 75 q 962 -3 994 15 q 883 -22 929 -22 q 829 -12 850 -22 q 797 17 808 -1 q 780 59 785 35 q 772 110 775 83 q 673 40 735 69 q 539 11 611 11 q 388 63 443 11 q 332 193 332 114 q 355 280 332 244 q 414 336 378 315 q 496 366 450 357 q 588 375 542 375 q 697 363 649 375 q 768 343 744 351 q 760 440 768 396 q 732 515 751 483 q 678 563 713 546 q 592 581 643 581 q 488 563 538 581 q 394 514 438 546 l 374 557 q 478 609 422 589 q 597 629 533 629 q 715 604 671 629 q 781 538 758 579 q 810 447 804 497 q 817 346 817 396 l 817 154 q 829 56 817 92 q 889 21 842 21 q 964 51 935 21 q 1010 126 993 82 q 1035 219 1028 169 q 1042 310 1042 269 q 1006 501 1042 411 q 908 656 971 590 q 762 759 846 721 q 581 797 678 797 q 402 762 486 797 q 253 663 318 726 q 151 511 189 599 q 114 319 114 424 q 149 131 114 219 q 247 -22 185 43 q 394 -125 310 -87 q 576 -162 478 -162 q 686 -149 635 -162 q 789 -110 738 -136 l 804 -147 q 692 -189 750 -175 q 575 -203 633 -203 q 381 -163 472 -203 q 220 -53 289 -124 q 112 112 151 17 q 72 319 72 207 q 115 531 72 436 q 228 694 157 626 q 390 800 299 763 q 582 838 482 838 m 672 89 q 722 121 703 103 q 751 159 740 139 q 764 199 761 179 q 767 240 767 219 l 767 299 q 702 316 750 301 q 582 331 654 331 q 508 324 544 331 q 444 301 472 317 q 399 260 417 286 q 382 196 382 235 q 394 138 382 164 q 428 95 407 113 q 478 68 450 78 q 540 58 507 58 q 611 67 576 58 q 672 89 646 76 z "},"ã":{"ha":749,"x_min":47,"x_max":672,"o":"m 286 -14 q 192 3 236 -14 q 116 51 149 21 q 65 122 83 81 q 47 210 47 163 q 69 296 47 257 q 132 363 92 335 q 227 408 172 392 q 349 424 282 424 q 467 413 407 424 q 574 385 526 403 l 574 456 q 515 619 574 558 q 357 679 457 679 q 244 657 303 679 q 125 593 185 635 l 97 640 q 361 735 238 735 q 567 659 492 735 q 643 450 643 583 l 643 97 q 672 63 643 63 l 672 0 q 659 -1 665 -1 q 647 -1 653 -1 q 601 16 622 -1 q 581 61 581 33 l 581 121 q 453 21 531 56 q 286 -14 376 -14 m 300 42 q 449 72 381 42 q 550 153 517 101 q 574 208 574 181 l 574 336 q 357 375 468 375 q 182 331 249 375 q 115 214 115 286 q 129 146 115 178 q 168 91 143 114 q 227 55 193 68 q 300 42 261 42 m 447 899 q 393 907 417 899 q 350 926 369 915 q 312 945 331 936 q 272 954 293 954 q 235 944 249 954 q 214 923 221 935 q 204 901 207 911 q 201 888 201 890 l 154 888 q 158 912 154 893 q 176 951 163 931 q 212 987 189 971 q 272 1003 235 1003 q 322 994 300 1003 q 363 974 343 985 q 402 956 382 964 q 449 947 422 947 q 492 957 476 947 q 516 978 508 967 q 526 1001 524 990 q 528 1014 528 1011 l 575 1014 q 570 988 575 1007 q 552 950 565 969 q 514 915 539 931 q 447 899 489 899 z "},"b":{"ha":849,"x_min":107,"x_max":789,"o":"m 444 -14 q 285 31 358 -14 q 169 144 211 75 l 169 0 l 107 0 l 107 1014 l 176 1014 l 176 565 q 297 688 228 640 q 458 735 367 735 q 597 702 535 735 q 701 616 658 669 q 766 495 743 563 q 789 358 789 428 q 763 216 789 283 q 690 98 736 149 q 580 17 643 47 q 444 -14 517 -14 m 431 49 q 546 75 493 49 q 637 145 599 101 q 697 244 675 189 q 718 358 718 300 q 698 476 718 419 q 642 576 678 532 q 555 646 606 619 q 443 672 504 672 q 356 656 397 672 q 281 614 315 640 q 221 553 247 588 q 176 481 194 518 l 176 242 q 206 166 181 201 q 269 105 232 131 q 350 64 307 79 q 431 49 393 49 z "},"\\":{"ha":764,"x_min":39,"x_max":724,"o":"m 119 986 l 724 0 l 644 0 l 39 986 l 119 986 z "},"|":{"ha":299,"x_min":118,"x_max":181,"o":"m 118 -181 l 118 1076 l 181 1076 l 181 -181 l 118 -181 z "},"{":{"ha":331,"x_min":79,"x_max":269,"o":"m 193 968 l 193 583 q 187 544 193 569 q 158 500 181 519 q 187 455 181 481 q 193 417 193 429 l 193 17 l 269 17 l 269 -43 l 160 -43 q 138 -34 149 -43 q 128 -1 128 -25 l 128 401 q 116 449 128 426 q 79 474 104 471 l 79 529 q 103 538 93 529 q 118 557 113 546 q 126 580 124 568 q 128 599 128 592 l 128 986 q 140 1021 128 1014 q 160 1028 153 1028 l 269 1028 l 269 968 l 193 968 z "},"}":{"ha":331,"x_min":63,"x_max":253,"o":"m 63 968 l 63 1028 l 172 1028 q 191 1021 178 1028 q 204 986 204 1014 l 204 599 q 206 580 204 592 q 214 557 208 568 q 228 538 219 546 q 253 529 238 529 l 253 474 q 215 449 226 471 q 204 401 204 426 l 204 -1 q 194 -34 204 -25 q 172 -43 183 -43 l 63 -43 l 63 17 l 139 17 l 139 417 q 145 455 139 429 q 174 500 151 481 q 145 544 151 519 q 139 583 139 569 l 139 968 l 63 968 z "},"[":{"ha":325,"x_min":121,"x_max":261,"o":"m 121 -56 l 121 1028 l 261 1028 l 261 968 l 188 968 l 188 4 l 261 4 l 261 -56 l 121 -56 z "},"]":{"ha":325,"x_min":64,"x_max":204,"o":"m 64 -56 l 64 4 l 138 4 l 138 968 l 64 968 l 64 1028 l 204 1028 l 204 -56 l 64 -56 z "},"¦":{"ha":304,"x_min":121,"x_max":183,"o":"m 183 389 l 183 -181 l 121 -181 l 121 389 l 183 389 m 183 1076 l 183 507 l 121 507 l 121 1076 l 183 1076 z "},"•":{"ha":490,"x_min":126,"x_max":364,"o":"m 364 479 q 329 394 364 429 q 246 360 294 360 q 199 369 221 360 q 162 394 178 378 q 136 433 146 411 q 126 479 126 454 q 136 524 126 503 q 162 562 146 546 q 199 588 178 578 q 246 597 221 597 q 292 588 271 597 q 330 562 314 578 q 355 524 346 546 q 364 479 364 503 z "},"c":{"ha":758,"x_min":58,"x_max":708,"o":"m 58 364 q 85 508 58 440 q 159 626 111 576 q 272 706 207 676 q 415 735 338 735 q 588 690 514 735 q 701 567 663 646 l 633 544 q 542 638 601 604 q 411 672 482 672 q 300 649 351 672 q 210 583 249 625 q 151 485 172 542 q 129 364 129 429 q 152 241 129 299 q 213 141 175 183 q 303 74 251 99 q 413 49 354 49 q 487 60 450 49 q 555 89 524 71 q 609 131 586 107 q 640 182 632 156 l 708 163 q 666 92 694 125 q 599 36 638 60 q 513 -1 560 13 q 417 -14 467 -14 q 275 16 340 -14 q 162 98 210 46 q 86 218 114 150 q 58 364 58 286 z "},"ć":{"ha":758,"x_min":58,"x_max":708,"o":"m 411 874 l 363 896 l 447 1014 l 528 1014 l 411 874 m 58 364 q 85 508 58 440 q 159 626 111 576 q 272 706 207 676 q 415 735 338 735 q 588 690 514 735 q 701 567 663 646 l 633 544 q 542 638 601 604 q 411 672 482 672 q 300 649 351 672 q 210 583 249 625 q 151 485 172 542 q 129 364 129 429 q 152 241 129 299 q 213 141 175 183 q 303 74 251 99 q 413 49 354 49 q 487 60 450 49 q 555 89 524 71 q 609 131 586 107 q 640 182 632 156 l 708 163 q 666 92 694 125 q 599 36 638 60 q 513 -1 560 13 q 417 -14 467 -14 q 275 16 340 -14 q 162 98 210 46 q 86 218 114 150 q 58 364 58 286 z "},"č":{"ha":758,"x_min":58,"x_max":708,"o":"m 294 1014 l 413 926 l 531 1014 l 572 990 l 438 878 l 386 878 l 253 990 l 294 1014 m 58 364 q 85 508 58 440 q 159 626 111 576 q 272 706 207 676 q 415 735 338 735 q 588 690 514 735 q 701 567 663 646 l 633 544 q 542 638 601 604 q 411 672 482 672 q 300 649 351 672 q 210 583 249 625 q 151 485 172 542 q 129 364 129 429 q 152 241 129 299 q 213 141 175 183 q 303 74 251 99 q 413 49 354 49 q 487 60 450 49 q 555 89 524 71 q 609 131 586 107 q 640 182 632 156 l 708 163 q 666 92 694 125 q 599 36 638 60 q 513 -1 560 13 q 417 -14 467 -14 q 275 16 340 -14 q 162 98 210 46 q 86 218 114 150 q 58 364 58 286 z "},"ç":{"ha":761,"x_min":60,"x_max":710,"o":"m 311 -174 q 363 -192 331 -183 q 432 -200 396 -200 q 513 -149 513 -200 q 494 -110 513 -121 q 444 -99 475 -99 q 383 -106 415 -99 q 332 -118 351 -112 l 390 -12 q 259 24 319 -7 q 154 107 199 56 q 85 224 110 158 q 60 364 60 290 q 86 508 60 440 q 160 626 113 576 q 274 706 208 676 q 417 735 339 735 q 590 690 515 735 q 703 567 664 646 l 635 544 q 543 638 603 604 q 413 672 483 672 q 301 649 353 672 q 212 583 250 625 q 152 485 174 542 q 131 364 131 429 q 153 241 131 299 q 215 141 176 183 q 304 74 253 99 q 414 49 356 49 q 488 60 451 49 q 556 89 525 71 q 610 131 588 107 q 642 182 633 156 l 710 163 q 670 95 697 126 q 607 41 643 64 q 527 3 571 18 q 436 -12 483 -11 l 400 -74 q 428 -67 413 -68 q 456 -65 444 -65 q 529 -86 503 -65 q 556 -147 556 -107 q 522 -215 556 -192 q 426 -237 489 -237 q 352 -230 386 -237 q 292 -211 318 -222 l 311 -174 z "},"ĉ":{"ha":758,"x_min":58,"x_max":708,"o":"m 253 901 l 386 1014 l 438 1014 l 572 901 l 531 878 l 413 965 l 294 878 l 253 901 m 58 364 q 85 508 58 440 q 159 626 111 576 q 272 706 207 676 q 415 735 338 735 q 588 690 514 735 q 701 567 663 646 l 633 544 q 542 638 601 604 q 411 672 482 672 q 300 649 351 672 q 210 583 249 625 q 151 485 172 542 q 129 364 129 429 q 152 241 129 299 q 213 141 175 183 q 303 74 251 99 q 413 49 354 49 q 487 60 450 49 q 555 89 524 71 q 609 131 586 107 q 640 182 632 156 l 708 163 q 666 92 694 125 q 599 36 638 60 q 513 -1 560 13 q 417 -14 467 -14 q 275 16 340 -14 q 162 98 210 46 q 86 218 114 150 q 58 364 58 286 z "},"ċ":{"ha":758,"x_min":58,"x_max":708,"o":"m 58 364 q 85 508 58 440 q 159 626 111 576 q 272 706 207 676 q 415 735 338 735 q 588 690 514 735 q 701 567 663 646 l 633 544 q 542 638 601 604 q 411 672 482 672 q 300 649 351 672 q 210 583 249 625 q 151 485 172 542 q 129 364 129 429 q 152 241 129 299 q 213 141 175 183 q 303 74 251 99 q 413 49 354 49 q 487 60 450 49 q 555 89 524 71 q 609 131 586 107 q 640 182 632 156 l 708 163 q 666 92 694 125 q 599 36 638 60 q 513 -1 560 13 q 417 -14 467 -14 q 275 16 340 -14 q 162 98 210 46 q 86 218 114 150 q 58 364 58 286 m 379 889 l 379 1014 l 443 1014 l 443 889 l 379 889 z "},"¢":{"ha":778,"x_min":67,"x_max":718,"o":"m 389 -167 l 389 -12 q 259 27 318 -7 q 157 113 200 61 q 90 228 114 164 q 67 358 67 292 q 90 494 67 429 q 154 610 113 560 q 256 694 196 661 q 389 733 315 728 l 389 896 l 431 896 l 431 733 q 603 686 536 731 q 708 567 671 642 l 642 544 q 552 638 607 607 q 431 671 497 668 l 431 50 q 495 60 460 50 q 562 87 531 69 q 617 128 593 104 q 649 182 640 153 l 718 163 q 669 85 701 118 q 597 31 638 53 q 513 -3 557 8 q 431 -14 469 -14 l 431 -167 l 389 -167 m 138 358 q 156 249 138 301 q 209 156 175 197 q 289 87 243 114 q 389 53 335 60 l 389 668 q 283 635 329 664 q 203 563 236 607 q 154 466 171 519 q 138 358 138 413 z "},":":{"ha":257,"x_min":99,"x_max":158,"o":"m 99 600 l 99 718 l 158 718 l 158 600 l 99 600 m 99 0 l 99 118 l 158 118 l 158 0 l 99 0 z "},",":{"ha":272,"x_min":85,"x_max":171,"o":"m 85 -19 q 102 -15 94 -19 q 110 6 110 -10 l 110 118 l 171 118 l 171 -3 q 144 -58 171 -42 q 85 -75 118 -75 l 85 -19 z "},"©":{"ha":1161,"x_min":74,"x_max":1089,"o":"m 579 -10 q 378 28 471 -10 q 217 134 285 67 q 112 293 150 201 q 74 493 74 385 q 112 692 74 600 q 217 850 150 783 q 378 955 285 917 q 579 993 471 993 q 783 955 689 993 q 944 850 876 917 q 1051 692 1013 783 q 1089 493 1089 600 q 1051 293 1089 385 q 944 134 1013 201 q 783 28 876 67 q 579 -10 689 -10 m 581 29 q 765 63 679 29 q 913 157 850 96 q 1011 302 975 218 q 1047 489 1047 386 q 1012 674 1047 589 q 914 822 976 760 q 766 919 851 885 q 581 954 681 954 q 395 919 481 954 q 247 823 310 885 q 149 676 185 761 q 114 492 114 592 q 149 308 114 393 q 247 162 185 224 q 395 65 310 100 q 581 29 481 29 m 590 172 q 474 194 531 172 q 372 258 417 217 q 301 360 328 300 q 274 493 274 419 q 292 608 274 550 q 348 712 310 665 q 444 788 386 758 q 581 817 501 817 q 737 779 668 817 q 836 668 806 742 l 769 646 q 731 701 754 679 q 681 734 707 722 q 628 750 656 746 q 581 754 601 754 q 476 731 521 754 q 403 669 432 707 q 359 585 374 632 q 344 493 344 539 q 367 383 344 431 q 424 302 389 335 q 502 252 460 269 q 585 235 544 235 q 642 242 613 235 q 698 265 671 250 q 747 301 725 279 q 781 349 768 322 l 847 329 q 817 278 839 306 q 763 228 796 251 q 685 188 729 204 q 590 172 642 172 z "},"d":{"ha":856,"x_min":58,"x_max":771,"o":"m 406 -14 q 267 17 331 -14 q 156 101 203 49 q 84 220 110 153 q 58 360 58 288 q 83 503 58 435 q 153 622 108 571 q 258 704 197 674 q 390 735 318 735 q 480 721 438 735 q 558 684 522 707 q 622 631 593 661 q 672 565 651 600 l 672 1014 l 742 1014 l 742 97 q 771 63 742 63 l 771 0 q 758 -1 764 -1 q 747 -1 753 -1 q 698 18 717 -1 q 679 61 679 38 l 679 144 q 560 29 635 72 q 406 -14 486 -14 m 418 49 q 499 64 456 49 q 579 106 542 79 q 642 168 617 133 q 672 243 668 203 l 672 481 q 628 555 657 519 q 564 616 600 590 q 486 657 528 642 q 406 672 444 672 q 292 645 343 672 q 205 574 242 618 q 149 474 168 531 q 129 358 129 418 q 151 240 129 296 q 213 142 174 185 q 305 74 253 99 q 418 49 357 49 z "},"†":{"ha":556,"x_min":61,"x_max":494,"o":"m 244 -181 l 244 344 l 61 344 l 61 408 l 244 408 l 244 1076 l 313 1076 l 313 408 l 494 408 l 494 344 l 313 344 l 313 -181 l 244 -181 z "},"‡":{"ha":568,"x_min":68,"x_max":500,"o":"m 251 -181 l 251 243 l 68 243 l 68 307 l 251 307 l 251 461 l 68 461 l 68 525 l 251 525 l 251 1076 l 318 1076 l 318 525 l 500 525 l 500 461 l 318 461 l 318 307 l 500 307 l 500 243 l 318 243 l 318 -181 l 251 -181 z "},"ď":{"ha":856,"x_min":58,"x_max":961,"o":"m 844 874 l 796 896 l 881 1014 l 961 1014 l 844 874 m 406 -14 q 267 17 331 -14 q 156 101 203 49 q 84 220 110 153 q 58 360 58 288 q 83 503 58 435 q 153 622 108 571 q 258 704 197 674 q 390 735 318 735 q 480 721 438 735 q 558 684 522 707 q 622 631 593 661 q 672 565 651 600 l 672 1014 l 742 1014 l 742 97 q 771 63 742 63 l 771 0 q 758 -1 764 -1 q 747 -1 753 -1 q 698 18 717 -1 q 679 61 679 38 l 679 144 q 560 29 635 72 q 406 -14 486 -14 m 418 49 q 499 64 456 49 q 579 106 542 79 q 642 168 617 133 q 672 243 668 203 l 672 481 q 628 555 657 519 q 564 616 600 590 q 486 657 528 642 q 406 672 444 672 q 292 645 343 672 q 205 574 242 618 q 149 474 168 531 q 129 358 129 418 q 151 240 129 296 q 213 142 174 185 q 305 74 253 99 q 418 49 357 49 z "},"đ":{"ha":856,"x_min":58,"x_max":843,"o":"m 406 -14 q 267 17 331 -14 q 156 101 203 49 q 84 220 110 153 q 58 360 58 288 q 83 503 58 435 q 153 622 108 571 q 258 704 197 674 q 390 735 318 735 q 480 721 438 735 q 558 684 522 707 q 622 631 593 661 q 672 565 651 600 l 672 865 l 508 865 l 508 915 l 672 915 l 672 1014 l 742 1014 l 742 915 l 843 915 l 843 865 l 742 865 l 742 97 q 771 63 742 63 l 771 0 q 758 -1 764 -1 q 747 -1 753 -1 q 698 18 717 -1 q 679 61 679 38 l 679 144 q 560 29 635 72 q 406 -14 486 -14 m 418 49 q 499 64 456 49 q 579 106 542 79 q 642 168 617 133 q 672 243 668 203 l 672 481 q 628 555 657 519 q 564 616 600 590 q 486 657 528 642 q 406 672 444 672 q 292 645 343 672 q 205 574 242 618 q 149 474 168 531 q 129 358 129 418 q 151 240 129 296 q 213 142 174 185 q 305 74 253 99 q 418 49 357 49 z "},"°":{"ha":363,"x_min":74,"x_max":289,"o":"m 74 899 q 105 974 74 943 q 181 1006 136 1006 q 258 974 226 1006 q 289 899 289 943 q 258 820 289 851 q 181 789 226 789 q 105 821 136 789 q 74 899 74 853 m 136 943 q 118 897 118 922 q 136 853 118 871 q 156 839 144 844 q 181 833 167 833 q 206 839 194 833 q 226 853 218 844 q 244 897 244 871 q 226 943 244 922 q 181 961 210 961 q 136 943 153 961 z "},"÷":{"ha":754,"x_min":97,"x_max":657,"o":"m 346 547 l 346 660 l 407 660 l 407 547 l 346 547 m 346 113 l 346 224 l 407 224 l 407 113 l 346 113 m 97 357 l 97 417 l 657 417 l 657 357 l 97 357 z "},"$":{"ha":850,"x_min":51,"x_max":794,"o":"m 706 822 q 444 929 611 925 l 444 525 q 590 488 525 508 q 701 438 656 468 q 770 363 746 407 q 794 253 794 318 q 769 140 794 188 q 699 59 744 92 q 589 10 653 26 q 449 -8 525 -7 l 449 -137 l 406 -137 l 406 -7 q 51 139 197 4 l 89 196 q 226 99 146 136 q 408 54 307 61 l 408 464 q 269 499 329 481 q 169 547 210 518 q 107 615 128 575 q 86 717 86 656 q 109 830 86 781 q 174 915 132 879 q 274 969 215 950 q 406 992 333 989 l 406 1132 l 449 1132 l 449 993 q 612 962 540 990 q 742 878 683 933 l 706 822 m 719 244 q 702 323 719 290 q 651 380 685 356 q 565 422 617 404 q 444 456 513 440 l 444 54 q 647 101 574 54 q 719 244 719 149 m 158 726 q 173 651 158 682 q 218 599 188 621 q 296 563 249 578 q 408 533 343 547 l 408 928 q 217 869 276 922 q 158 726 158 815 z "},"ı":{"ha":283,"x_min":107,"x_max":176,"o":"m 107 0 l 107 722 l 176 722 l 176 0 l 107 0 z "},"ȷ":{"ha":283,"x_min":-178,"x_max":176,"o":"m -26 -246 q -109 -234 -71 -246 q -178 -194 -147 -222 l -140 -149 q -89 -175 -117 -168 q -33 -182 -61 -182 q 18 -172 -7 -182 q 63 -142 43 -161 q 94 -98 82 -124 q 107 -42 107 -72 l 107 722 l 176 722 l 176 -39 q 159 -122 176 -85 q 113 -187 142 -160 q 47 -231 83 -215 q -26 -246 11 -246 z "},"e":{"ha":811,"x_min":58,"x_max":767,"o":"m 415 -14 q 274 16 339 -14 q 160 98 208 46 q 85 218 113 150 q 58 364 58 286 q 85 508 58 440 q 160 626 113 575 q 272 706 207 676 q 413 735 338 735 q 553 705 489 735 q 665 624 618 675 q 740 506 713 574 q 767 364 767 439 q 766 347 767 357 q 765 333 765 336 l 131 333 q 160 217 135 271 q 223 125 185 164 q 311 64 261 86 q 418 42 361 42 q 492 52 456 42 q 560 81 529 63 q 616 124 592 99 q 654 181 640 150 l 715 164 q 669 92 699 125 q 599 36 639 60 q 513 -1 560 13 q 415 -14 465 -14 m 699 389 q 670 506 694 453 q 608 597 646 558 q 519 656 569 635 q 413 678 469 678 q 306 656 356 678 q 217 597 256 635 q 156 505 179 558 q 129 389 133 451 l 699 389 z "},"é":{"ha":811,"x_min":58,"x_max":767,"o":"m 410 874 l 361 896 l 446 1014 l 526 1014 l 410 874 m 415 -14 q 274 16 339 -14 q 160 98 208 46 q 85 218 113 150 q 58 364 58 286 q 85 508 58 440 q 160 626 113 575 q 272 706 207 676 q 413 735 338 735 q 553 705 489 735 q 665 624 618 675 q 740 506 713 574 q 767 364 767 439 q 766 347 767 357 q 765 333 765 336 l 131 333 q 160 217 135 271 q 223 125 185 164 q 311 64 261 86 q 418 42 361 42 q 492 52 456 42 q 560 81 529 63 q 616 124 592 99 q 654 181 640 150 l 715 164 q 669 92 699 125 q 599 36 639 60 q 513 -1 560 13 q 415 -14 465 -14 m 699 389 q 670 506 694 453 q 608 597 646 558 q 519 656 569 635 q 413 678 469 678 q 306 656 356 678 q 217 597 256 635 q 156 505 179 558 q 129 389 133 451 l 699 389 z "},"ĕ":{"ha":811,"x_min":58,"x_max":767,"o":"m 415 -14 q 274 16 339 -14 q 160 98 208 46 q 85 218 113 150 q 58 364 58 286 q 85 508 58 440 q 160 626 113 575 q 272 706 207 676 q 413 735 338 735 q 553 705 489 735 q 665 624 618 675 q 740 506 713 574 q 767 364 767 439 q 766 347 767 357 q 765 333 765 336 l 131 333 q 160 217 135 271 q 223 125 185 164 q 311 64 261 86 q 418 42 361 42 q 492 52 456 42 q 560 81 529 63 q 616 124 592 99 q 654 181 640 150 l 715 164 q 669 92 699 125 q 599 36 639 60 q 513 -1 560 13 q 415 -14 465 -14 m 699 389 q 670 506 694 453 q 608 597 646 558 q 519 656 569 635 q 413 678 469 678 q 306 656 356 678 q 217 597 256 635 q 156 505 179 558 q 129 389 133 451 l 699 389 m 411 925 q 462 951 439 925 q 489 1014 485 976 l 535 1014 q 525 964 535 988 q 498 923 515 940 q 458 896 481 906 q 411 886 436 886 q 363 896 386 886 q 324 923 340 906 q 297 964 307 940 q 288 1014 288 988 l 333 1014 q 357 952 333 979 q 411 925 381 925 z "},"ě":{"ha":811,"x_min":58,"x_max":767,"o":"m 293 1014 l 411 926 l 529 1014 l 571 990 l 436 878 l 385 878 l 251 990 l 293 1014 m 415 -14 q 274 16 339 -14 q 160 98 208 46 q 85 218 113 150 q 58 364 58 286 q 85 508 58 440 q 160 626 113 575 q 272 706 207 676 q 413 735 338 735 q 553 705 489 735 q 665 624 618 675 q 740 506 713 574 q 767 364 767 439 q 766 347 767 357 q 765 333 765 336 l 131 333 q 160 217 135 271 q 223 125 185 164 q 311 64 261 86 q 418 42 361 42 q 492 52 456 42 q 560 81 529 63 q 616 124 592 99 q 654 181 640 150 l 715 164 q 669 92 699 125 q 599 36 639 60 q 513 -1 560 13 q 415 -14 465 -14 m 699 389 q 670 506 694 453 q 608 597 646 558 q 519 656 569 635 q 413 678 469 678 q 306 656 356 678 q 217 597 256 635 q 156 505 179 558 q 129 389 133 451 l 699 389 z "},"ê":{"ha":811,"x_min":58,"x_max":767,"o":"m 251 901 l 385 1014 l 436 1014 l 571 901 l 529 878 l 411 965 l 293 878 l 251 901 m 415 -14 q 274 16 339 -14 q 160 98 208 46 q 85 218 113 150 q 58 364 58 286 q 85 508 58 440 q 160 626 113 575 q 272 706 207 676 q 413 735 338 735 q 553 705 489 735 q 665 624 618 675 q 740 506 713 574 q 767 364 767 439 q 766 347 767 357 q 765 333 765 336 l 131 333 q 160 217 135 271 q 223 125 185 164 q 311 64 261 86 q 418 42 361 42 q 492 52 456 42 q 560 81 529 63 q 616 124 592 99 q 654 181 640 150 l 715 164 q 669 92 699 125 q 599 36 639 60 q 513 -1 560 13 q 415 -14 465 -14 m 699 389 q 670 506 694 453 q 608 597 646 558 q 519 656 569 635 q 413 678 469 678 q 306 656 356 678 q 217 597 256 635 q 156 505 179 558 q 129 389 133 451 l 699 389 z "},"ë":{"ha":811,"x_min":58,"x_max":767,"o":"m 286 889 l 286 1011 l 347 1011 l 347 889 l 286 889 m 475 889 l 475 1011 l 536 1011 l 536 889 l 475 889 m 415 -14 q 274 16 339 -14 q 160 98 208 46 q 85 218 113 150 q 58 364 58 286 q 85 508 58 440 q 160 626 113 575 q 272 706 207 676 q 413 735 338 735 q 553 705 489 735 q 665 624 618 675 q 740 506 713 574 q 767 364 767 439 q 766 347 767 357 q 765 333 765 336 l 131 333 q 160 217 135 271 q 223 125 185 164 q 311 64 261 86 q 418 42 361 42 q 492 52 456 42 q 560 81 529 63 q 616 124 592 99 q 654 181 640 150 l 715 164 q 669 92 699 125 q 599 36 639 60 q 513 -1 560 13 q 415 -14 465 -14 m 699 389 q 670 506 694 453 q 608 597 646 558 q 519 656 569 635 q 413 678 469 678 q 306 656 356 678 q 217 597 256 635 q 156 505 179 558 q 129 389 133 451 l 699 389 z "},"ė":{"ha":811,"x_min":58,"x_max":767,"o":"m 415 -14 q 274 16 339 -14 q 160 98 208 46 q 85 218 113 150 q 58 364 58 286 q 85 508 58 440 q 160 626 113 575 q 272 706 207 676 q 413 735 338 735 q 553 705 489 735 q 665 624 618 675 q 740 506 713 574 q 767 364 767 439 q 766 347 767 357 q 765 333 765 336 l 131 333 q 160 217 135 271 q 223 125 185 164 q 311 64 261 86 q 418 42 361 42 q 492 52 456 42 q 560 81 529 63 q 616 124 592 99 q 654 181 640 150 l 715 164 q 669 92 699 125 q 599 36 639 60 q 513 -1 560 13 q 415 -14 465 -14 m 699 389 q 670 506 694 453 q 608 597 646 558 q 519 656 569 635 q 413 678 469 678 q 306 656 356 678 q 217 597 256 635 q 156 505 179 558 q 129 389 133 451 l 699 389 m 378 889 l 378 1014 l 442 1014 l 442 889 l 378 889 z "},"è":{"ha":811,"x_min":58,"x_max":767,"o":"m 415 -14 q 274 16 339 -14 q 160 98 208 46 q 85 218 113 150 q 58 364 58 286 q 85 508 58 440 q 160 626 113 575 q 272 706 207 676 q 413 735 338 735 q 553 705 489 735 q 665 624 618 675 q 740 506 713 574 q 767 364 767 439 q 766 347 767 357 q 765 333 765 336 l 131 333 q 160 217 135 271 q 223 125 185 164 q 311 64 261 86 q 418 42 361 42 q 492 52 456 42 q 560 81 529 63 q 616 124 592 99 q 654 181 640 150 l 715 164 q 669 92 699 125 q 599 36 639 60 q 513 -1 560 13 q 415 -14 465 -14 m 699 389 q 670 506 694 453 q 608 597 646 558 q 519 656 569 635 q 413 678 469 678 q 306 656 356 678 q 217 597 256 635 q 156 505 179 558 q 129 389 133 451 l 699 389 m 294 1014 l 374 1014 l 460 896 l 413 874 l 294 1014 z "},"₈":{"ha":544,"x_min":54,"x_max":489,"o":"m 489 150 q 472 87 489 115 q 424 38 454 58 q 353 6 393 17 q 269 -6 314 -6 q 183 7 222 -6 q 115 41 143 19 q 70 92 86 63 q 54 153 54 121 q 65 202 54 179 q 95 242 76 225 q 138 273 114 260 q 186 293 161 286 q 109 337 142 308 q 76 408 76 365 q 94 467 76 442 q 139 510 111 492 q 201 537 167 528 q 272 546 236 546 q 342 537 307 546 q 405 510 378 528 q 449 467 432 493 q 467 410 467 442 q 434 338 467 367 q 356 293 401 308 q 451 240 414 276 q 489 150 489 203 m 439 156 q 424 203 439 182 q 384 240 408 225 q 330 263 360 256 q 271 271 300 271 q 210 263 240 271 q 157 239 181 254 q 119 202 133 224 q 104 154 104 181 q 119 107 104 128 q 159 72 135 86 q 213 49 183 57 q 272 42 243 42 q 333 50 303 42 q 386 73 363 58 q 424 108 410 88 q 439 156 439 129 m 126 406 q 140 366 126 383 q 174 337 153 349 q 220 319 194 325 q 271 313 246 313 q 322 319 296 313 q 369 338 349 325 q 403 367 390 350 q 417 407 417 385 q 404 445 417 428 q 372 475 392 463 q 325 494 351 488 q 271 500 299 500 q 217 494 243 500 q 170 475 190 488 q 138 445 150 463 q 126 406 126 428 z "},"⁸":{"ha":544,"x_min":54,"x_max":489,"o":"m 489 618 q 472 553 489 582 q 424 504 454 525 q 353 472 393 483 q 269 461 314 461 q 183 474 222 461 q 115 508 143 486 q 70 560 86 531 q 54 621 54 589 q 65 670 54 647 q 95 710 76 693 q 138 740 114 728 q 186 761 161 753 q 109 805 142 776 q 76 876 76 833 q 94 934 76 908 q 139 977 111 960 q 201 1004 167 994 q 272 1014 236 1014 q 342 1005 307 1014 q 405 978 378 996 q 449 935 432 961 q 467 878 467 910 q 434 806 467 835 q 356 761 401 776 q 451 708 414 744 q 489 618 489 671 m 439 624 q 424 672 439 650 q 384 708 408 693 q 330 731 360 724 q 271 739 300 739 q 210 731 240 739 q 157 707 181 722 q 119 670 133 692 q 104 622 104 649 q 119 575 104 596 q 159 540 135 554 q 213 517 183 525 q 272 510 243 510 q 333 518 303 510 q 386 541 363 526 q 424 576 410 556 q 439 624 439 597 m 126 874 q 140 834 126 851 q 174 805 153 817 q 220 787 194 793 q 271 781 246 781 q 322 787 296 781 q 369 805 349 793 q 403 834 390 817 q 417 874 417 851 q 404 913 417 896 q 372 943 392 931 q 325 962 351 956 q 271 968 299 968 q 217 962 243 968 q 170 943 190 956 q 138 913 150 931 q 126 874 126 896 z "},"…":{"ha":582,"x_min":94,"x_max":488,"o":"m 94 0 l 94 118 l 156 118 l 156 0 l 94 0 m 261 0 l 261 118 l 321 118 l 321 0 l 261 0 m 426 0 l 426 118 l 488 118 l 488 0 l 426 0 z "},"ē":{"ha":811,"x_min":58,"x_max":767,"o":"m 415 -14 q 274 16 339 -14 q 160 98 208 46 q 85 218 113 150 q 58 364 58 286 q 85 508 58 440 q 160 626 113 575 q 272 706 207 676 q 413 735 338 735 q 553 705 489 735 q 665 624 618 675 q 740 506 713 574 q 767 364 767 439 q 766 347 767 357 q 765 333 765 336 l 131 333 q 160 217 135 271 q 223 125 185 164 q 311 64 261 86 q 418 42 361 42 q 492 52 456 42 q 560 81 529 63 q 616 124 592 99 q 654 181 640 150 l 715 164 q 669 92 699 125 q 599 36 639 60 q 513 -1 560 13 q 415 -14 465 -14 m 699 389 q 670 506 694 453 q 608 597 646 558 q 519 656 569 635 q 413 678 469 678 q 306 656 356 678 q 217 597 256 635 q 156 505 179 558 q 129 389 133 451 l 699 389 m 213 933 l 213 985 l 608 985 l 608 933 l 213 933 z "},"—":{"ha":1242,"x_min":94,"x_max":1147,"o":"m 94 346 l 94 410 l 1147 410 l 1147 346 l 94 346 z "},"–":{"ha":781,"x_min":94,"x_max":686,"o":"m 94 346 l 94 410 l 686 410 l 686 346 l 94 346 z "},"ŋ":{"ha":796,"x_min":107,"x_max":697,"o":"m 494 -246 q 412 -234 450 -246 q 343 -194 374 -222 l 381 -149 q 432 -175 404 -168 q 488 -182 460 -182 q 539 -172 514 -182 q 583 -142 564 -161 q 615 -98 603 -124 q 628 -42 628 -72 l 628 403 q 588 607 628 543 q 461 671 549 671 q 370 654 415 671 q 287 607 325 638 q 219 535 249 576 q 176 447 190 494 l 176 0 l 107 0 l 107 722 l 171 722 l 171 550 q 226 626 193 592 q 300 684 260 660 q 387 722 340 708 q 482 735 433 735 q 649 652 600 735 q 697 415 697 569 l 697 -39 q 680 -122 697 -85 q 633 -187 663 -160 q 568 -231 604 -215 q 494 -246 532 -246 z "},"ę":{"ha":814,"x_min":60,"x_max":768,"o":"m 394 -244 q 326 -210 350 -235 q 301 -150 301 -185 q 324 -83 301 -115 q 397 -12 347 -50 q 263 22 325 -8 q 156 104 201 53 q 85 222 111 156 q 60 364 60 289 q 87 508 60 440 q 161 626 114 575 q 274 706 208 676 q 414 735 339 735 q 555 705 490 735 q 667 624 619 675 q 741 506 714 574 q 768 364 768 439 q 767 347 768 357 q 767 333 767 336 l 132 333 q 161 217 136 271 q 224 125 186 164 q 313 64 263 86 q 419 42 363 42 q 494 52 457 42 q 562 81 531 63 q 617 124 593 99 q 656 181 642 150 l 717 164 q 617 47 688 94 q 460 -11 547 0 q 373 -80 397 -51 q 349 -140 349 -108 q 417 -203 349 -193 l 394 -244 m 700 389 q 672 506 696 453 q 609 597 647 558 q 521 656 571 635 q 414 678 471 678 q 307 656 357 678 q 219 597 257 635 q 158 505 181 558 q 131 389 135 451 l 700 389 z "},"=":{"ha":615,"x_min":100,"x_max":515,"o":"m 100 289 l 100 342 l 515 342 l 515 289 l 100 289 m 100 425 l 100 478 l 515 478 l 515 425 l 100 425 z "},"ð":{"ha":833,"x_min":61,"x_max":768,"o":"m 675 957 l 556 882 q 661 756 619 821 q 726 627 703 692 q 759 497 750 563 q 768 368 768 432 q 740 215 768 285 q 663 94 711 146 q 549 15 614 43 q 411 -14 483 -14 q 275 13 339 -14 q 164 85 211 39 q 89 192 117 131 q 61 322 61 253 q 88 451 61 390 q 162 558 115 513 q 270 631 208 604 q 403 658 332 658 q 581 610 503 658 q 697 482 660 561 q 643 667 685 574 q 503 853 601 760 l 342 750 l 317 785 l 472 881 q 385 947 432 914 q 279 1014 338 981 l 378 1014 q 456 963 419 989 q 525 910 493 938 l 651 990 l 675 957 m 132 321 q 154 215 132 264 q 215 128 176 165 q 303 70 253 92 q 413 49 354 49 q 523 72 471 49 q 614 134 575 94 q 675 226 653 174 q 697 338 697 279 q 675 439 697 392 q 614 522 653 486 q 524 578 575 557 q 415 599 474 599 q 306 576 357 599 q 215 517 254 554 q 154 428 176 479 q 132 321 132 378 z "},"ẽ":{"ha":811,"x_min":58,"x_max":767,"o":"m 415 -14 q 274 16 339 -14 q 160 98 208 46 q 85 218 113 150 q 58 364 58 286 q 85 508 58 440 q 160 626 113 575 q 272 706 207 676 q 413 735 338 735 q 553 705 489 735 q 665 624 618 675 q 740 506 713 574 q 767 364 767 439 q 766 347 767 357 q 765 333 765 336 l 131 333 q 160 217 135 271 q 223 125 185 164 q 311 64 261 86 q 418 42 361 42 q 492 52 456 42 q 560 81 529 63 q 616 124 592 99 q 654 181 640 150 l 715 164 q 669 92 699 125 q 599 36 639 60 q 513 -1 560 13 q 415 -14 465 -14 m 699 389 q 670 506 694 453 q 608 597 646 558 q 519 656 569 635 q 413 678 469 678 q 306 656 356 678 q 217 597 256 635 q 156 505 179 558 q 129 389 133 451 l 699 389 m 496 899 q 442 907 465 899 q 399 926 418 915 q 360 945 379 936 q 321 954 342 954 q 283 944 297 954 q 263 923 269 935 q 253 901 256 911 q 250 888 250 890 l 203 888 q 207 912 203 893 q 224 951 211 931 q 260 987 238 971 q 321 1003 283 1003 q 370 994 349 1003 q 411 974 392 985 q 451 956 431 964 q 497 947 471 947 q 541 957 525 947 q 565 978 557 967 q 574 1001 572 990 q 576 1014 576 1011 l 624 1014 q 619 988 624 1007 q 601 950 614 969 q 563 915 588 931 q 496 899 538 899 z "},"!":{"ha":321,"x_min":126,"x_max":196,"o":"m 126 303 l 126 996 l 196 996 l 196 303 l 126 303 m 126 0 l 126 142 l 196 142 l 196 0 l 126 0 z "},"¡":{"ha":322,"x_min":126,"x_max":196,"o":"m 196 692 l 196 -1 l 126 -1 l 126 692 l 196 692 m 196 994 l 196 853 l 126 853 l 126 994 l 196 994 z "},"f":{"ha":467,"x_min":42,"x_max":492,"o":"m 143 0 l 143 581 l 42 581 l 42 638 l 143 638 l 143 746 q 198 953 143 879 q 349 1028 253 1028 q 428 1015 389 1028 q 492 982 467 1003 l 467 932 q 419 957 447 947 q 360 967 390 967 q 251 910 289 967 q 213 747 213 854 l 213 638 l 418 638 l 418 581 l 213 581 l 213 0 l 143 0 z "},"ﬀ":{"ha":811,"x_min":42,"x_max":822,"o":"m 694 965 q 615 945 647 965 q 561 894 582 925 q 531 824 540 863 q 521 747 521 785 l 521 638 l 761 638 l 761 581 l 521 581 l 521 0 l 451 0 l 451 581 l 213 581 l 213 0 l 143 0 l 143 581 l 42 581 l 42 638 l 143 638 l 143 703 q 156 801 143 753 q 194 888 168 850 q 260 950 221 926 q 354 974 300 974 q 445 962 407 974 q 506 936 483 950 q 577 1002 533 976 q 685 1028 621 1028 q 743 1022 719 1028 q 783 1008 767 1015 q 808 992 799 1000 q 822 982 818 985 l 797 932 q 763 955 783 944 q 694 965 743 965 m 451 740 q 459 811 451 772 q 482 882 467 850 q 425 906 458 900 q 364 911 392 911 q 292 890 321 911 q 245 839 263 869 q 220 772 228 808 q 213 704 213 735 l 213 638 l 451 638 l 451 740 z "},"ﬃ":{"ha":982,"x_min":42,"x_max":889,"o":"m 143 581 l 42 581 l 42 638 l 143 638 l 143 703 q 156 801 143 753 q 194 888 168 850 q 260 950 221 926 q 354 974 300 974 q 445 962 407 974 q 506 936 483 950 q 581 1002 535 976 q 694 1028 628 1028 q 764 1021 732 1028 q 821 1005 796 1014 q 863 985 846 996 q 889 969 881 975 l 853 921 q 793 951 835 938 q 700 965 751 965 q 617 945 651 965 q 562 894 583 925 q 531 824 540 863 q 521 747 521 785 l 521 638 l 875 638 l 875 0 l 806 0 l 806 581 l 521 581 l 521 0 l 451 0 l 451 581 l 213 581 l 213 0 l 143 0 l 143 581 m 451 638 l 451 740 q 459 811 451 772 q 482 882 467 850 q 425 906 458 900 q 364 911 392 911 q 292 890 321 911 q 245 839 263 869 q 220 772 228 808 q 213 704 213 735 l 213 638 l 451 638 z "},"ﬄ":{"ha":1088,"x_min":42,"x_max":1100,"o":"m 982 -8 q 885 29 919 -8 q 851 117 851 67 l 851 815 q 843 869 851 842 q 816 917 835 896 q 767 952 797 939 q 693 965 736 965 q 616 945 647 965 q 565 892 585 925 q 535 819 544 860 q 526 739 526 779 l 526 638 l 686 638 l 686 581 l 526 581 l 526 0 l 457 0 l 457 581 l 213 581 l 213 0 l 143 0 l 143 581 l 42 581 l 42 638 l 143 638 l 143 714 q 158 816 143 768 q 200 899 172 864 q 269 953 228 933 q 365 974 311 974 q 451 962 418 974 q 506 938 483 950 q 580 1004 533 981 q 693 1028 626 1028 q 791 1013 749 1028 q 863 970 833 997 q 906 906 892 943 q 921 826 921 869 l 921 142 q 940 84 921 113 q 1000 56 960 56 q 1055 63 1028 56 q 1085 69 1082 69 l 1100 11 q 1089 7 1100 10 q 1061 1 1078 4 q 1024 -6 1044 -3 q 982 -8 1003 -8 m 457 638 l 457 740 q 463 816 457 776 q 481 883 468 856 q 430 906 457 901 q 375 911 403 911 q 301 894 332 911 q 251 849 271 876 q 222 787 231 822 q 213 717 213 751 l 213 638 l 457 638 z "},"ﬁ":{"ha":674,"x_min":42,"x_max":582,"o":"m 143 581 l 42 581 l 42 638 l 143 638 l 143 746 q 157 844 143 793 q 200 935 171 894 q 276 1001 229 975 q 388 1028 322 1028 q 458 1021 425 1028 q 515 1005 490 1014 q 557 985 540 996 q 582 969 574 975 l 546 921 q 485 952 526 939 q 390 965 443 965 q 309 945 343 965 q 253 894 275 925 q 222 824 232 863 q 213 747 213 785 l 213 638 l 567 638 l 567 0 l 497 0 l 497 581 l 213 581 l 213 0 l 143 0 l 143 581 z "},"ﬂ":{"ha":775,"x_min":42,"x_max":788,"o":"m 788 11 q 749 0 785 8 q 668 -8 713 -8 q 572 29 606 -8 q 539 117 539 67 l 539 815 q 531 869 539 842 q 503 917 522 896 q 454 952 485 939 q 381 965 424 965 q 303 945 335 965 q 251 892 271 925 q 222 819 231 860 q 213 739 213 779 l 213 638 l 374 638 l 374 581 l 213 581 l 213 0 l 143 0 l 143 581 l 42 581 l 42 638 l 143 638 l 143 750 q 157 860 143 810 q 200 949 171 911 q 274 1007 229 986 q 379 1028 318 1028 q 478 1013 435 1028 q 550 970 521 997 q 594 906 579 943 q 608 826 608 869 l 608 142 q 628 84 608 113 q 688 56 647 56 q 742 63 715 56 q 771 69 769 69 l 788 11 z "},"⅝":{"ha":1176,"x_min":58,"x_max":1119,"o":"m 1119 150 q 1102 87 1119 115 q 1054 38 1085 58 q 984 6 1024 17 q 900 -6 944 -6 q 813 7 853 -6 q 745 41 774 19 q 701 92 717 63 q 685 153 685 121 q 696 202 685 179 q 726 242 707 225 q 768 273 744 260 q 817 293 792 286 q 740 337 772 308 q 707 408 707 365 q 724 467 707 442 q 769 510 742 492 q 832 537 797 528 q 903 546 867 546 q 973 537 938 546 q 1035 510 1008 528 q 1080 467 1063 493 q 1097 410 1097 442 q 1065 338 1097 367 q 986 293 1032 308 q 1082 240 1044 276 q 1119 150 1119 203 m 1069 156 q 1054 203 1069 182 q 1015 240 1039 225 q 960 263 990 256 q 901 271 931 271 q 841 263 871 271 q 788 239 811 254 q 749 202 764 224 q 735 154 735 181 q 750 107 735 128 q 790 72 765 86 q 844 49 814 57 q 903 42 874 42 q 963 50 933 42 q 1017 73 993 58 q 1055 108 1040 88 q 1069 156 1069 129 m 757 406 q 770 366 757 383 q 804 337 783 349 q 851 319 825 325 q 901 313 876 313 q 953 319 926 313 q 1000 338 979 325 q 1034 367 1021 350 q 1047 407 1047 385 q 1035 445 1047 428 q 1002 475 1022 463 q 956 494 982 488 q 901 500 929 500 q 847 494 874 500 q 801 475 821 488 q 769 445 781 463 q 757 406 757 428 m 269 814 q 351 801 313 814 q 417 766 389 789 q 460 711 444 743 q 476 642 476 679 q 459 568 476 601 q 413 511 442 535 q 344 474 383 488 q 260 461 304 461 q 138 490 192 461 q 58 567 85 518 l 93 592 q 162 530 118 553 q 263 507 206 507 q 380 544 333 507 q 426 642 426 582 q 413 698 426 674 q 376 739 399 722 q 324 765 353 756 q 264 774 294 774 q 181 756 219 774 q 118 707 142 738 l 71 707 q 86 775 75 729 q 109 870 97 821 q 130 960 121 919 q 142 1014 139 1001 l 444 1014 l 444 965 l 179 965 l 132 768 q 193 803 157 792 q 269 814 229 814 m 171 29 l 560 507 l 940 990 l 979 958 l 590 479 l 210 -4 l 171 29 z "},"⁵":{"ha":517,"x_min":49,"x_max":467,"o":"m 260 814 q 341 801 303 814 q 407 766 379 789 q 451 711 435 743 q 467 642 467 679 q 449 568 467 601 q 403 511 432 535 q 334 474 374 488 q 250 461 294 461 q 128 490 182 461 q 49 567 75 518 l 83 592 q 152 530 108 553 q 253 507 196 507 q 370 544 324 507 q 417 642 417 582 q 403 698 417 674 q 366 739 389 722 q 314 765 343 756 q 254 774 285 774 q 171 756 210 774 q 108 707 132 738 l 61 707 q 76 775 65 729 q 99 870 88 821 q 120 960 111 919 q 132 1014 129 1001 l 435 1014 l 435 965 l 169 965 l 122 768 q 183 803 147 792 q 260 814 219 814 z "},"⁄":{"ha":196,"x_min":-306,"x_max":503,"o":"m -306 29 l 83 507 l 464 990 l 503 958 l 114 479 l -267 -4 l -306 29 z "},"₅":{"ha":515,"x_min":47,"x_max":465,"o":"m 258 346 q 340 333 301 346 q 406 298 378 321 q 449 243 433 275 q 465 172 465 211 q 448 99 465 132 q 401 43 431 67 q 333 6 372 19 q 249 -7 293 -7 q 127 22 181 -7 q 47 97 74 50 l 82 124 q 151 62 107 85 q 251 39 194 39 q 369 76 322 39 q 415 174 415 114 q 401 230 415 206 q 365 271 388 254 q 313 297 342 288 q 253 306 283 306 q 169 288 208 306 q 107 239 131 269 l 60 239 q 75 307 64 261 q 98 402 86 353 q 119 492 110 451 q 131 546 128 533 l 433 546 l 433 497 l 168 497 l 121 300 q 182 335 146 324 q 258 346 218 346 z "},"ƒ":{"ha":722,"x_min":43,"x_max":676,"o":"m 194 -246 q 112 -234 150 -246 q 43 -194 74 -222 l 81 -149 q 132 -175 104 -168 q 188 -182 160 -182 q 239 -172 214 -182 q 283 -142 264 -161 q 315 -98 303 -124 q 328 -42 328 -72 l 328 581 l 225 581 l 225 638 l 328 638 l 328 746 q 382 953 328 879 q 532 1028 436 1028 q 612 1015 572 1028 q 676 982 651 1003 l 650 932 q 603 957 632 947 q 543 967 574 967 q 435 910 472 967 q 397 747 397 854 l 397 638 l 603 638 l 603 581 l 397 581 l 397 -40 q 380 -124 397 -86 q 333 -188 363 -161 q 268 -231 304 -215 q 194 -246 232 -246 z "},"₄":{"ha":524,"x_min":35,"x_max":482,"o":"m 354 0 l 354 147 l 35 147 l 35 192 l 368 546 l 403 546 l 403 194 l 482 194 l 482 147 l 403 147 l 403 0 l 354 0 m 90 194 l 354 194 l 354 475 l 90 194 z "},"⁴":{"ha":524,"x_min":35,"x_max":482,"o":"m 354 468 l 354 614 l 35 614 l 35 660 l 368 1014 l 403 1014 l 403 663 l 482 663 l 482 614 l 403 614 l 403 468 l 354 468 m 90 663 l 354 663 l 354 943 l 90 663 z "},"g":{"ha":849,"x_min":60,"x_max":742,"o":"m 401 -11 q 264 20 326 -11 q 156 103 201 51 q 85 222 110 156 q 60 360 60 289 q 84 501 60 433 q 153 622 108 569 q 259 704 197 674 q 394 735 321 735 q 559 685 489 735 q 679 565 629 636 l 679 722 l 742 722 l 742 -14 q 714 -143 742 -87 q 640 -235 686 -199 q 531 -291 593 -272 q 401 -310 469 -310 q 289 -298 339 -310 q 201 -265 239 -286 q 133 -212 163 -243 q 81 -143 103 -181 l 128 -111 q 244 -219 171 -185 q 401 -253 318 -253 q 506 -237 457 -253 q 592 -192 556 -222 q 651 -118 629 -162 q 672 -14 672 -74 l 672 144 q 554 32 628 75 q 401 -11 481 -11 m 418 49 q 507 66 464 49 q 585 111 550 83 q 644 174 621 139 q 672 243 668 208 l 672 481 q 628 558 656 522 q 565 618 600 593 q 488 658 529 643 q 406 672 447 672 q 289 644 340 672 q 202 572 238 617 q 148 472 167 528 q 129 358 129 415 q 151 240 129 296 q 213 142 174 185 q 305 74 253 99 q 418 49 357 49 z "},"ğ":{"ha":849,"x_min":60,"x_max":742,"o":"m 401 -11 q 264 20 326 -11 q 156 103 201 51 q 85 222 110 156 q 60 360 60 289 q 84 501 60 433 q 153 622 108 569 q 259 704 197 674 q 394 735 321 735 q 559 685 489 735 q 679 565 629 636 l 679 722 l 742 722 l 742 -14 q 714 -143 742 -87 q 640 -235 686 -199 q 531 -291 593 -272 q 401 -310 469 -310 q 289 -298 339 -310 q 201 -265 239 -286 q 133 -212 163 -243 q 81 -143 103 -181 l 128 -111 q 244 -219 171 -185 q 401 -253 318 -253 q 506 -237 457 -253 q 592 -192 556 -222 q 651 -118 629 -162 q 672 -14 672 -74 l 672 144 q 554 32 628 75 q 401 -11 481 -11 m 418 49 q 507 66 464 49 q 585 111 550 83 q 644 174 621 139 q 672 243 668 208 l 672 481 q 628 558 656 522 q 565 618 600 593 q 488 658 529 643 q 406 672 447 672 q 289 644 340 672 q 202 572 238 617 q 148 472 167 528 q 129 358 129 415 q 151 240 129 296 q 213 142 174 185 q 305 74 253 99 q 418 49 357 49 m 447 925 q 498 951 475 925 q 525 1014 521 976 l 571 1014 q 561 964 571 988 q 534 923 551 940 q 494 896 517 906 q 447 886 472 886 q 399 896 422 886 q 360 923 376 906 q 333 964 343 940 q 324 1014 324 988 l 369 1014 q 393 952 369 979 q 447 925 417 925 z "},"ĝ":{"ha":849,"x_min":60,"x_max":742,"o":"m 288 901 l 421 1014 l 472 1014 l 607 901 l 565 878 l 447 965 l 329 878 l 288 901 m 401 -11 q 264 20 326 -11 q 156 103 201 51 q 85 222 110 156 q 60 360 60 289 q 84 501 60 433 q 153 622 108 569 q 259 704 197 674 q 394 735 321 735 q 559 685 489 735 q 679 565 629 636 l 679 722 l 742 722 l 742 -14 q 714 -143 742 -87 q 640 -235 686 -199 q 531 -291 593 -272 q 401 -310 469 -310 q 289 -298 339 -310 q 201 -265 239 -286 q 133 -212 163 -243 q 81 -143 103 -181 l 128 -111 q 244 -219 171 -185 q 401 -253 318 -253 q 506 -237 457 -253 q 592 -192 556 -222 q 651 -118 629 -162 q 672 -14 672 -74 l 672 144 q 554 32 628 75 q 401 -11 481 -11 m 418 49 q 507 66 464 49 q 585 111 550 83 q 644 174 621 139 q 672 243 668 208 l 672 481 q 628 558 656 522 q 565 618 600 593 q 488 658 529 643 q 406 672 447 672 q 289 644 340 672 q 202 572 238 617 q 148 472 167 528 q 129 358 129 415 q 151 240 129 296 q 213 142 174 185 q 305 74 253 99 q 418 49 357 49 z "},"ģ":{"ha":849,"x_min":60,"x_max":742,"o":"m 446 874 l 397 896 l 482 1014 l 563 1014 l 446 874 m 401 -11 q 264 20 326 -11 q 156 103 201 51 q 85 222 110 156 q 60 360 60 289 q 84 501 60 433 q 153 622 108 569 q 259 704 197 674 q 394 735 321 735 q 559 685 489 735 q 679 565 629 636 l 679 722 l 742 722 l 742 -14 q 714 -143 742 -87 q 640 -235 686 -199 q 531 -291 593 -272 q 401 -310 469 -310 q 289 -298 339 -310 q 201 -265 239 -286 q 133 -212 163 -243 q 81 -143 103 -181 l 128 -111 q 244 -219 171 -185 q 401 -253 318 -253 q 506 -237 457 -253 q 592 -192 556 -222 q 651 -118 629 -162 q 672 -14 672 -74 l 672 144 q 554 32 628 75 q 401 -11 481 -11 m 418 49 q 507 66 464 49 q 585 111 550 83 q 644 174 621 139 q 672 243 668 208 l 672 481 q 628 558 656 522 q 565 618 600 593 q 488 658 529 643 q 406 672 447 672 q 289 644 340 672 q 202 572 238 617 q 148 472 167 528 q 129 358 129 415 q 151 240 129 296 q 213 142 174 185 q 305 74 253 99 q 418 49 357 49 z "},"ġ":{"ha":849,"x_min":60,"x_max":742,"o":"m 401 -11 q 264 20 326 -11 q 156 103 201 51 q 85 222 110 156 q 60 360 60 289 q 84 501 60 433 q 153 622 108 569 q 259 704 197 674 q 394 735 321 735 q 559 685 489 735 q 679 565 629 636 l 679 722 l 742 722 l 742 -14 q 714 -143 742 -87 q 640 -235 686 -199 q 531 -291 593 -272 q 401 -310 469 -310 q 289 -298 339 -310 q 201 -265 239 -286 q 133 -212 163 -243 q 81 -143 103 -181 l 128 -111 q 244 -219 171 -185 q 401 -253 318 -253 q 506 -237 457 -253 q 592 -192 556 -222 q 651 -118 629 -162 q 672 -14 672 -74 l 672 144 q 554 32 628 75 q 401 -11 481 -11 m 418 49 q 507 66 464 49 q 585 111 550 83 q 644 174 621 139 q 672 243 668 208 l 672 481 q 628 558 656 522 q 565 618 600 593 q 488 658 529 643 q 406 672 447 672 q 289 644 340 672 q 202 572 238 617 q 148 472 167 528 q 129 358 129 415 q 151 240 129 296 q 213 142 174 185 q 305 74 253 99 q 418 49 357 49 m 414 889 l 414 1014 l 478 1014 l 478 889 l 414 889 z "},"ß":{"ha":763,"x_min":107,"x_max":704,"o":"m 324 56 q 550 117 468 58 q 632 289 632 175 q 614 385 632 342 q 563 459 596 428 q 483 507 529 490 q 381 524 436 524 l 356 524 l 356 589 l 379 589 q 453 601 419 589 q 513 637 488 614 q 551 691 538 660 q 565 760 565 722 q 550 830 565 799 q 509 883 535 861 q 448 917 483 906 q 374 929 413 929 q 288 912 325 929 q 226 865 251 894 q 187 793 200 835 q 174 703 174 751 l 174 0 l 107 0 l 107 713 q 127 826 107 775 q 183 915 147 878 q 267 972 218 951 q 376 992 317 992 q 477 975 431 992 q 558 929 524 958 q 613 859 593 900 q 632 771 632 818 q 619 699 632 733 q 586 635 607 664 q 538 587 565 607 q 478 560 510 567 q 645 463 586 536 q 704 285 704 390 q 602 72 704 147 q 324 -8 500 -3 l 324 56 z "},">":{"ha":701,"x_min":74,"x_max":654,"o":"m 654 338 l 74 -10 l 74 67 l 554 360 l 74 653 l 74 728 l 654 379 l 654 338 z "},"«":{"ha":775,"x_min":64,"x_max":683,"o":"m 64 379 l 404 622 l 404 560 l 122 360 l 404 161 l 404 99 l 64 338 l 64 379 m 344 379 l 683 622 l 683 560 l 403 360 l 683 161 l 683 99 l 344 338 l 344 379 z "},"»":{"ha":775,"x_min":92,"x_max":711,"o":"m 711 338 l 372 99 l 372 161 l 653 360 l 372 560 l 372 622 l 711 379 l 711 338 m 431 338 l 92 99 l 92 161 l 372 360 l 92 560 l 92 622 l 431 379 l 431 338 z "},"‹":{"ha":494,"x_min":64,"x_max":404,"o":"m 64 379 l 404 622 l 404 560 l 122 360 l 404 161 l 404 99 l 64 338 l 64 379 z "},"›":{"ha":494,"x_min":92,"x_max":431,"o":"m 431 338 l 92 99 l 92 161 l 372 360 l 92 560 l 92 622 l 431 379 l 431 338 z "},"h":{"ha":796,"x_min":107,"x_max":697,"o":"m 697 0 l 628 0 l 628 403 q 582 604 628 538 q 449 671 536 671 q 361 654 404 671 q 281 607 318 638 q 217 535 244 576 q 176 447 189 494 l 176 0 l 107 0 l 107 1014 l 176 1014 l 176 550 q 299 685 221 635 q 468 735 378 735 q 571 713 528 735 q 642 649 614 690 q 684 548 671 607 q 697 415 697 489 l 697 0 z "},"ħ":{"ha":796,"x_min":15,"x_max":697,"o":"m 697 0 l 628 0 l 628 403 q 582 604 628 538 q 449 671 536 671 q 361 654 404 671 q 281 607 318 638 q 217 535 244 576 q 176 447 189 494 l 176 0 l 107 0 l 107 865 l 15 865 l 15 915 l 107 915 l 107 1014 l 176 1014 l 176 915 l 349 915 l 349 865 l 176 865 l 176 550 q 299 685 221 635 q 468 735 378 735 q 571 713 528 735 q 642 649 614 690 q 684 548 671 607 q 697 415 697 489 l 697 0 z "},"ĥ":{"ha":796,"x_min":107,"x_max":697,"o":"m 294 900 l 422 1013 l 472 1013 l 603 900 l 563 876 l 449 964 l 335 876 l 294 900 m 697 0 l 628 0 l 628 403 q 582 604 628 538 q 449 671 536 671 q 361 654 404 671 q 281 607 318 638 q 217 535 244 576 q 176 447 189 494 l 176 0 l 107 0 l 107 1014 l 176 1014 l 176 550 q 299 685 221 635 q 468 735 378 735 q 571 713 528 735 q 642 649 614 690 q 684 548 671 607 q 697 415 697 489 l 697 0 z "},"-":{"ha":589,"x_min":94,"x_max":494,"o":"m 94 346 l 94 410 l 494 410 l 494 346 l 94 346 z "},"i":{"ha":283,"x_min":107,"x_max":176,"o":"m 107 0 l 107 722 l 176 722 l 176 0 l 107 0 m 107 886 l 107 1014 l 176 1014 l 176 886 l 107 886 z "},"í":{"ha":283,"x_min":92,"x_max":257,"o":"m 140 874 l 92 896 l 176 1014 l 257 1014 l 140 874 m 107 0 l 107 722 l 176 722 l 176 0 l 107 0 z "},"ĭ":{"ha":283,"x_min":18,"x_max":265,"o":"m 107 0 l 107 722 l 176 722 l 176 0 l 107 0 m 142 925 q 192 951 169 925 q 219 1014 215 976 l 265 1014 q 256 964 265 988 q 228 923 246 940 q 189 896 211 906 q 142 886 167 886 q 94 896 117 886 q 54 923 71 906 q 28 964 38 940 q 18 1014 18 988 l 64 1014 q 88 952 64 979 q 142 925 111 925 z "},"î":{"ha":283,"x_min":-18,"x_max":301,"o":"m -18 901 l 115 1014 l 167 1014 l 301 901 l 260 878 l 142 965 l 24 878 l -18 901 m 107 0 l 107 722 l 176 722 l 176 0 l 107 0 z "},"ï":{"ha":283,"x_min":17,"x_max":267,"o":"m 17 889 l 17 1011 l 78 1011 l 78 889 l 17 889 m 206 889 l 206 1011 l 267 1011 l 267 889 l 206 889 m 107 0 l 107 722 l 176 722 l 176 0 l 107 0 z "},"ì":{"ha":283,"x_min":25,"x_max":190,"o":"m 107 0 l 107 722 l 176 722 l 176 0 l 107 0 m 25 1014 l 104 1014 l 190 896 l 143 874 l 25 1014 z "},"ĳ":{"ha":565,"x_min":106,"x_max":460,"o":"m 107 0 l 107 722 l 176 722 l 176 0 l 107 0 m 107 886 l 107 1014 l 176 1014 l 176 886 l 107 886 m 257 -246 q 174 -234 213 -246 q 106 -194 136 -222 l 143 -149 q 194 -175 167 -168 q 250 -182 222 -182 q 301 -172 276 -182 q 346 -142 326 -161 q 378 -98 365 -124 q 390 -42 390 -72 l 390 722 l 460 722 l 460 -39 q 442 -122 460 -85 q 396 -187 425 -160 q 331 -231 367 -215 q 257 -246 294 -246 m 390 886 l 390 1014 l 460 1014 l 460 886 l 390 886 z "},"j":{"ha":283,"x_min":-178,"x_max":176,"o":"m -26 -246 q -109 -234 -71 -246 q -178 -194 -147 -222 l -140 -149 q -89 -175 -117 -168 q -33 -182 -61 -182 q 18 -172 -7 -182 q 63 -142 43 -161 q 94 -98 82 -124 q 107 -42 107 -72 l 107 722 l 176 722 l 176 -39 q 159 -122 176 -85 q 113 -187 142 -160 q 47 -231 83 -215 q -26 -246 11 -246 m 107 886 l 107 1014 l 176 1014 l 176 886 l 107 886 z "},"ī":{"ha":283,"x_min":-56,"x_max":340,"o":"m 107 0 l 107 722 l 176 722 l 176 0 l 107 0 m -56 933 l -56 985 l 340 985 l 340 933 l -56 933 z "},"į":{"ha":285,"x_min":17,"x_max":178,"o":"m 110 -235 q 41 -200 65 -225 q 17 -140 17 -175 q 41 -72 17 -106 q 118 0 65 -37 l 108 0 l 108 722 l 178 722 l 178 0 q 90 -69 115 -40 q 64 -131 64 -99 q 132 -193 64 -183 l 110 -235 m 108 886 l 108 1014 l 178 1014 l 178 886 l 108 886 z "},"ĩ":{"ha":283,"x_min":-67,"x_max":354,"o":"m 107 0 l 107 722 l 176 722 l 176 0 l 107 0 m 226 899 q 172 907 196 899 q 129 926 149 915 q 91 945 110 936 q 51 954 72 954 q 14 944 28 954 q -7 923 0 935 q -17 901 -14 911 q -19 888 -19 890 l -67 888 q -62 912 -67 893 q -45 951 -58 931 q -9 987 -32 971 q 51 1003 14 1003 q 101 994 79 1003 q 142 974 122 985 q 181 956 161 964 q 228 947 201 947 q 272 957 256 947 q 295 978 288 967 q 305 1001 303 990 q 307 1014 307 1011 l 354 1014 q 349 988 354 1007 q 331 950 344 969 q 293 915 318 931 q 226 899 268 899 z "},"ĵ":{"ha":283,"x_min":-178,"x_max":301,"o":"m -26 -246 q -109 -234 -71 -246 q -178 -194 -147 -222 l -140 -149 q -89 -175 -117 -168 q -33 -182 -61 -182 q 18 -172 -7 -182 q 63 -142 43 -161 q 94 -98 82 -124 q 107 -42 107 -72 l 107 722 l 176 722 l 176 -39 q 159 -122 176 -85 q 113 -187 142 -160 q 47 -231 83 -215 q -26 -246 11 -246 m -18 901 l 115 1014 l 167 1014 l 301 901 l 260 878 l 142 965 l 24 878 l -18 901 z "},"k":{"ha":721,"x_min":107,"x_max":706,"o":"m 629 0 l 347 386 l 176 229 l 176 0 l 107 0 l 107 1014 l 176 1014 l 176 306 l 615 721 l 696 721 l 393 428 l 706 0 l 629 0 z "},"ķ":{"ha":721,"x_min":107,"x_max":706,"o":"m 319 -179 q 344 -157 344 -179 l 344 -68 l 406 -68 l 406 -157 q 382 -206 406 -193 q 319 -219 358 -219 l 319 -179 m 629 0 l 347 386 l 176 229 l 176 0 l 107 0 l 107 1014 l 176 1014 l 176 306 l 615 721 l 696 721 l 393 428 l 706 0 l 629 0 z "},"ĸ":{"ha":721,"x_min":107,"x_max":706,"o":"m 629 0 l 347 386 l 176 229 l 176 0 l 107 0 l 107 722 l 176 722 l 176 306 l 615 721 l 696 721 l 393 428 l 706 0 l 629 0 z "},"l":{"ha":346,"x_min":111,"x_max":358,"o":"m 111 1014 l 182 1014 l 182 143 q 205 79 182 103 q 268 56 228 56 q 305 59 283 56 q 344 69 326 63 l 358 14 q 300 -2 335 4 q 240 -8 265 -8 q 147 27 182 -8 q 111 122 111 63 l 111 1014 z "},"ĺ":{"ha":346,"x_min":85,"x_max":358,"o":"m 133 1076 l 85 1099 l 169 1217 l 250 1217 l 133 1076 m 111 1014 l 182 1014 l 182 143 q 205 79 182 103 q 268 56 228 56 q 305 59 283 56 q 344 69 326 63 l 358 14 q 300 -2 335 4 q 240 -8 265 -8 q 147 27 182 -8 q 111 122 111 63 l 111 1014 z "},"ľ":{"ha":346,"x_min":111,"x_max":413,"o":"m 296 874 l 247 896 l 332 1014 l 413 1014 l 296 874 m 111 1014 l 182 1014 l 182 143 q 205 79 182 103 q 268 56 228 56 q 305 59 283 56 q 344 69 326 63 l 358 14 q 300 -2 335 4 q 240 -8 265 -8 q 147 27 182 -8 q 111 122 111 63 l 111 1014 z "},"ļ":{"ha":346,"x_min":111,"x_max":358,"o":"m 176 -179 q 201 -157 201 -179 l 201 -68 l 263 -68 l 263 -157 q 239 -206 263 -193 q 176 -219 215 -219 l 176 -179 m 111 1014 l 182 1014 l 182 143 q 205 79 182 103 q 268 56 228 56 q 305 59 283 56 q 344 69 326 63 l 358 14 q 300 -2 335 4 q 240 -8 265 -8 q 147 27 182 -8 q 111 122 111 63 l 111 1014 z "},"ŀ":{"ha":403,"x_min":111,"x_max":379,"o":"m 111 1014 l 182 1014 l 182 143 q 205 79 182 103 q 268 56 228 56 q 305 59 283 56 q 344 69 326 63 l 358 14 q 300 -2 335 4 q 240 -8 265 -8 q 147 27 182 -8 q 111 122 111 63 l 111 1014 m 318 360 l 318 500 l 379 500 l 379 360 l 318 360 z "},"<":{"ha":701,"x_min":47,"x_max":628,"o":"m 47 379 l 628 728 l 628 653 l 149 360 l 628 67 l 628 -10 l 47 338 l 47 379 z "},"¬":{"ha":808,"x_min":115,"x_max":707,"o":"m 707 492 l 707 182 l 644 182 l 644 428 l 115 428 l 115 492 l 707 492 z "},"ł":{"ha":371,"x_min":13,"x_max":379,"o":"m 132 489 l 39 410 l 13 450 l 132 553 l 132 1014 l 203 1014 l 203 614 l 328 722 l 356 681 l 203 550 l 203 143 q 226 79 203 103 q 289 56 249 56 q 326 59 304 56 q 365 69 347 63 l 379 14 q 321 -2 356 4 q 261 -8 286 -8 q 167 27 203 -8 q 132 122 132 63 l 132 489 z "},"m":{"ha":1267,"x_min":107,"x_max":1168,"o":"m 1168 0 l 1099 0 l 1099 403 q 1056 606 1099 540 q 926 671 1014 671 q 840 654 881 671 q 767 608 800 638 q 710 537 735 578 q 672 446 686 496 l 672 0 l 603 0 l 603 403 q 561 606 603 542 q 432 671 519 671 q 347 655 388 671 q 274 609 307 639 q 215 538 240 579 q 176 447 190 497 l 176 0 l 107 0 l 107 722 l 171 722 l 171 550 q 289 686 217 638 q 449 735 361 735 q 597 681 540 735 q 664 539 653 626 q 947 735 769 735 q 1117 651 1067 735 q 1168 415 1168 567 l 1168 0 z "},"−":{"ha":761,"x_min":100,"x_max":660,"o":"m 100 368 l 100 426 l 660 426 l 660 368 l 100 368 z "},"µ":{"ha":817,"x_min":115,"x_max":747,"o":"m 115 722 l 185 722 l 185 315 q 368 49 185 49 q 457 65 414 49 q 538 109 500 81 q 603 178 575 138 q 649 267 632 218 l 649 722 l 718 722 l 718 97 q 747 63 718 63 l 747 0 q 733 -1 739 -1 q 722 -1 728 -1 q 675 16 694 -1 q 656 61 656 33 l 656 171 q 604 97 635 131 q 535 38 574 63 q 454 0 497 14 q 365 -14 411 -14 q 249 20 294 -14 q 182 114 204 54 l 182 -294 l 115 -294 l 115 722 z "},"×":{"ha":636,"x_min":97,"x_max":539,"o":"m 539 201 l 493 157 l 318 332 l 142 157 l 97 203 l 271 376 l 97 553 l 143 597 l 318 422 l 493 599 l 538 553 l 363 376 l 539 201 z "},"n":{"ha":796,"x_min":107,"x_max":697,"o":"m 697 0 l 628 0 l 628 403 q 588 607 628 543 q 461 671 549 671 q 370 654 415 671 q 287 607 325 638 q 219 535 249 576 q 176 447 190 494 l 176 0 l 107 0 l 107 722 l 171 722 l 171 550 q 226 626 193 592 q 300 684 260 660 q 387 722 340 708 q 482 735 433 735 q 649 652 600 735 q 697 415 697 569 l 697 0 z "},"ń":{"ha":796,"x_min":107,"x_max":697,"o":"m 400 874 l 351 896 l 436 1014 l 517 1014 l 400 874 m 697 0 l 628 0 l 628 403 q 588 607 628 543 q 461 671 549 671 q 370 654 415 671 q 287 607 325 638 q 219 535 249 576 q 176 447 190 494 l 176 0 l 107 0 l 107 722 l 171 722 l 171 550 q 226 626 193 592 q 300 684 260 660 q 387 722 340 708 q 482 735 433 735 q 649 652 600 735 q 697 415 697 569 l 697 0 z "},"ŉ":{"ha":796,"x_min":0,"x_max":697,"o":"m 47 874 l 0 896 l 54 971 l 54 1014 l 165 1014 l 47 874 m 697 0 l 628 0 l 628 403 q 588 607 628 543 q 461 671 549 671 q 370 654 415 671 q 287 607 325 638 q 219 535 249 576 q 176 447 190 494 l 176 0 l 107 0 l 107 722 l 171 722 l 171 550 q 226 626 193 592 q 300 684 260 660 q 387 722 340 708 q 482 735 433 735 q 649 652 600 735 q 697 415 697 569 l 697 0 z "},"ň":{"ha":796,"x_min":107,"x_max":697,"o":"m 283 1014 l 401 926 l 519 1014 l 561 990 l 426 878 l 375 878 l 242 990 l 283 1014 m 697 0 l 628 0 l 628 403 q 588 607 628 543 q 461 671 549 671 q 370 654 415 671 q 287 607 325 638 q 219 535 249 576 q 176 447 190 494 l 176 0 l 107 0 l 107 722 l 171 722 l 171 550 q 226 626 193 592 q 300 684 260 660 q 387 722 340 708 q 482 735 433 735 q 649 652 600 735 q 697 415 697 569 l 697 0 z "},"ņ":{"ha":796,"x_min":107,"x_max":697,"o":"m 339 -179 q 364 -157 364 -179 l 364 -68 l 425 -68 l 425 -157 q 401 -206 425 -193 q 339 -219 378 -219 l 339 -179 m 697 0 l 628 0 l 628 403 q 588 607 628 543 q 461 671 549 671 q 370 654 415 671 q 287 607 325 638 q 219 535 249 576 q 176 447 190 494 l 176 0 l 107 0 l 107 722 l 171 722 l 171 550 q 226 626 193 592 q 300 684 260 660 q 387 722 340 708 q 482 735 433 735 q 649 652 600 735 q 697 415 697 569 l 697 0 z "},"ṅ":{"ha":796,"x_min":107,"x_max":697,"o":"m 368 889 l 368 1014 l 432 1014 l 432 889 l 368 889 m 697 0 l 628 0 l 628 403 q 588 607 628 543 q 461 671 549 671 q 370 654 415 671 q 287 607 325 638 q 219 535 249 576 q 176 447 190 494 l 176 0 l 107 0 l 107 722 l 171 722 l 171 550 q 226 626 193 592 q 300 684 260 660 q 387 722 340 708 q 482 735 433 735 q 649 652 600 735 q 697 415 697 569 l 697 0 z "},"₉":{"ha":556,"x_min":49,"x_max":497,"o":"m 49 363 q 66 435 49 401 q 113 495 83 469 q 184 535 143 521 q 271 550 225 550 q 362 534 321 550 q 433 489 403 518 q 481 417 464 460 q 497 322 497 375 q 433 74 497 154 q 265 -7 369 -7 q 153 19 203 -7 q 79 94 103 46 l 113 125 q 172 62 131 85 q 267 39 214 39 q 399 101 349 39 q 450 276 449 164 q 378 205 429 232 q 267 178 328 178 q 181 192 221 178 q 112 232 142 207 q 65 290 82 257 q 49 363 49 324 m 269 506 q 202 494 233 506 q 148 464 171 483 q 111 419 125 444 q 97 364 97 393 q 111 309 97 335 q 149 263 125 283 q 203 232 172 243 q 271 221 235 221 q 338 232 307 221 q 393 263 369 243 q 431 308 417 282 q 444 363 444 333 q 431 417 444 392 q 393 463 417 443 q 338 494 369 482 q 269 506 306 506 z "},"⁹":{"ha":556,"x_min":49,"x_max":497,"o":"m 49 826 q 66 899 49 865 q 113 959 83 933 q 184 999 143 985 q 271 1014 225 1014 q 362 998 321 1014 q 433 953 403 982 q 481 881 464 924 q 497 786 497 839 q 433 537 497 618 q 265 456 369 456 q 153 483 203 456 q 79 558 103 510 l 113 588 q 172 525 131 549 q 267 501 214 501 q 399 564 349 501 q 450 740 449 626 q 378 668 429 696 q 267 640 328 640 q 181 655 221 640 q 112 694 142 669 q 65 753 82 719 q 49 826 49 788 m 269 968 q 202 957 233 968 q 148 926 171 946 q 111 882 125 907 q 97 828 97 857 q 111 773 97 799 q 149 727 125 747 q 203 696 172 707 q 271 685 235 685 q 338 696 307 685 q 393 726 369 707 q 431 772 417 746 q 444 826 444 797 q 431 881 444 856 q 393 926 417 907 q 338 957 369 946 q 269 968 306 968 z "},"ñ":{"ha":796,"x_min":107,"x_max":697,"o":"m 697 0 l 628 0 l 628 403 q 588 607 628 543 q 461 671 549 671 q 370 654 415 671 q 287 607 325 638 q 219 535 249 576 q 176 447 190 494 l 176 0 l 107 0 l 107 722 l 171 722 l 171 550 q 226 626 193 592 q 300 684 260 660 q 387 722 340 708 q 482 735 433 735 q 649 652 600 735 q 697 415 697 569 l 697 0 m 486 899 q 432 907 456 899 q 389 926 408 915 q 351 945 369 936 q 311 954 332 954 q 274 944 288 954 q 253 923 260 935 q 243 901 246 911 q 240 888 240 890 l 193 888 q 197 912 193 893 q 215 951 201 931 q 251 987 228 971 q 311 1003 274 1003 q 360 994 339 1003 q 401 974 382 985 q 441 956 421 964 q 488 947 461 947 q 531 957 515 947 q 555 978 547 967 q 565 1001 563 990 q 567 1014 567 1011 l 614 1014 q 609 988 614 1007 q 591 950 604 969 q 553 915 578 931 q 486 899 528 899 z "},"#":{"ha":935,"x_min":56,"x_max":881,"o":"m 881 647 l 706 647 l 635 351 l 822 351 l 822 294 l 621 294 l 550 0 l 489 0 l 561 294 l 272 294 l 201 0 l 140 0 l 213 294 l 56 294 l 56 351 l 226 351 l 297 647 l 114 647 l 114 701 l 311 701 l 381 986 l 442 986 l 371 701 l 660 701 l 729 986 l 790 986 l 719 701 l 881 701 l 881 647 m 575 351 l 647 647 l 357 647 l 286 351 l 575 351 z "},"o":{"ha":822,"x_min":58,"x_max":765,"o":"m 411 -14 q 270 16 335 -14 q 158 97 206 46 q 85 217 111 149 q 58 360 58 285 q 85 504 58 436 q 160 624 113 572 q 272 705 208 675 q 411 735 336 735 q 551 705 486 735 q 663 624 615 675 q 738 504 711 572 q 765 360 765 436 q 738 217 765 285 q 664 97 711 149 q 551 16 617 46 q 411 -14 486 -14 m 129 357 q 151 237 129 293 q 212 139 174 181 q 301 73 250 97 q 411 49 353 49 q 521 73 469 49 q 610 140 572 97 q 672 240 649 183 q 694 361 694 296 q 672 481 694 425 q 610 580 649 538 q 521 647 572 622 q 411 672 469 672 q 303 647 354 672 q 213 579 251 622 q 151 478 174 536 q 129 357 129 421 z "},"ó":{"ha":822,"x_min":58,"x_max":765,"o":"m 410 874 l 361 896 l 446 1014 l 526 1014 l 410 874 m 411 -14 q 270 16 335 -14 q 158 97 206 46 q 85 217 111 149 q 58 360 58 285 q 85 504 58 436 q 160 624 113 572 q 272 705 208 675 q 411 735 336 735 q 551 705 486 735 q 663 624 615 675 q 738 504 711 572 q 765 360 765 436 q 738 217 765 285 q 664 97 711 149 q 551 16 617 46 q 411 -14 486 -14 m 129 357 q 151 237 129 293 q 212 139 174 181 q 301 73 250 97 q 411 49 353 49 q 521 73 469 49 q 610 140 572 97 q 672 240 649 183 q 694 361 694 296 q 672 481 694 425 q 610 580 649 538 q 521 647 572 622 q 411 672 469 672 q 303 647 354 672 q 213 579 251 622 q 151 478 174 536 q 129 357 129 421 z "},"ŏ":{"ha":822,"x_min":58,"x_max":765,"o":"m 411 -14 q 270 16 335 -14 q 158 97 206 46 q 85 217 111 149 q 58 360 58 285 q 85 504 58 436 q 160 624 113 572 q 272 705 208 675 q 411 735 336 735 q 551 705 486 735 q 663 624 615 675 q 738 504 711 572 q 765 360 765 436 q 738 217 765 285 q 664 97 711 149 q 551 16 617 46 q 411 -14 486 -14 m 129 357 q 151 237 129 293 q 212 139 174 181 q 301 73 250 97 q 411 49 353 49 q 521 73 469 49 q 610 140 572 97 q 672 240 649 183 q 694 361 694 296 q 672 481 694 425 q 610 580 649 538 q 521 647 572 622 q 411 672 469 672 q 303 647 354 672 q 213 579 251 622 q 151 478 174 536 q 129 357 129 421 m 413 925 q 463 951 440 925 q 490 1014 486 976 l 536 1014 q 526 964 536 988 q 499 923 517 940 q 460 896 482 906 q 413 886 438 886 q 365 896 388 886 q 325 923 342 906 q 299 964 308 940 q 289 1014 289 988 l 335 1014 q 358 952 335 979 q 413 925 382 925 z "},"ô":{"ha":822,"x_min":58,"x_max":765,"o":"m 251 901 l 385 1014 l 436 1014 l 571 901 l 529 878 l 411 965 l 293 878 l 251 901 m 411 -14 q 270 16 335 -14 q 158 97 206 46 q 85 217 111 149 q 58 360 58 285 q 85 504 58 436 q 160 624 113 572 q 272 705 208 675 q 411 735 336 735 q 551 705 486 735 q 663 624 615 675 q 738 504 711 572 q 765 360 765 436 q 738 217 765 285 q 664 97 711 149 q 551 16 617 46 q 411 -14 486 -14 m 129 357 q 151 237 129 293 q 212 139 174 181 q 301 73 250 97 q 411 49 353 49 q 521 73 469 49 q 610 140 572 97 q 672 240 649 183 q 694 361 694 296 q 672 481 694 425 q 610 580 649 538 q 521 647 572 622 q 411 672 469 672 q 303 647 354 672 q 213 579 251 622 q 151 478 174 536 q 129 357 129 421 z "},"ö":{"ha":822,"x_min":58,"x_max":765,"o":"m 286 889 l 286 1011 l 347 1011 l 347 889 l 286 889 m 475 889 l 475 1011 l 536 1011 l 536 889 l 475 889 m 411 -14 q 270 16 335 -14 q 158 97 206 46 q 85 217 111 149 q 58 360 58 285 q 85 504 58 436 q 160 624 113 572 q 272 705 208 675 q 411 735 336 735 q 551 705 486 735 q 663 624 615 675 q 738 504 711 572 q 765 360 765 436 q 738 217 765 285 q 664 97 711 149 q 551 16 617 46 q 411 -14 486 -14 m 129 357 q 151 237 129 293 q 212 139 174 181 q 301 73 250 97 q 411 49 353 49 q 521 73 469 49 q 610 140 572 97 q 672 240 649 183 q 694 361 694 296 q 672 481 694 425 q 610 580 649 538 q 521 647 572 622 q 411 672 469 672 q 303 647 354 672 q 213 579 251 622 q 151 478 174 536 q 129 357 129 421 z "},"œ":{"ha":1447,"x_min":60,"x_max":1401,"o":"m 410 -14 q 272 15 336 -14 q 161 94 208 44 q 87 213 114 144 q 60 358 60 281 q 87 506 60 438 q 162 625 114 574 q 274 706 210 676 q 414 735 339 735 q 518 717 468 735 q 608 668 568 700 q 680 591 649 636 q 728 490 711 546 q 848 670 764 606 q 1049 735 932 735 q 1190 706 1125 735 q 1301 625 1254 678 q 1375 499 1349 572 q 1401 333 1401 425 l 768 333 q 798 219 772 272 q 863 127 824 167 q 956 65 903 88 q 1067 42 1008 42 q 1143 52 1106 42 q 1212 81 1181 63 q 1267 124 1243 99 q 1303 181 1290 150 l 1363 164 q 1315 91 1346 124 q 1245 35 1285 58 q 1158 -1 1206 13 q 1063 -14 1111 -14 q 958 3 1008 -14 q 863 53 907 21 q 785 131 819 86 q 731 229 751 175 q 677 128 710 174 q 603 52 644 83 q 513 3 563 21 q 410 -14 464 -14 m 411 49 q 522 73 471 49 q 612 139 574 97 q 672 238 650 181 q 694 360 694 294 q 672 482 694 425 q 613 581 650 539 q 524 648 575 624 q 414 672 472 672 q 303 647 356 672 q 213 579 251 622 q 153 478 175 536 q 131 356 131 421 q 153 235 131 290 q 213 138 175 179 q 301 72 250 96 q 411 49 353 49 m 1333 385 q 1306 503 1329 449 q 1244 596 1282 557 q 1155 656 1206 635 q 1047 678 1104 678 q 940 656 990 678 q 853 594 890 633 q 792 502 815 556 q 767 385 769 449 l 1333 385 z "},"ò":{"ha":822,"x_min":58,"x_max":765,"o":"m 411 -14 q 270 16 335 -14 q 158 97 206 46 q 85 217 111 149 q 58 360 58 285 q 85 504 58 436 q 160 624 113 572 q 272 705 208 675 q 411 735 336 735 q 551 705 486 735 q 663 624 615 675 q 738 504 711 572 q 765 360 765 436 q 738 217 765 285 q 664 97 711 149 q 551 16 617 46 q 411 -14 486 -14 m 129 357 q 151 237 129 293 q 212 139 174 181 q 301 73 250 97 q 411 49 353 49 q 521 73 469 49 q 610 140 572 97 q 672 240 649 183 q 694 361 694 296 q 672 481 694 425 q 610 580 649 538 q 521 647 572 622 q 411 672 469 672 q 303 647 354 672 q 213 579 251 622 q 151 478 174 536 q 129 357 129 421 m 296 1014 l 375 1014 l 461 896 l 414 874 l 296 1014 z "},"ő":{"ha":822,"x_min":58,"x_max":765,"o":"m 324 874 l 283 896 l 365 1014 l 439 1014 l 324 874 m 485 874 l 443 896 l 526 1014 l 600 1014 l 485 874 m 411 -14 q 270 16 335 -14 q 158 97 206 46 q 85 217 111 149 q 58 360 58 285 q 85 504 58 436 q 160 624 113 572 q 272 705 208 675 q 411 735 336 735 q 551 705 486 735 q 663 624 615 675 q 738 504 711 572 q 765 360 765 436 q 738 217 765 285 q 664 97 711 149 q 551 16 617 46 q 411 -14 486 -14 m 129 357 q 151 237 129 293 q 212 139 174 181 q 301 73 250 97 q 411 49 353 49 q 521 73 469 49 q 610 140 572 97 q 672 240 649 183 q 694 361 694 296 q 672 481 694 425 q 610 580 649 538 q 521 647 572 622 q 411 672 469 672 q 303 647 354 672 q 213 579 251 622 q 151 478 174 536 q 129 357 129 421 z "},"ō":{"ha":822,"x_min":58,"x_max":765,"o":"m 214 933 l 214 985 l 610 985 l 610 933 l 214 933 m 411 -14 q 270 16 335 -14 q 158 97 206 46 q 85 217 111 149 q 58 360 58 285 q 85 504 58 436 q 160 624 113 572 q 272 705 208 675 q 411 735 336 735 q 551 705 486 735 q 663 624 615 675 q 738 504 711 572 q 765 360 765 436 q 738 217 765 285 q 664 97 711 149 q 551 16 617 46 q 411 -14 486 -14 m 129 357 q 151 237 129 293 q 212 139 174 181 q 301 73 250 97 q 411 49 353 49 q 521 73 469 49 q 610 140 572 97 q 672 240 649 183 q 694 361 694 296 q 672 481 694 425 q 610 580 649 538 q 521 647 572 622 q 411 672 469 672 q 303 647 354 672 q 213 579 251 622 q 151 478 174 536 q 129 357 129 421 z "},"⅛":{"ha":1167,"x_min":67,"x_max":1111,"o":"m 1111 150 q 1094 87 1111 115 q 1046 38 1076 58 q 976 6 1015 17 q 892 -6 936 -6 q 805 7 844 -6 q 737 41 765 19 q 692 92 708 63 q 676 153 676 121 q 688 202 676 179 q 717 242 699 225 q 760 273 736 260 q 808 293 783 286 q 731 337 764 308 q 699 408 699 365 q 716 467 699 442 q 761 510 733 492 q 824 537 789 528 q 894 546 858 546 q 965 537 929 546 q 1027 510 1000 528 q 1072 467 1054 493 q 1089 410 1089 442 q 1056 338 1089 367 q 978 293 1024 308 q 1074 240 1036 276 q 1111 150 1111 203 m 1061 156 q 1046 203 1061 182 q 1006 240 1031 225 q 952 263 982 256 q 893 271 922 271 q 833 263 863 271 q 779 239 803 254 q 741 202 756 224 q 726 154 726 181 q 742 107 726 128 q 781 72 757 86 q 835 49 806 57 q 894 42 865 42 q 955 50 925 42 q 1008 73 985 58 q 1047 108 1032 88 q 1061 156 1061 129 m 749 406 q 762 366 749 383 q 796 337 775 349 q 842 319 817 325 q 893 313 868 313 q 944 319 918 313 q 992 338 971 325 q 1026 367 1013 350 q 1039 407 1039 385 q 1026 445 1039 428 q 994 475 1014 463 q 947 494 974 488 q 893 500 921 500 q 839 494 865 500 q 792 475 813 488 q 760 445 772 463 q 749 406 749 428 m 356 510 l 356 461 l 88 461 l 88 510 l 200 510 l 200 957 q 178 937 193 949 q 144 915 163 925 q 104 897 125 904 q 67 890 83 890 l 67 939 q 113 950 89 939 q 156 975 136 961 q 188 1001 175 989 q 200 1015 200 1014 l 250 1015 l 250 510 l 356 510 m 149 29 l 538 507 l 918 990 l 957 958 l 568 479 l 188 -4 l 149 29 z "},"¹":{"ha":368,"x_min":47,"x_max":336,"o":"m 336 510 l 336 461 l 68 461 l 68 510 l 181 510 l 181 957 q 158 937 174 949 q 124 915 143 925 q 85 897 106 904 q 47 890 64 890 l 47 939 q 93 950 69 939 q 136 975 117 961 q 168 1001 156 989 q 181 1015 181 1014 l 231 1015 l 231 510 l 336 510 z "},"½":{"ha":1174,"x_min":69,"x_max":1111,"o":"m 696 0 q 740 162 696 106 q 868 250 785 218 q 932 274 899 263 q 992 300 965 285 q 1038 338 1019 315 q 1056 394 1056 361 q 1021 472 1056 439 q 911 506 986 506 q 847 497 875 506 q 798 477 819 489 q 761 451 776 465 q 736 425 746 438 l 703 460 q 722 481 707 465 q 764 512 738 496 q 829 540 790 528 q 918 553 868 553 q 1062 506 1014 553 q 1110 393 1110 460 q 1090 321 1110 350 q 1042 272 1071 292 q 978 240 1013 253 q 915 218 944 228 q 838 180 867 201 q 793 135 808 158 q 774 90 778 113 q 769 47 769 67 l 1111 47 l 1111 0 l 696 0 m 358 510 l 358 461 l 90 461 l 90 510 l 203 510 l 203 957 q 181 937 196 949 q 147 915 165 925 q 107 897 128 904 q 69 890 86 890 l 69 939 q 115 950 92 939 q 158 975 139 961 q 190 1001 178 989 q 203 1015 203 1014 l 253 1015 l 253 510 l 358 510 m 126 29 l 515 507 l 896 990 l 935 958 l 546 479 l 165 -4 l 126 29 z "},"₂":{"ha":532,"x_min":51,"x_max":472,"o":"m 51 0 q 96 162 51 106 q 226 250 140 218 q 291 274 257 263 q 353 300 325 285 q 399 338 381 315 q 417 394 417 361 q 381 472 417 439 q 269 506 344 506 q 205 497 233 506 q 154 477 176 489 q 117 451 132 465 q 92 425 101 438 l 58 460 q 78 481 63 465 q 120 512 93 496 q 186 540 147 528 q 276 553 225 553 q 423 506 375 553 q 471 393 471 460 q 451 321 471 350 q 401 272 431 292 q 338 240 372 253 q 274 218 303 228 q 194 180 224 201 q 150 135 165 158 q 130 90 135 113 q 125 47 125 67 l 472 47 l 472 0 l 51 0 z "},"₁":{"ha":379,"x_min":47,"x_max":350,"o":"m 350 47 l 350 0 l 68 0 l 68 47 l 188 47 l 188 496 q 164 475 181 486 q 128 453 147 464 q 87 436 108 443 q 47 429 65 429 l 47 478 q 95 489 71 478 q 140 514 119 500 q 174 540 161 528 q 188 554 188 553 l 238 554 l 238 47 l 350 47 z "},"¼":{"ha":1115,"x_min":64,"x_max":1060,"o":"m 932 0 l 932 147 l 613 147 l 613 192 l 946 546 l 981 546 l 981 194 l 1060 194 l 1060 147 l 981 147 l 981 0 l 932 0 m 668 194 l 932 194 l 932 475 l 668 194 m 353 510 l 353 461 l 85 461 l 85 510 l 197 510 l 197 957 q 175 937 190 949 q 141 915 160 925 q 101 897 122 904 q 64 890 81 890 l 64 939 q 110 950 86 939 q 153 975 133 961 q 185 1001 172 989 q 197 1015 197 1014 l 247 1015 l 247 510 l 353 510 m 171 29 l 560 507 l 940 990 l 979 958 l 590 479 l 210 -4 l 171 29 z "},"⅓":{"ha":1168,"x_min":68,"x_max":1111,"o":"m 894 -7 q 749 28 807 -7 q 682 121 690 63 l 714 149 q 729 110 715 129 q 767 75 743 90 q 823 51 790 60 q 893 42 856 42 q 1013 71 964 42 q 1061 147 1061 100 q 1005 228 1061 199 q 854 257 949 257 l 822 257 l 822 301 l 854 301 q 992 326 943 301 q 1042 400 1042 351 q 997 478 1042 449 q 886 508 951 508 q 785 486 828 508 q 724 428 743 464 l 689 464 q 767 528 713 504 q 886 553 821 553 q 969 541 931 553 q 1035 509 1007 529 q 1078 462 1063 489 q 1094 403 1094 435 q 969 281 1094 308 q 1073 232 1035 271 q 1111 140 1111 193 q 1094 79 1111 107 q 1047 33 1076 51 q 978 3 1018 14 q 894 -7 939 -7 m 357 510 l 357 461 l 89 461 l 89 510 l 201 510 l 201 957 q 179 937 194 949 q 145 915 164 925 q 106 897 126 904 q 68 890 85 890 l 68 939 q 114 950 90 939 q 157 975 138 961 q 189 1001 176 989 q 201 1015 201 1014 l 251 1015 l 251 510 l 357 510 m 132 29 l 521 507 l 901 990 l 940 958 l 551 479 l 171 -4 l 132 29 z "},"₃":{"ha":539,"x_min":53,"x_max":482,"o":"m 265 -7 q 119 28 178 -7 q 53 121 61 63 l 85 149 q 100 110 86 129 q 138 75 114 90 q 194 51 161 60 q 264 42 226 42 q 383 71 335 42 q 432 147 432 100 q 376 228 432 199 q 225 257 319 257 l 193 257 l 193 301 l 225 301 q 363 326 314 301 q 413 400 413 351 q 367 478 413 449 q 257 508 322 508 q 156 486 199 508 q 94 428 114 464 l 60 464 q 138 528 83 504 q 257 553 192 553 q 340 541 301 553 q 406 509 378 529 q 449 462 433 489 q 465 403 465 435 q 340 281 465 308 q 444 232 406 271 q 482 140 482 193 q 465 79 482 107 q 418 33 447 51 q 349 3 389 14 q 265 -7 310 -7 z "},"ǫ":{"ha":825,"x_min":60,"x_max":767,"o":"m 392 -244 q 323 -210 347 -235 q 299 -150 299 -185 q 322 -83 299 -115 q 394 -14 344 -50 q 260 22 321 -10 q 154 103 199 53 q 85 220 110 154 q 60 360 60 286 q 87 504 60 436 q 162 624 114 572 q 274 705 210 675 q 413 735 338 735 q 552 705 488 735 q 665 624 617 675 q 740 504 713 572 q 767 360 767 436 q 744 227 767 290 q 679 114 721 164 q 581 31 638 64 q 457 -11 524 -3 q 370 -80 394 -51 q 346 -140 346 -108 q 414 -203 346 -193 l 392 -244 m 131 357 q 153 237 131 293 q 213 139 175 181 q 303 73 251 97 q 413 49 354 49 q 522 73 471 49 q 612 140 574 97 q 673 240 650 183 q 696 361 696 296 q 673 481 696 425 q 612 580 650 538 q 522 647 574 622 q 413 672 471 672 q 304 647 356 672 q 214 579 253 622 q 153 478 175 536 q 131 357 131 421 z "},"ª":{"ha":599,"x_min":68,"x_max":514,"o":"m 232 483 q 167 495 197 483 q 115 527 138 507 q 81 575 93 547 q 68 635 68 603 q 126 741 68 700 q 275 782 183 782 q 353 776 315 782 q 424 757 392 769 l 424 800 q 386 899 424 863 q 282 936 349 936 q 124 879 208 936 l 99 922 q 288 986 196 986 q 436 935 382 986 q 490 792 490 885 l 490 579 q 514 551 490 554 l 514 492 q 503 490 508 490 q 494 490 499 490 q 451 502 467 490 q 433 538 435 514 l 432 574 q 345 506 397 529 q 232 483 293 483 m 250 536 q 312 544 281 536 q 368 567 343 553 q 408 599 393 581 q 424 638 424 617 l 424 714 q 356 733 392 728 q 285 738 321 738 q 174 710 217 738 q 132 639 132 683 q 166 565 132 594 q 250 536 200 536 z "},"º":{"ha":625,"x_min":64,"x_max":560,"o":"m 311 483 q 212 503 257 483 q 133 558 167 524 q 82 638 100 593 q 64 733 64 683 q 83 831 64 785 q 134 911 101 876 q 212 966 167 946 q 311 986 257 986 q 411 966 365 986 q 490 911 457 946 q 541 831 522 876 q 560 733 560 785 q 542 638 560 683 q 490 558 524 593 q 411 503 457 524 q 311 483 365 483 m 132 732 q 146 658 132 692 q 184 597 160 624 q 241 556 208 571 q 311 542 274 542 q 381 557 349 542 q 439 599 414 572 q 478 660 464 625 q 492 735 492 694 q 478 810 492 775 q 439 870 464 844 q 381 910 414 896 q 311 925 349 925 q 242 910 275 925 q 185 869 210 894 q 147 808 161 843 q 132 732 132 772 z "},"ø":{"ha":822,"x_min":58,"x_max":765,"o":"m 193 64 q 94 194 131 117 q 58 360 58 271 q 85 504 58 436 q 160 624 113 572 q 272 705 208 675 q 411 735 336 735 q 508 720 463 735 q 594 681 554 706 l 625 724 l 679 724 l 629 654 q 728 525 692 601 q 765 360 765 449 q 738 217 765 285 q 664 97 711 149 q 551 16 617 46 q 411 -14 486 -14 q 313 0 358 -14 q 228 39 268 14 l 199 -1 l 146 -1 l 193 64 m 129 357 q 157 222 129 283 q 232 118 185 161 l 558 625 q 489 660 526 647 q 411 672 451 672 q 303 647 354 672 q 213 579 251 622 q 151 478 174 536 q 129 357 129 421 m 411 49 q 521 73 469 49 q 610 140 572 97 q 672 240 649 183 q 694 361 694 296 q 666 494 694 432 q 590 599 638 556 l 264 93 q 333 60 296 72 q 411 49 371 49 z "},"ǿ":{"ha":822,"x_min":58,"x_max":765,"o":"m 193 64 q 94 194 131 117 q 58 360 58 271 q 85 504 58 436 q 160 624 113 572 q 272 705 208 675 q 411 735 336 735 q 508 720 463 735 q 594 681 554 706 l 625 724 l 679 724 l 629 654 q 728 525 692 601 q 765 360 765 449 q 738 217 765 285 q 664 97 711 149 q 551 16 617 46 q 411 -14 486 -14 q 313 0 358 -14 q 228 39 268 14 l 199 -1 l 146 -1 l 193 64 m 129 357 q 157 222 129 283 q 232 118 185 161 l 558 625 q 489 660 526 647 q 411 672 451 672 q 303 647 354 672 q 213 579 251 622 q 151 478 174 536 q 129 357 129 421 m 411 49 q 521 73 469 49 q 610 140 572 97 q 672 240 649 183 q 694 361 694 296 q 666 494 694 432 q 590 599 638 556 l 264 93 q 333 60 296 72 q 411 49 371 49 m 410 874 l 361 896 l 446 1014 l 526 1014 l 410 874 z "},"õ":{"ha":822,"x_min":58,"x_max":765,"o":"m 411 -14 q 270 16 335 -14 q 158 97 206 46 q 85 217 111 149 q 58 360 58 285 q 85 504 58 436 q 160 624 113 572 q 272 705 208 675 q 411 735 336 735 q 551 705 486 735 q 663 624 615 675 q 738 504 711 572 q 765 360 765 436 q 738 217 765 285 q 664 97 711 149 q 551 16 617 46 q 411 -14 486 -14 m 129 357 q 151 237 129 293 q 212 139 174 181 q 301 73 250 97 q 411 49 353 49 q 521 73 469 49 q 610 140 572 97 q 672 240 649 183 q 694 361 694 296 q 672 481 694 425 q 610 580 649 538 q 521 647 572 622 q 411 672 469 672 q 303 647 354 672 q 213 579 251 622 q 151 478 174 536 q 129 357 129 421 m 497 899 q 443 907 467 899 q 400 926 419 915 q 362 945 381 936 q 322 954 343 954 q 285 944 299 954 q 264 923 271 935 q 254 901 257 911 q 251 888 251 890 l 204 888 q 208 912 204 893 q 226 951 213 931 q 262 987 239 971 q 322 1003 285 1003 q 372 994 350 1003 q 413 974 393 985 q 452 956 432 964 q 499 947 472 947 q 542 957 526 947 q 566 978 558 967 q 576 1001 574 990 q 578 1014 578 1011 l 625 1014 q 620 988 625 1007 q 602 950 615 969 q 564 915 589 931 q 497 899 539 899 z "},"p":{"ha":849,"x_min":107,"x_max":789,"o":"m 458 -14 q 293 35 365 -14 q 176 156 221 85 l 176 -296 l 107 -296 l 107 722 l 169 722 l 169 578 q 288 691 214 647 q 444 735 361 735 q 583 703 519 735 q 692 619 646 671 q 763 499 738 567 q 789 360 789 431 q 765 217 789 285 q 698 97 742 149 q 593 16 654 46 q 458 -14 532 -14 m 443 49 q 556 75 506 49 q 643 145 607 101 q 699 245 679 189 q 718 360 718 301 q 696 478 718 422 q 635 578 674 535 q 543 647 596 621 q 431 672 490 672 q 350 656 393 672 q 269 613 307 640 q 206 551 232 586 q 176 478 181 517 l 176 240 q 221 165 193 200 q 283 104 249 131 q 359 63 318 78 q 443 49 400 49 z "},"¶":{"ha":811,"x_min":51,"x_max":756,"o":"m 51 657 q 154 899 51 813 q 443 986 257 986 l 756 986 l 756 929 l 658 929 l 658 -111 l 597 -111 l 597 329 l 485 329 l 485 -111 l 422 -111 l 422 329 q 267 353 336 331 q 151 419 199 376 q 77 521 103 461 q 51 657 51 581 m 113 658 q 138 539 113 589 q 205 456 163 489 q 303 407 247 424 q 422 388 360 390 l 422 929 q 192 856 271 928 q 113 658 113 785 m 597 929 l 485 929 l 485 388 l 597 388 l 597 929 z "},"(":{"ha":357,"x_min":65,"x_max":310,"o":"m 65 479 q 80 619 65 550 q 121 754 94 688 q 181 887 147 821 q 256 1019 215 953 l 310 992 q 247 885 279 947 q 190 754 215 824 q 147 613 164 685 q 131 475 131 540 q 178 238 131 367 q 308 -15 225 110 l 257 -46 q 116 217 167 85 q 65 479 65 349 z "},")":{"ha":357,"x_min":47,"x_max":292,"o":"m 292 479 q 241 217 292 349 q 101 -46 190 85 l 49 -15 q 179 238 132 110 q 226 475 226 367 q 210 613 226 540 q 167 754 193 685 q 109 885 140 824 q 47 992 78 947 l 101 1019 q 175 887 140 953 q 236 754 210 821 q 277 619 263 688 q 292 479 292 550 z "},"%":{"ha":981,"x_min":65,"x_max":915,"o":"m 267 607 q 188 622 225 607 q 124 664 151 638 q 81 726 97 690 q 65 803 65 763 q 81 880 65 844 q 124 942 97 915 q 188 985 151 969 q 267 1000 225 1000 q 345 985 308 1000 q 409 942 382 969 q 452 880 436 915 q 468 803 468 844 q 452 726 468 763 q 409 664 436 690 q 345 622 382 638 q 267 607 308 607 m 267 651 q 324 664 297 651 q 371 697 351 676 q 402 746 390 718 q 414 803 414 774 q 402 863 414 835 q 369 911 390 890 q 322 944 349 932 q 267 956 296 956 q 209 943 236 956 q 163 910 182 931 q 131 861 143 889 q 119 803 119 833 q 131 744 119 771 q 163 696 143 717 q 210 663 183 675 q 267 651 238 651 m 714 -14 q 635 1 672 -14 q 572 44 599 17 q 528 106 544 71 q 513 183 513 142 q 528 260 513 224 q 572 322 544 296 q 635 364 599 349 q 714 379 672 379 q 792 364 756 379 q 856 322 829 349 q 899 260 883 296 q 915 183 915 224 q 899 106 915 142 q 856 44 883 71 q 792 1 829 17 q 714 -14 756 -14 m 714 31 q 772 43 744 31 q 818 76 799 56 q 849 125 838 97 q 861 183 861 153 q 849 242 861 214 q 817 290 838 269 q 769 323 796 311 q 714 335 743 335 q 656 322 683 335 q 610 289 629 310 q 578 240 590 268 q 567 183 567 213 q 578 124 567 151 q 610 75 590 96 q 657 42 631 54 q 714 31 683 31 m 86 29 l 475 507 l 856 990 l 894 958 l 506 479 l 125 -4 l 86 29 z "},".":{"ha":250,"x_min":94,"x_max":156,"o":"m 94 0 l 94 118 l 156 118 l 156 0 l 94 0 z "},"‰":{"ha":1447,"x_min":71,"x_max":1400,"o":"m 274 607 q 195 622 232 607 q 131 664 158 638 q 87 726 103 690 q 71 803 71 763 q 87 880 71 844 q 131 942 103 915 q 195 985 158 969 q 274 1000 232 1000 q 352 985 315 1000 q 416 942 389 969 q 459 880 443 915 q 475 803 475 844 q 459 726 475 763 q 416 664 443 690 q 352 622 389 638 q 274 607 315 607 m 274 651 q 331 664 304 651 q 376 697 357 676 q 408 746 396 718 q 419 803 419 774 q 408 863 419 835 q 376 911 396 890 q 329 944 356 932 q 274 956 303 956 q 216 943 243 956 q 169 910 189 931 q 138 861 150 889 q 126 803 126 833 q 138 744 126 771 q 170 696 150 717 q 217 663 190 675 q 274 651 244 651 m 719 -14 q 642 1 678 -14 q 578 44 606 17 q 534 106 550 71 q 518 183 518 142 q 534 260 518 224 q 578 322 550 296 q 642 364 606 349 q 719 379 678 379 q 799 364 761 379 q 863 322 836 349 q 906 260 890 296 q 922 183 922 224 q 906 106 922 142 q 863 44 890 71 q 799 1 836 17 q 719 -14 761 -14 m 719 31 q 777 43 750 31 q 824 76 804 56 q 855 125 843 97 q 867 183 867 153 q 855 242 867 214 q 822 290 843 269 q 775 323 801 311 q 719 335 749 335 q 663 322 689 335 q 616 289 636 310 q 585 240 596 268 q 574 183 574 213 q 585 124 574 151 q 617 75 597 96 q 663 42 636 54 q 719 31 690 31 m 1199 -14 q 1120 1 1157 -14 q 1056 44 1083 17 q 1013 106 1029 71 q 997 183 997 142 q 1013 260 997 224 q 1056 322 1029 296 q 1120 364 1083 349 q 1199 379 1157 379 q 1277 364 1240 379 q 1341 322 1314 349 q 1384 260 1368 296 q 1400 183 1400 224 q 1384 106 1400 142 q 1341 44 1368 71 q 1277 1 1314 17 q 1199 -14 1240 -14 m 1199 31 q 1256 43 1229 31 q 1302 76 1282 56 q 1333 125 1322 97 q 1344 183 1344 153 q 1333 242 1344 214 q 1301 290 1321 269 q 1254 323 1281 311 q 1199 335 1228 335 q 1141 322 1168 335 q 1094 289 1114 310 q 1063 240 1075 268 q 1051 183 1051 213 q 1063 124 1051 151 q 1095 75 1075 96 q 1142 42 1115 54 q 1199 31 1168 31 m 92 29 l 481 507 l 861 990 l 900 958 l 511 479 l 131 -4 l 92 29 z "},"+":{"ha":579,"x_min":76,"x_max":503,"o":"m 503 522 l 503 464 l 322 464 l 322 268 l 257 268 l 257 464 l 76 464 l 76 522 l 257 522 l 257 718 l 322 718 l 322 522 l 503 522 z "},"±":{"ha":635,"x_min":100,"x_max":536,"o":"m 100 97 l 100 157 l 536 157 l 536 97 l 100 97 m 536 531 l 536 471 l 350 471 l 350 271 l 285 271 l 285 471 l 100 471 l 100 531 l 285 531 l 285 731 l 350 731 l 350 531 l 536 531 z "},"q":{"ha":849,"x_min":58,"x_max":771,"o":"m 389 -14 q 253 17 314 -14 q 149 101 193 49 q 82 220 106 153 q 58 360 58 288 q 85 503 58 435 q 159 622 113 571 q 269 704 206 674 q 404 735 332 735 q 563 690 489 735 q 678 576 636 644 l 678 722 l 742 722 l 742 -196 q 771 -232 742 -231 l 771 -293 q 758 -294 764 -294 q 746 -294 753 -294 q 693 -274 714 -294 q 672 -221 672 -253 l 672 156 q 544 29 617 72 q 389 -14 472 -14 m 407 49 q 492 64 453 49 q 565 104 532 79 q 626 163 599 129 q 672 235 653 197 l 672 471 q 642 547 667 511 q 580 611 617 583 q 500 656 543 639 q 415 672 457 672 q 300 645 353 672 q 209 574 247 618 q 150 474 171 531 q 129 358 129 417 q 150 240 129 296 q 208 142 171 185 q 295 74 244 99 q 407 49 346 49 z "},"?":{"ha":661,"x_min":50,"x_max":606,"o":"m 228 268 q 235 361 228 322 q 258 428 243 400 q 296 477 274 457 q 346 514 318 497 q 410 548 375 531 q 474 590 444 565 q 524 650 504 614 q 543 740 543 686 q 526 828 543 790 q 480 890 508 865 q 415 927 451 915 q 339 939 378 939 q 196 897 260 939 q 100 789 132 856 l 50 819 q 99 896 68 863 q 169 952 131 929 q 251 987 207 975 q 339 999 294 999 q 438 982 390 999 q 524 933 486 965 q 583 851 561 900 q 606 736 606 801 q 587 638 606 678 q 538 568 568 597 q 471 519 508 539 q 397 481 433 499 q 353 454 374 468 q 319 417 333 440 q 297 358 304 394 q 289 268 289 322 l 228 268 m 229 0 l 229 136 l 290 136 l 290 0 l 229 0 z "},"¿":{"ha":651,"x_min":50,"x_max":606,"o":"m 428 435 q 420 342 428 381 q 397 274 413 303 q 360 226 382 246 q 310 189 338 206 q 246 155 281 172 q 181 113 211 138 q 132 53 151 89 q 113 -37 113 17 q 130 -125 113 -87 q 176 -187 147 -162 q 241 -224 204 -212 q 317 -236 278 -236 q 460 -194 396 -236 q 556 -86 524 -153 l 606 -117 q 556 -193 586 -160 q 487 -249 525 -226 q 405 -284 449 -272 q 317 -296 361 -296 q 217 -279 265 -296 q 132 -230 169 -262 q 72 -148 94 -197 q 50 -33 50 -99 q 69 65 50 25 q 117 135 88 106 q 185 184 147 164 q 258 222 222 204 q 302 249 282 235 q 337 285 322 263 q 359 344 351 308 q 367 435 367 381 l 428 435 m 426 703 l 426 567 l 365 567 l 365 703 l 426 703 z "},"\"":{"ha":349,"x_min":89,"x_max":260,"o":"m 89 838 l 89 992 l 151 992 l 151 838 l 89 838 m 197 838 l 197 992 l 260 992 l 260 838 l 197 838 z "},"„":{"ha":411,"x_min":85,"x_max":310,"o":"m 85 -19 q 102 -15 94 -19 q 110 6 110 -10 l 110 118 l 171 118 l 171 -3 q 144 -58 171 -42 q 85 -75 118 -75 l 85 -19 m 224 -19 q 241 -15 233 -19 q 249 6 249 -10 l 249 118 l 310 118 l 310 -3 q 283 -58 310 -42 q 224 -75 257 -75 l 224 -19 z "},"‚":{"ha":272,"x_min":85,"x_max":171,"o":"m 85 -19 q 102 -15 94 -19 q 110 6 110 -10 l 110 118 l 171 118 l 171 -3 q 144 -58 171 -42 q 85 -75 118 -75 l 85 -19 z "},"“":{"ha":411,"x_min":85,"x_max":324,"o":"m 171 778 q 110 795 136 778 q 85 851 85 813 l 85 1014 l 146 1014 l 146 858 q 153 838 146 843 q 171 833 160 833 l 171 778 m 324 778 q 263 795 289 778 q 238 851 238 813 l 238 1014 l 299 1014 l 299 858 q 306 838 299 843 q 324 833 313 833 l 324 778 z "},"‘":{"ha":258,"x_min":85,"x_max":171,"o":"m 171 778 q 110 795 136 778 q 85 851 85 813 l 85 1014 l 146 1014 l 146 858 q 153 838 146 843 q 171 833 160 833 l 171 778 z "},"”":{"ha":410,"x_min":76,"x_max":315,"o":"m 76 1014 q 137 997 111 1014 q 163 940 163 979 l 163 778 l 101 778 l 101 933 q 94 953 101 949 q 76 958 88 958 l 76 1014 m 229 1014 q 290 997 264 1014 q 315 940 315 979 l 315 778 l 254 778 l 254 933 q 247 953 254 949 q 229 958 240 958 l 229 1014 z "},"’":{"ha":257,"x_min":76,"x_max":163,"o":"m 76 1014 q 137 997 111 1014 q 163 940 163 979 l 163 778 l 101 778 l 101 933 q 94 953 101 949 q 76 958 88 958 l 76 1014 z "},"'":{"ha":217,"x_min":78,"x_max":139,"o":"m 78 861 l 78 992 l 139 992 l 139 861 l 78 861 z "},"r":{"ha":474,"x_min":107,"x_max":449,"o":"m 449 660 q 278 602 350 657 q 176 451 206 547 l 176 0 l 107 0 l 107 722 l 172 722 l 172 544 q 272 669 210 621 q 404 724 333 717 q 429 724 418 724 q 449 725 440 725 l 449 660 z "},"ŕ":{"ha":474,"x_min":107,"x_max":449,"o":"m 263 874 l 214 896 l 299 1014 l 379 1014 l 263 874 m 449 660 q 278 602 350 657 q 176 451 206 547 l 176 0 l 107 0 l 107 722 l 172 722 l 172 544 q 272 669 210 621 q 404 724 333 717 q 429 724 418 724 q 449 725 440 725 l 449 660 z "},"ř":{"ha":474,"x_min":104,"x_max":449,"o":"m 146 1014 l 264 926 l 382 1014 l 424 990 l 289 878 l 238 878 l 104 990 l 146 1014 m 449 660 q 278 602 350 657 q 176 451 206 547 l 176 0 l 107 0 l 107 722 l 172 722 l 172 544 q 272 669 210 621 q 404 724 333 717 q 429 724 418 724 q 449 725 440 725 l 449 660 z "},"ŗ":{"ha":474,"x_min":83,"x_max":449,"o":"m 83 -179 q 108 -157 108 -179 l 108 -68 l 169 -68 l 169 -157 q 146 -206 169 -193 q 83 -219 122 -219 l 83 -179 m 449 660 q 278 602 350 657 q 176 451 206 547 l 176 0 l 107 0 l 107 722 l 172 722 l 172 544 q 272 669 210 621 q 404 724 333 717 q 429 724 418 724 q 449 725 440 725 l 449 660 z "},"®":{"ha":1161,"x_min":74,"x_max":1089,"o":"m 581 -10 q 378 28 471 -10 q 217 134 285 67 q 112 293 150 201 q 74 493 74 385 q 112 692 74 600 q 217 850 150 783 q 378 955 285 917 q 581 993 471 993 q 783 955 690 993 q 944 850 876 917 q 1051 692 1013 783 q 1089 493 1089 600 q 1051 293 1089 385 q 944 134 1013 201 q 783 28 876 67 q 581 -10 690 -10 m 581 29 q 764 63 679 29 q 911 157 849 96 q 1010 303 974 218 q 1046 493 1046 389 q 1011 676 1046 592 q 914 822 976 760 q 766 919 851 883 q 581 954 681 954 q 395 919 481 954 q 247 822 310 883 q 150 676 185 760 q 115 493 115 592 q 150 308 115 393 q 247 162 185 224 q 395 65 310 100 q 581 29 481 29 m 372 807 l 636 807 q 710 790 676 807 q 769 744 744 772 q 807 681 793 717 q 821 610 821 646 q 810 543 821 575 q 779 485 799 511 q 732 442 760 460 q 671 421 704 425 l 828 174 l 764 174 l 613 414 l 429 414 l 429 174 l 372 174 l 372 807 m 639 464 q 733 507 701 464 q 765 610 765 550 q 728 713 765 672 q 633 754 692 754 l 429 754 l 429 464 l 639 464 z "},"s":{"ha":668,"x_min":44,"x_max":615,"o":"m 338 -14 q 178 14 254 -14 q 44 97 101 42 l 79 144 q 200 67 138 92 q 338 42 263 42 q 490 81 432 42 q 547 192 547 121 q 533 248 547 225 q 489 287 518 271 q 417 315 460 303 q 317 342 374 328 q 210 369 256 356 q 136 403 165 383 q 92 450 107 422 q 78 521 78 478 q 99 615 78 575 q 156 682 119 656 q 241 722 193 708 q 343 735 289 735 q 493 706 428 735 q 594 633 558 678 l 556 596 q 462 658 519 638 q 339 679 404 679 q 263 671 299 679 q 201 644 228 663 q 160 598 175 626 q 144 531 144 569 q 155 479 144 499 q 188 446 165 460 q 247 422 211 432 q 333 399 283 411 q 454 367 401 382 q 542 329 507 351 q 597 276 578 307 q 615 199 615 246 q 540 44 615 101 q 338 -14 464 -14 z "},"ﬆ":{"ha":1101,"x_min":56,"x_max":1092,"o":"m 1092 35 q 1072 24 1086 32 q 1038 10 1058 17 q 994 -3 1018 3 q 944 -8 969 -8 q 840 25 882 -8 q 799 121 799 58 l 799 665 l 697 665 l 697 722 l 799 722 q 794 858 799 806 q 774 942 789 911 q 733 985 760 974 q 663 997 707 997 q 584 986 615 997 q 533 956 553 975 q 506 911 514 938 q 497 854 497 885 q 509 774 497 813 q 535 705 521 735 q 562 656 550 675 q 575 635 574 638 l 538 596 q 443 663 497 646 q 336 679 389 679 q 263 672 299 679 q 198 648 226 665 q 152 603 169 631 q 135 533 135 575 q 156 459 135 486 q 210 417 178 432 q 278 396 242 401 q 344 388 314 390 q 439 374 390 383 q 528 345 488 365 q 596 290 569 325 q 622 196 622 254 q 597 99 622 139 q 533 33 572 58 q 444 -3 493 8 q 344 -14 394 -14 q 181 18 256 -14 q 56 94 106 50 l 90 142 q 346 42 207 42 q 419 49 382 42 q 488 75 457 57 q 538 121 518 93 q 557 190 557 149 q 533 264 557 238 q 475 304 510 290 q 401 323 440 318 q 329 331 361 328 q 233 344 279 335 q 149 376 186 354 q 91 433 113 397 q 69 524 69 468 q 93 622 69 582 q 154 688 117 663 q 239 724 192 713 q 333 735 286 735 q 426 724 382 735 q 504 692 471 714 q 487 731 496 713 q 471 767 478 749 q 460 806 464 786 q 456 853 456 826 q 467 924 456 890 q 503 984 478 958 q 569 1025 528 1010 q 672 1040 611 1040 q 782 1020 743 1040 q 840 960 821 1000 q 864 861 860 921 q 868 722 868 801 l 1036 722 l 1036 665 l 868 665 l 868 138 q 896 77 868 97 q 961 57 924 57 q 1032 72 1000 57 q 1071 90 1064 86 l 1092 35 z "},"ś":{"ha":668,"x_min":44,"x_max":615,"o":"m 338 874 l 289 896 l 374 1014 l 454 1014 l 338 874 m 338 -14 q 178 14 254 -14 q 44 97 101 42 l 79 144 q 200 67 138 92 q 338 42 263 42 q 490 81 432 42 q 547 192 547 121 q 533 248 547 225 q 489 287 518 271 q 417 315 460 303 q 317 342 374 328 q 210 369 256 356 q 136 403 165 383 q 92 450 107 422 q 78 521 78 478 q 99 615 78 575 q 156 682 119 656 q 241 722 193 708 q 343 735 289 735 q 493 706 428 735 q 594 633 558 678 l 556 596 q 462 658 519 638 q 339 679 404 679 q 263 671 299 679 q 201 644 228 663 q 160 598 175 626 q 144 531 144 569 q 155 479 144 499 q 188 446 165 460 q 247 422 211 432 q 333 399 283 411 q 454 367 401 382 q 542 329 507 351 q 597 276 578 307 q 615 199 615 246 q 540 44 615 101 q 338 -14 464 -14 z "},"š":{"ha":668,"x_min":44,"x_max":615,"o":"m 221 1014 l 339 926 l 457 1014 l 499 990 l 364 878 l 313 878 l 179 990 l 221 1014 m 338 -14 q 178 14 254 -14 q 44 97 101 42 l 79 144 q 200 67 138 92 q 338 42 263 42 q 490 81 432 42 q 547 192 547 121 q 533 248 547 225 q 489 287 518 271 q 417 315 460 303 q 317 342 374 328 q 210 369 256 356 q 136 403 165 383 q 92 450 107 422 q 78 521 78 478 q 99 615 78 575 q 156 682 119 656 q 241 722 193 708 q 343 735 289 735 q 493 706 428 735 q 594 633 558 678 l 556 596 q 462 658 519 638 q 339 679 404 679 q 263 671 299 679 q 201 644 228 663 q 160 598 175 626 q 144 531 144 569 q 155 479 144 499 q 188 446 165 460 q 247 422 211 432 q 333 399 283 411 q 454 367 401 382 q 542 329 507 351 q 597 276 578 307 q 615 199 615 246 q 540 44 615 101 q 338 -14 464 -14 z "},"ə":{"ha":810,"x_min":43,"x_max":751,"o":"m 400 -14 q 259 15 324 -14 q 147 96 194 44 q 71 215 99 147 q 43 360 43 282 q 44 373 43 363 q 44 386 44 383 l 679 386 q 650 502 675 449 q 587 594 625 556 q 498 656 549 633 q 392 678 447 678 q 317 667 354 678 q 249 639 281 657 q 194 596 218 621 q 156 540 169 571 l 94 557 q 141 627 111 594 q 210 684 171 660 q 297 722 250 708 q 394 735 344 735 q 536 705 471 735 q 649 623 601 675 q 724 502 697 571 q 751 356 751 433 q 725 212 751 279 q 651 94 699 144 q 540 15 604 44 q 400 -14 475 -14 m 400 42 q 507 64 457 42 q 594 125 557 86 q 654 218 632 164 q 681 335 676 272 l 113 335 q 140 217 117 271 q 203 124 164 163 q 292 63 242 85 q 400 42 343 42 z "},"ŝ":{"ha":668,"x_min":44,"x_max":615,"o":"m 179 901 l 313 1014 l 364 1014 l 499 901 l 457 878 l 339 965 l 221 878 l 179 901 m 338 -14 q 178 14 254 -14 q 44 97 101 42 l 79 144 q 200 67 138 92 q 338 42 263 42 q 490 81 432 42 q 547 192 547 121 q 533 248 547 225 q 489 287 518 271 q 417 315 460 303 q 317 342 374 328 q 210 369 256 356 q 136 403 165 383 q 92 450 107 422 q 78 521 78 478 q 99 615 78 575 q 156 682 119 656 q 241 722 193 708 q 343 735 289 735 q 493 706 428 735 q 594 633 558 678 l 556 596 q 462 658 519 638 q 339 679 404 679 q 263 671 299 679 q 201 644 228 663 q 160 598 175 626 q 144 531 144 569 q 155 479 144 499 q 188 446 165 460 q 247 422 211 432 q 333 399 283 411 q 454 367 401 382 q 542 329 507 351 q 597 276 578 307 q 615 199 615 246 q 540 44 615 101 q 338 -14 464 -14 z "},"§":{"ha":703,"x_min":69,"x_max":636,"o":"m 568 264 q 636 117 636 222 q 610 12 636 57 q 545 -63 585 -33 q 458 -108 506 -93 q 364 -122 410 -122 q 277 -112 317 -122 q 204 -84 238 -101 q 144 -44 171 -67 q 94 0 117 -22 l 140 43 q 247 -31 193 -7 q 363 -56 300 -56 q 435 -44 399 -56 q 500 -10 471 -32 q 547 43 529 11 q 565 115 565 75 q 548 185 565 158 q 503 227 531 213 q 440 247 475 242 q 372 254 406 253 q 267 271 315 257 q 183 312 218 285 q 126 379 147 339 q 106 474 106 419 q 117 544 106 511 q 144 597 129 578 q 91 663 113 619 q 69 763 69 706 q 93 858 69 815 q 154 931 117 900 q 239 977 192 961 q 335 993 286 993 q 491 958 435 993 q 582 871 547 922 l 526 846 q 492 887 514 871 q 445 912 471 903 q 392 925 419 921 q 339 929 364 929 q 267 918 303 929 q 203 885 231 907 q 158 833 175 864 q 140 763 140 801 q 155 689 140 718 q 197 642 169 660 q 260 615 224 624 q 340 606 296 607 q 440 593 390 604 q 527 557 489 582 q 590 492 565 532 q 614 394 614 453 q 601 319 614 354 q 568 264 588 285 m 174 467 q 191 389 174 418 q 236 343 208 360 q 299 319 264 326 q 372 308 335 313 q 442 299 408 304 q 501 285 476 294 q 535 333 522 303 q 547 394 547 363 q 528 467 547 438 q 478 514 508 496 q 413 539 449 532 q 343 546 376 546 q 211 569 267 546 q 184 524 194 553 q 174 467 174 496 z "},";":{"ha":279,"x_min":88,"x_max":174,"o":"m 113 600 l 113 718 l 174 718 l 174 600 l 113 600 m 88 -19 q 106 -15 99 -19 q 113 6 113 -10 l 113 118 l 174 118 l 174 -3 q 147 -58 174 -42 q 88 -75 121 -75 l 88 -19 z "},"⅞":{"ha":1161,"x_min":63,"x_max":1107,"o":"m 1107 150 q 1090 87 1107 115 q 1042 38 1072 58 q 972 6 1011 17 q 888 -6 932 -6 q 801 7 840 -6 q 733 41 761 19 q 688 92 704 63 q 672 153 672 121 q 683 202 672 179 q 713 242 694 225 q 756 273 732 260 q 804 293 779 286 q 727 337 760 308 q 694 408 694 365 q 712 467 694 442 q 757 510 729 492 q 819 537 785 528 q 890 546 854 546 q 960 537 925 546 q 1023 510 996 528 q 1067 467 1050 493 q 1085 410 1085 442 q 1052 338 1085 367 q 974 293 1019 308 q 1069 240 1032 276 q 1107 150 1107 203 m 1057 156 q 1042 203 1057 182 q 1002 240 1026 225 q 948 263 978 256 q 889 271 918 271 q 828 263 858 271 q 775 239 799 254 q 737 202 751 224 q 722 154 722 181 q 738 107 722 128 q 777 72 753 86 q 831 49 801 57 q 890 42 861 42 q 951 50 921 42 q 1004 73 981 58 q 1042 108 1028 88 q 1057 156 1057 129 m 744 406 q 758 366 744 383 q 792 337 771 349 q 838 319 813 325 q 889 313 864 313 q 940 319 914 313 q 988 338 967 325 q 1022 367 1008 350 q 1035 407 1035 385 q 1022 445 1035 428 q 990 475 1010 463 q 943 494 969 488 q 889 500 917 500 q 835 494 861 500 q 788 475 808 488 q 756 445 768 463 q 744 406 744 428 m 90 29 l 479 507 l 860 990 l 899 958 l 510 479 l 129 -4 l 90 29 m 414 965 l 63 965 l 63 1014 l 493 1014 l 171 468 l 115 468 l 414 965 z "},"⁷":{"ha":476,"x_min":38,"x_max":468,"o":"m 389 965 l 38 965 l 38 1014 l 468 1014 l 146 468 l 90 468 l 389 965 z "},"₇":{"ha":476,"x_min":38,"x_max":468,"o":"m 389 497 l 38 497 l 38 546 l 468 546 l 146 0 l 90 0 l 389 497 z "},"₆":{"ha":554,"x_min":58,"x_max":507,"o":"m 507 181 q 490 108 507 142 q 442 48 472 74 q 372 8 413 22 q 285 -7 331 -7 q 194 9 235 -7 q 122 54 153 25 q 75 126 92 83 q 58 221 58 168 q 123 469 58 388 q 290 550 188 550 q 402 524 353 550 q 475 449 451 497 l 444 418 q 383 481 425 457 q 289 504 342 504 q 157 442 207 504 q 106 265 107 381 q 178 338 126 310 q 289 365 229 365 q 374 351 335 365 q 444 311 414 336 q 490 253 474 286 q 507 181 507 219 m 286 38 q 353 49 322 38 q 408 79 385 60 q 446 124 432 99 q 460 179 460 150 q 446 234 460 208 q 408 280 432 260 q 353 311 385 300 q 285 322 321 322 q 217 311 249 322 q 161 281 185 300 q 124 235 138 261 q 110 181 110 210 q 124 126 110 151 q 162 80 138 100 q 218 49 186 60 q 286 38 250 38 z "},"⁶":{"ha":554,"x_min":58,"x_max":507,"o":"m 507 644 q 490 570 507 604 q 442 510 472 536 q 372 470 413 485 q 285 456 331 456 q 194 472 235 456 q 122 517 153 488 q 75 588 92 546 q 58 685 58 631 q 123 933 58 851 q 290 1014 188 1014 q 402 988 353 1014 q 475 913 451 961 l 444 882 q 383 944 425 921 q 289 968 342 968 q 157 906 207 968 q 106 729 107 843 q 178 801 126 774 q 289 828 229 828 q 374 814 335 828 q 444 775 414 800 q 490 717 474 750 q 507 644 507 683 m 286 501 q 353 513 322 501 q 408 543 385 524 q 446 588 432 563 q 460 643 460 614 q 446 698 460 672 q 408 744 432 724 q 353 775 385 764 q 285 786 321 786 q 217 775 249 786 q 161 744 185 764 q 124 699 138 725 q 110 644 110 674 q 124 590 110 615 q 162 544 138 564 q 218 513 186 524 q 286 501 250 501 z "},"Æ":{"ha":1381,"x_min":3,"x_max":1314,"o":"m 644 986 l 1301 986 l 1301 922 l 732 922 l 732 536 l 1226 536 l 1226 471 l 732 471 l 732 64 l 1314 64 l 1314 0 l 663 0 l 663 325 l 292 325 l 82 0 l 3 0 l 644 986 m 658 389 l 658 897 l 326 389 l 658 389 z "},"£":{"ha":685,"x_min":74,"x_max":618,"o":"m 74 514 l 213 514 q 178 574 196 544 q 147 632 161 603 q 122 692 132 661 q 113 758 113 724 q 132 849 113 807 q 184 924 151 892 q 260 974 217 956 q 354 993 304 993 q 492 953 428 993 q 596 847 556 914 l 553 804 q 465 899 519 864 q 351 933 411 933 q 284 919 315 933 q 229 881 253 906 q 192 825 206 857 q 179 756 179 793 q 189 694 179 724 q 214 635 199 664 q 247 576 229 606 q 281 514 265 546 l 525 514 l 525 457 l 304 457 q 317 406 313 432 q 322 350 322 379 q 314 281 322 314 q 288 213 306 247 q 240 140 269 178 q 169 57 211 103 q 271 68 222 68 q 326 64 301 68 q 375 55 351 60 q 422 46 399 50 q 471 42 446 42 q 529 48 499 42 q 600 68 560 54 l 618 13 q 468 -21 543 -21 q 410 -16 438 -21 q 357 -6 383 -11 q 303 5 331 0 q 243 10 275 10 q 172 4 211 10 q 101 -10 133 -1 l 79 42 q 165 135 131 93 q 221 212 200 176 q 250 279 242 247 q 258 346 258 311 q 253 404 258 376 q 238 457 247 432 l 74 457 l 74 514 z "},"t":{"ha":442,"x_min":36,"x_max":432,"o":"m 432 35 q 413 24 426 32 q 380 10 400 17 q 335 -3 360 3 q 281 -8 310 -8 q 226 0 251 -8 q 181 25 200 8 q 149 65 161 42 q 138 121 138 89 l 138 665 l 36 665 l 36 722 l 138 722 l 138 969 l 207 969 l 207 722 l 376 722 l 376 665 l 207 665 l 207 138 q 235 77 207 97 q 299 57 263 57 q 373 72 342 57 q 411 90 404 86 l 432 35 z "},"ŧ":{"ha":444,"x_min":38,"x_max":433,"o":"m 433 35 q 415 24 428 32 q 381 10 401 17 q 336 -3 361 3 q 282 -8 311 -8 q 227 0 253 -8 q 182 25 201 8 q 151 65 163 42 q 139 121 139 89 l 139 443 l 38 443 l 38 493 l 139 493 l 139 665 l 38 665 l 38 722 l 139 722 l 139 969 l 208 969 l 208 722 l 378 722 l 378 665 l 208 665 l 208 493 l 378 493 l 378 443 l 208 443 l 208 138 q 236 77 208 97 q 300 57 264 57 q 374 72 343 57 q 413 90 406 86 l 433 35 z "},"ť":{"ha":442,"x_min":36,"x_max":471,"o":"m 354 874 l 306 896 l 390 1014 l 471 1014 l 354 874 m 432 35 q 413 24 426 32 q 380 10 400 17 q 335 -3 360 3 q 281 -8 310 -8 q 226 0 251 -8 q 181 25 200 8 q 149 65 161 42 q 138 121 138 89 l 138 665 l 36 665 l 36 722 l 138 722 l 138 969 l 207 969 l 207 722 l 376 722 l 376 665 l 207 665 l 207 138 q 235 77 207 97 q 299 57 263 57 q 373 72 342 57 q 411 90 404 86 l 432 35 z "},"þ":{"ha":836,"x_min":107,"x_max":778,"o":"m 778 358 q 749 215 776 283 q 674 95 721 147 q 564 12 628 43 q 426 -19 500 -19 q 349 -8 386 -19 q 280 22 313 3 q 222 67 247 42 q 178 121 196 92 l 178 -296 l 107 -296 l 107 986 l 178 986 l 178 585 q 286 692 222 649 q 439 736 350 736 q 581 702 518 736 q 688 614 644 668 q 755 492 732 560 q 778 358 778 425 m 708 358 q 689 476 708 419 q 633 576 669 532 q 547 646 597 619 q 436 672 497 672 q 351 657 390 672 q 280 616 313 642 q 222 557 247 590 q 178 488 196 524 l 178 238 q 202 165 178 200 q 263 104 226 131 q 344 62 300 78 q 425 46 388 46 q 540 72 488 46 q 629 142 592 99 q 688 242 667 186 q 708 358 708 299 z "},"⅜":{"ha":1175,"x_min":67,"x_max":1117,"o":"m 279 454 q 133 489 192 454 q 67 582 75 524 l 99 611 q 114 572 100 592 q 151 538 128 553 q 208 513 175 522 q 278 504 240 504 q 397 533 349 504 q 446 610 446 563 q 390 690 446 661 q 239 719 333 719 l 207 719 l 207 764 l 239 764 q 377 788 328 764 q 426 861 426 813 q 414 906 426 886 q 381 940 401 925 q 331 962 360 954 q 271 969 303 969 q 170 948 213 969 q 108 890 128 926 l 74 926 q 151 991 97 967 q 271 1015 206 1015 q 353 1003 315 1015 q 419 972 392 992 q 463 924 447 951 q 479 864 479 896 q 354 743 479 768 q 458 694 419 732 q 496 603 496 656 q 478 542 496 569 q 432 494 461 514 q 363 465 403 475 q 279 454 324 454 m 1117 150 q 1099 87 1117 115 q 1051 38 1082 58 q 981 6 1021 17 q 897 -6 942 -6 q 810 7 850 -6 q 742 41 771 19 q 698 92 714 63 q 682 153 682 121 q 693 202 682 179 q 723 242 704 225 q 765 273 742 260 q 814 293 789 286 q 737 337 769 308 q 704 408 704 365 q 722 467 704 442 q 767 510 739 492 q 829 537 794 528 q 900 546 864 546 q 970 537 935 546 q 1033 510 1006 528 q 1077 467 1060 493 q 1094 410 1094 442 q 1062 338 1094 367 q 983 293 1029 308 q 1079 240 1042 276 q 1117 150 1117 203 m 1067 156 q 1051 203 1067 182 q 1012 240 1036 225 q 958 263 988 256 q 899 271 928 271 q 838 263 868 271 q 785 239 808 254 q 747 202 761 224 q 732 154 732 181 q 747 107 732 128 q 787 72 763 86 q 841 49 811 57 q 900 42 871 42 q 960 50 931 42 q 1014 73 990 58 q 1052 108 1038 88 q 1067 156 1067 129 m 754 406 q 767 366 754 383 q 801 337 781 349 q 848 319 822 325 q 899 313 874 313 q 950 319 924 313 q 997 338 976 325 q 1031 367 1018 350 q 1044 407 1044 385 q 1032 445 1044 428 q 999 475 1019 463 q 953 494 979 488 q 899 500 926 500 q 844 494 871 500 q 798 475 818 488 q 766 445 778 463 q 754 406 754 428 m 181 29 l 569 507 l 950 990 l 989 958 l 600 479 l 219 -4 l 181 29 z "},"³":{"ha":539,"x_min":53,"x_max":482,"o":"m 265 454 q 119 489 178 454 q 53 582 61 524 l 85 611 q 100 572 86 592 q 138 538 114 553 q 194 513 161 522 q 264 504 226 504 q 383 533 335 504 q 432 610 432 563 q 376 690 432 661 q 225 719 319 719 l 193 719 l 193 764 l 225 764 q 363 788 314 764 q 413 861 413 813 q 400 906 413 886 q 367 940 388 925 q 317 962 346 954 q 257 969 289 969 q 156 948 199 969 q 94 890 114 926 l 60 926 q 138 991 83 967 q 257 1015 192 1015 q 340 1003 301 1015 q 406 972 378 992 q 449 924 433 951 q 465 864 465 896 q 340 743 465 768 q 444 694 406 732 q 482 603 482 656 q 465 542 482 569 q 418 494 447 514 q 349 465 389 475 q 265 454 310 454 z "},"¾":{"ha":1138,"x_min":64,"x_max":1075,"o":"m 276 454 q 131 489 189 454 q 64 582 72 524 l 96 611 q 111 572 97 592 q 149 538 125 553 q 205 513 172 522 q 275 504 238 504 q 394 533 346 504 q 443 610 443 563 q 387 690 443 661 q 236 719 331 719 l 204 719 l 204 764 l 236 764 q 374 788 325 764 q 424 861 424 813 q 411 906 424 886 q 378 940 399 925 q 328 962 357 954 q 268 969 300 969 q 167 948 210 969 q 106 890 125 926 l 71 926 q 149 991 94 967 q 268 1015 203 1015 q 351 1003 313 1015 q 417 972 389 992 q 460 924 444 951 q 476 864 476 896 q 351 743 476 768 q 455 694 417 732 q 493 603 493 656 q 476 542 493 569 q 429 494 458 514 q 360 465 400 475 q 276 454 321 454 m 947 0 l 947 147 l 628 147 l 628 192 l 961 546 l 996 546 l 996 194 l 1075 194 l 1075 147 l 996 147 l 996 0 l 947 0 m 683 194 l 947 194 l 947 475 l 683 194 m 219 29 l 608 507 l 989 990 l 1028 958 l 639 479 l 258 -4 l 219 29 z "},"™":{"ha":969,"x_min":82,"x_max":857,"o":"m 399 936 l 267 936 l 267 593 l 214 593 l 214 936 l 82 936 l 82 989 l 399 989 l 399 936 m 788 986 l 857 986 l 857 593 l 806 593 l 806 907 l 682 651 l 638 651 l 514 907 l 514 593 l 463 593 l 463 986 l 531 986 l 660 715 l 788 986 z "},"²":{"ha":531,"x_min":53,"x_max":472,"o":"m 53 463 q 64 555 53 515 q 97 624 75 594 q 152 674 119 653 q 226 711 185 694 q 292 735 258 724 q 354 762 326 746 q 400 801 382 778 q 418 857 418 824 q 382 935 418 901 q 271 968 346 968 q 206 960 235 968 q 156 940 178 951 q 118 914 133 928 q 93 889 103 900 l 60 922 q 79 943 64 928 q 122 974 94 958 q 188 1003 149 990 q 278 1015 226 1015 q 363 1003 326 1015 q 424 968 400 990 q 460 917 449 946 q 472 856 472 889 q 452 783 472 813 q 402 735 432 754 q 338 703 372 715 q 275 681 304 690 q 196 642 225 664 q 151 598 167 621 q 131 552 136 575 q 126 510 126 529 l 469 510 l 469 463 l 53 463 z "},"⅔":{"ha":1189,"x_min":68,"x_max":1128,"o":"m 911 -7 q 765 28 824 -7 q 699 121 707 63 l 731 149 q 746 110 732 129 q 783 75 760 90 q 840 51 807 60 q 910 42 872 42 q 1029 71 981 42 q 1078 147 1078 100 q 1022 228 1078 199 q 871 257 965 257 l 839 257 l 839 301 l 871 301 q 1009 326 960 301 q 1058 400 1058 351 q 1013 478 1058 449 q 903 508 968 508 q 802 486 844 508 q 740 428 760 464 l 706 464 q 783 528 729 504 q 903 553 838 553 q 985 541 947 553 q 1051 509 1024 529 q 1095 462 1079 489 q 1111 403 1111 435 q 986 281 1111 308 q 1090 232 1051 271 q 1128 140 1128 193 q 1110 79 1128 107 q 1064 33 1093 51 q 995 3 1035 14 q 911 -7 956 -7 m 68 463 q 79 555 68 515 q 113 624 90 594 q 167 674 135 653 q 240 711 199 694 q 304 735 271 724 q 365 762 338 746 q 410 801 393 778 q 428 857 428 824 q 393 935 428 901 q 283 968 358 968 q 219 960 247 968 q 170 940 192 951 q 133 914 149 928 q 108 889 118 900 l 75 922 q 94 943 79 928 q 135 974 108 958 q 201 1003 163 990 q 290 1015 240 1015 q 375 1003 339 1015 q 435 968 411 990 q 470 917 458 946 q 482 856 482 889 q 462 783 482 813 q 413 735 442 754 q 349 703 383 715 q 288 681 315 690 q 210 642 239 664 q 165 598 181 621 q 146 552 150 575 q 142 510 142 529 l 479 510 l 479 463 l 68 463 m 207 29 l 596 507 l 976 990 l 1015 958 l 626 479 l 246 -4 l 207 29 z "},"u":{"ha":815,"x_min":99,"x_max":731,"o":"m 331 -14 q 99 306 99 -14 l 99 722 l 168 722 l 168 315 q 350 49 168 49 q 440 65 396 49 q 521 109 483 81 q 587 178 558 138 q 632 267 615 218 l 632 722 l 701 722 l 701 97 q 731 63 701 63 l 731 0 q 717 -1 722 -1 q 706 -1 711 -1 q 658 16 676 -1 q 639 61 639 33 l 639 171 q 508 35 590 83 q 331 -14 426 -14 z "},"ú":{"ha":815,"x_min":99,"x_max":731,"o":"m 396 874 l 347 896 l 432 1014 l 513 1014 l 396 874 m 331 -14 q 99 306 99 -14 l 99 722 l 168 722 l 168 315 q 350 49 168 49 q 440 65 396 49 q 521 109 483 81 q 587 178 558 138 q 632 267 615 218 l 632 722 l 701 722 l 701 97 q 731 63 701 63 l 731 0 q 717 -1 722 -1 q 706 -1 711 -1 q 658 16 676 -1 q 639 61 639 33 l 639 171 q 508 35 590 83 q 331 -14 426 -14 z "},"ŭ":{"ha":815,"x_min":99,"x_max":731,"o":"m 331 -14 q 99 306 99 -14 l 99 722 l 168 722 l 168 315 q 350 49 168 49 q 440 65 396 49 q 521 109 483 81 q 587 178 558 138 q 632 267 615 218 l 632 722 l 701 722 l 701 97 q 731 63 701 63 l 731 0 q 717 -1 722 -1 q 706 -1 711 -1 q 658 16 676 -1 q 639 61 639 33 l 639 171 q 508 35 590 83 q 331 -14 426 -14 m 397 925 q 448 951 425 925 q 475 1014 471 976 l 521 1014 q 511 964 521 988 q 484 923 501 940 q 444 896 467 906 q 397 886 422 886 q 349 896 372 886 q 310 923 326 906 q 283 964 293 940 q 274 1014 274 988 l 319 1014 q 343 952 319 979 q 397 925 367 925 z "},"û":{"ha":815,"x_min":99,"x_max":731,"o":"m 238 901 l 371 1014 l 422 1014 l 557 901 l 515 878 l 397 965 l 279 878 l 238 901 m 331 -14 q 99 306 99 -14 l 99 722 l 168 722 l 168 315 q 350 49 168 49 q 440 65 396 49 q 521 109 483 81 q 587 178 558 138 q 632 267 615 218 l 632 722 l 701 722 l 701 97 q 731 63 701 63 l 731 0 q 717 -1 722 -1 q 706 -1 711 -1 q 658 16 676 -1 q 639 61 639 33 l 639 171 q 508 35 590 83 q 331 -14 426 -14 z "},"ü":{"ha":815,"x_min":99,"x_max":731,"o":"m 272 889 l 272 1011 l 333 1011 l 333 889 l 272 889 m 461 889 l 461 1011 l 522 1011 l 522 889 l 461 889 m 331 -14 q 99 306 99 -14 l 99 722 l 168 722 l 168 315 q 350 49 168 49 q 440 65 396 49 q 521 109 483 81 q 587 178 558 138 q 632 267 615 218 l 632 722 l 701 722 l 701 97 q 731 63 701 63 l 731 0 q 717 -1 722 -1 q 706 -1 711 -1 q 658 16 676 -1 q 639 61 639 33 l 639 171 q 508 35 590 83 q 331 -14 426 -14 z "},"ù":{"ha":815,"x_min":99,"x_max":731,"o":"m 331 -14 q 99 306 99 -14 l 99 722 l 168 722 l 168 315 q 350 49 168 49 q 440 65 396 49 q 521 109 483 81 q 587 178 558 138 q 632 267 615 218 l 632 722 l 701 722 l 701 97 q 731 63 701 63 l 731 0 q 717 -1 722 -1 q 706 -1 711 -1 q 658 16 676 -1 q 639 61 639 33 l 639 171 q 508 35 590 83 q 331 -14 426 -14 m 281 1014 l 360 1014 l 446 896 l 399 874 l 281 1014 z "},"ű":{"ha":815,"x_min":99,"x_max":731,"o":"m 331 -14 q 99 306 99 -14 l 99 722 l 168 722 l 168 315 q 350 49 168 49 q 440 65 396 49 q 521 109 483 81 q 587 178 558 138 q 632 267 615 218 l 632 722 l 701 722 l 701 97 q 731 63 701 63 l 731 0 q 717 -1 722 -1 q 706 -1 711 -1 q 658 16 676 -1 q 639 61 639 33 l 639 171 q 508 35 590 83 q 331 -14 426 -14 m 308 874 l 268 896 l 350 1014 l 424 1014 l 308 874 m 469 874 l 428 896 l 511 1014 l 585 1014 l 469 874 z "},"ū":{"ha":815,"x_min":99,"x_max":731,"o":"m 331 -14 q 99 306 99 -14 l 99 722 l 168 722 l 168 315 q 350 49 168 49 q 440 65 396 49 q 521 109 483 81 q 587 178 558 138 q 632 267 615 218 l 632 722 l 701 722 l 701 97 q 731 63 701 63 l 731 0 q 717 -1 722 -1 q 706 -1 711 -1 q 658 16 676 -1 q 639 61 639 33 l 639 171 q 508 35 590 83 q 331 -14 426 -14 m 200 933 l 200 985 l 596 985 l 596 933 l 200 933 z "},"_":{"ha":589,"x_min":26,"x_max":563,"o":"m 26 -64 l 26 0 l 563 0 l 563 -64 l 26 -64 z "}," ":{"ha":363,"x_min":0,"x_max":0,"o":""},"­":{"ha":781,"x_min":94,"x_max":686,"o":"m 94 346 l 94 410 l 686 410 l 686 346 l 94 346 z "},"Ş":{"ha":849,"x_min":53,"x_max":796,"o":"m 346 -174 q 398 -192 365 -183 q 467 -200 431 -200 q 547 -149 547 -200 q 528 -110 547 -121 q 479 -99 510 -99 q 418 -106 450 -99 q 367 -118 386 -112 l 428 -8 q 53 139 206 -4 l 90 196 q 243 92 153 131 q 446 54 333 54 q 648 101 575 54 q 721 244 721 149 q 702 327 721 293 q 644 386 683 361 q 548 429 606 411 q 413 464 490 447 q 273 499 333 481 q 171 547 213 518 q 108 615 129 575 q 88 717 88 656 q 113 835 88 783 q 185 922 139 886 q 294 975 231 957 q 436 993 358 993 q 607 965 532 993 q 743 878 682 936 l 707 822 q 436 929 611 929 q 226 874 292 929 q 160 726 160 819 q 176 647 160 679 q 228 594 193 615 q 319 556 264 572 q 449 525 374 540 q 593 488 529 508 q 702 438 657 468 q 772 363 747 407 q 796 253 796 318 q 773 143 796 190 q 708 63 750 96 q 606 13 665 31 q 475 -7 547 -4 l 435 -74 q 463 -67 447 -68 q 490 -65 479 -65 q 564 -86 538 -65 q 590 -147 590 -107 q 557 -215 590 -192 q 461 -237 524 -237 q 387 -230 421 -237 q 326 -211 353 -222 l 346 -174 z "},"ş":{"ha":669,"x_min":44,"x_max":615,"o":"m 232 -174 q 284 -192 251 -183 q 353 -200 317 -200 q 433 -149 433 -200 q 415 -110 433 -121 q 365 -99 396 -99 q 304 -106 336 -99 q 253 -118 272 -112 l 311 -12 q 166 19 235 -8 q 44 97 97 46 l 79 144 q 200 67 138 92 q 338 42 263 42 q 490 81 432 42 q 547 192 547 121 q 533 248 547 225 q 489 287 518 271 q 417 315 460 303 q 317 342 374 328 q 210 369 256 356 q 136 403 165 383 q 92 450 107 422 q 78 521 78 478 q 99 615 78 575 q 156 682 119 656 q 241 722 193 708 q 343 735 289 735 q 493 706 428 735 q 594 633 558 678 l 556 596 q 462 658 519 638 q 339 679 404 679 q 263 671 299 679 q 201 644 228 663 q 160 598 175 626 q 144 531 144 569 q 155 479 144 499 q 188 446 165 460 q 247 422 211 432 q 333 399 283 411 q 454 367 401 382 q 542 329 507 351 q 597 276 578 307 q 615 199 615 246 q 545 48 615 104 q 357 -12 475 -8 l 321 -74 q 349 -67 333 -68 q 376 -65 365 -65 q 450 -86 424 -65 q 476 -147 476 -107 q 443 -215 476 -192 q 347 -237 410 -237 q 273 -230 307 -237 q 213 -211 239 -222 l 232 -174 z "},"Ţ":{"ha":851,"x_min":29,"x_max":822,"o":"m 318 -174 q 370 -192 338 -183 q 439 -200 403 -200 q 519 -149 519 -200 q 501 -110 519 -121 q 451 -99 482 -99 q 390 -106 422 -99 q 339 -118 358 -112 l 404 0 l 390 0 l 390 922 l 29 922 l 29 986 l 822 986 l 822 922 l 461 922 l 461 0 l 451 0 l 407 -74 q 435 -67 419 -68 q 463 -65 451 -65 q 536 -86 510 -65 q 563 -147 563 -107 q 529 -215 563 -192 q 433 -237 496 -237 q 359 -230 393 -237 q 299 -211 325 -222 l 318 -174 z "},"ţ":{"ha":442,"x_min":36,"x_max":432,"o":"m 174 -174 q 226 -192 193 -183 q 294 -200 258 -200 q 375 -149 375 -200 q 356 -110 375 -121 q 307 -99 338 -99 q 246 -106 278 -99 q 194 -118 214 -112 l 257 -7 q 172 32 207 0 q 138 121 138 64 l 138 665 l 36 665 l 36 722 l 138 722 l 138 969 l 207 969 l 207 722 l 376 722 l 376 665 l 207 665 l 207 138 q 235 77 207 97 q 299 57 263 57 q 373 72 342 57 q 411 90 404 86 l 432 35 q 387 13 422 28 q 303 -7 351 -3 l 263 -74 q 291 -67 275 -68 q 318 -65 307 -65 q 392 -86 365 -65 q 418 -147 418 -107 q 385 -215 418 -192 q 289 -237 351 -237 q 215 -230 249 -237 q 154 -211 181 -222 l 174 -174 z "},"Ș":{"ha":849,"x_min":53,"x_max":796,"o":"m 390 -179 q 415 -157 415 -179 l 415 -68 l 476 -68 l 476 -157 q 453 -206 476 -193 q 390 -219 429 -219 l 390 -179 m 707 822 q 436 929 611 929 q 226 874 292 929 q 160 726 160 819 q 176 647 160 679 q 228 594 193 615 q 319 556 264 572 q 449 525 374 540 q 593 488 529 508 q 702 438 657 468 q 772 363 747 407 q 796 253 796 318 q 770 139 796 188 q 698 58 744 90 q 587 8 651 25 q 443 -8 522 -8 q 53 139 213 -8 l 90 196 q 243 92 153 131 q 446 54 333 54 q 648 101 575 54 q 721 244 721 149 q 702 327 721 293 q 644 386 683 361 q 548 429 606 411 q 413 464 490 447 q 273 499 333 481 q 171 547 213 518 q 108 615 129 575 q 88 717 88 656 q 113 835 88 783 q 185 922 139 886 q 294 975 231 957 q 436 993 358 993 q 607 965 532 993 q 743 878 682 936 l 707 822 z "},"ș":{"ha":668,"x_min":44,"x_max":615,"o":"m 282 -179 q 307 -157 307 -179 l 307 -68 l 368 -68 l 368 -157 q 344 -206 368 -193 q 282 -219 321 -219 l 282 -179 m 338 -14 q 178 14 254 -14 q 44 97 101 42 l 79 144 q 200 67 138 92 q 338 42 263 42 q 490 81 432 42 q 547 192 547 121 q 533 248 547 225 q 489 287 518 271 q 417 315 460 303 q 317 342 374 328 q 210 369 256 356 q 136 403 165 383 q 92 450 107 422 q 78 521 78 478 q 99 615 78 575 q 156 682 119 656 q 241 722 193 708 q 343 735 289 735 q 493 706 428 735 q 594 633 558 678 l 556 596 q 462 658 519 638 q 339 679 404 679 q 263 671 299 679 q 201 644 228 663 q 160 598 175 626 q 144 531 144 569 q 155 479 144 499 q 188 446 165 460 q 247 422 211 432 q 333 399 283 411 q 454 367 401 382 q 542 329 507 351 q 597 276 578 307 q 615 199 615 246 q 540 44 615 101 q 338 -14 464 -14 z "},"Ț":{"ha":851,"x_min":29,"x_max":822,"o":"m 371 -179 q 396 -157 396 -179 l 396 -68 l 457 -68 l 457 -157 q 433 -206 457 -193 q 371 -219 410 -219 l 371 -179 m 822 922 l 461 922 l 461 0 l 390 0 l 390 922 l 29 922 l 29 986 l 822 986 l 822 922 z "},"ț":{"ha":442,"x_min":36,"x_max":432,"o":"m 224 -179 q 249 -157 249 -179 l 249 -68 l 310 -68 l 310 -157 q 286 -206 310 -193 q 224 -219 263 -219 l 224 -179 m 432 35 q 413 24 426 32 q 380 10 400 17 q 335 -3 360 3 q 281 -8 310 -8 q 226 0 251 -8 q 181 25 200 8 q 149 65 161 42 q 138 121 138 89 l 138 665 l 36 665 l 36 722 l 138 722 l 138 969 l 207 969 l 207 722 l 376 722 l 376 665 l 207 665 l 207 138 q 235 77 207 97 q 299 57 263 57 q 373 72 342 57 q 411 90 404 86 l 432 35 z "},"μ":{"ha":824,"x_min":107,"x_max":738,"o":"m 107 722 l 176 722 l 176 315 q 358 49 176 49 q 447 65 404 49 q 528 109 490 81 q 594 178 565 138 q 639 267 622 218 l 639 722 l 708 722 l 708 97 q 738 63 708 63 l 738 0 q 724 -1 729 -1 q 713 -1 718 -1 q 665 16 685 -1 q 646 61 646 33 l 646 171 q 594 97 625 131 q 526 38 564 63 q 444 0 488 14 q 356 -14 401 -14 q 240 20 285 -14 q 174 114 196 54 l 174 -294 l 107 -294 l 107 722 z "},"∕":{"ha":793,"x_min":-15,"x_max":810,"o":"m -15 32 l 765 990 l 810 954 l 29 -4 l -15 32 z "},"∙":{"ha":250,"x_min":94,"x_max":156,"o":"m 94 344 l 94 485 l 156 485 l 156 344 l 94 344 z "},"ų":{"ha":815,"x_min":99,"x_max":731,"o":"m 331 -14 q 99 306 99 -14 l 99 722 l 168 722 l 168 315 q 350 49 168 49 q 440 65 396 49 q 521 109 483 81 q 587 178 558 138 q 632 267 615 218 l 632 722 l 701 722 l 701 97 q 731 63 701 63 l 731 0 q 642 -69 668 -40 q 617 -131 617 -99 q 685 -193 617 -183 l 663 -235 q 594 -200 618 -225 q 569 -140 569 -175 q 594 -70 569 -104 q 676 4 619 -36 q 649 26 660 11 q 639 61 639 42 l 639 171 q 508 35 590 83 q 331 -14 426 -14 z "},"ů":{"ha":815,"x_min":99,"x_max":731,"o":"m 303 928 q 330 990 303 965 q 397 1014 357 1014 q 465 990 438 1014 q 492 928 492 965 q 465 865 492 889 q 397 840 438 840 q 330 865 357 840 q 303 928 303 889 m 397 982 q 358 967 374 982 q 342 928 342 953 q 358 888 342 904 q 397 872 374 872 q 437 888 419 872 q 454 928 454 904 q 438 967 454 953 q 397 982 421 982 m 331 -14 q 99 306 99 -14 l 99 722 l 168 722 l 168 315 q 350 49 168 49 q 440 65 396 49 q 521 109 483 81 q 587 178 558 138 q 632 267 615 218 l 632 722 l 701 722 l 701 97 q 731 63 701 63 l 731 0 q 717 -1 722 -1 q 706 -1 711 -1 q 658 16 676 -1 q 639 61 639 33 l 639 171 q 508 35 590 83 q 331 -14 426 -14 z "},"ũ":{"ha":815,"x_min":99,"x_max":731,"o":"m 331 -14 q 99 306 99 -14 l 99 722 l 168 722 l 168 315 q 350 49 168 49 q 440 65 396 49 q 521 109 483 81 q 587 178 558 138 q 632 267 615 218 l 632 722 l 701 722 l 701 97 q 731 63 701 63 l 731 0 q 717 -1 722 -1 q 706 -1 711 -1 q 658 16 676 -1 q 639 61 639 33 l 639 171 q 508 35 590 83 q 331 -14 426 -14 m 482 899 q 428 907 451 899 q 385 926 404 915 q 347 945 365 936 q 307 954 328 954 q 269 944 283 954 q 249 923 256 935 q 239 901 242 911 q 236 888 236 890 l 189 888 q 193 912 189 893 q 210 951 197 931 q 247 987 224 971 q 307 1003 269 1003 q 356 994 335 1003 q 397 974 378 985 q 437 956 417 964 q 483 947 457 947 q 527 957 511 947 q 551 978 543 967 q 560 1001 558 990 q 563 1014 563 1011 l 610 1014 q 605 988 610 1007 q 587 950 600 969 q 549 915 574 931 q 482 899 524 899 z "},"v":{"ha":731,"x_min":28,"x_max":703,"o":"m 329 0 l 28 722 l 101 722 l 367 69 l 635 722 l 703 722 l 401 0 l 329 0 z "},"w":{"ha":1121,"x_min":28,"x_max":1094,"o":"m 1025 722 l 1094 722 l 782 0 l 724 0 l 561 382 l 399 0 l 339 0 l 28 722 l 96 722 l 372 76 l 524 432 l 400 721 l 461 721 l 561 482 l 660 721 l 721 721 l 599 432 l 750 76 l 1025 722 z "},"ẃ":{"ha":1121,"x_min":28,"x_max":1094,"o":"m 560 874 l 511 896 l 596 1014 l 676 1014 l 560 874 m 1025 722 l 1094 722 l 782 0 l 724 0 l 561 382 l 399 0 l 339 0 l 28 722 l 96 722 l 372 76 l 524 432 l 400 721 l 461 721 l 561 482 l 660 721 l 721 721 l 599 432 l 750 76 l 1025 722 z "},"ŵ":{"ha":1121,"x_min":28,"x_max":1094,"o":"m 401 901 l 535 1014 l 586 1014 l 721 901 l 679 878 l 561 965 l 443 878 l 401 901 m 1025 722 l 1094 722 l 782 0 l 724 0 l 561 382 l 399 0 l 339 0 l 28 722 l 96 722 l 372 76 l 524 432 l 400 721 l 461 721 l 561 482 l 660 721 l 721 721 l 599 432 l 750 76 l 1025 722 z "},"ẅ":{"ha":1121,"x_min":28,"x_max":1094,"o":"m 435 889 l 435 1011 l 496 1011 l 496 889 l 435 889 m 624 889 l 624 1011 l 685 1011 l 685 889 l 624 889 m 1025 722 l 1094 722 l 782 0 l 724 0 l 561 382 l 399 0 l 339 0 l 28 722 l 96 722 l 372 76 l 524 432 l 400 721 l 461 721 l 561 482 l 660 721 l 721 721 l 599 432 l 750 76 l 1025 722 z "},"ẁ":{"ha":1121,"x_min":28,"x_max":1094,"o":"m 1025 722 l 1094 722 l 782 0 l 724 0 l 561 382 l 399 0 l 339 0 l 28 722 l 96 722 l 372 76 l 524 432 l 400 721 l 461 721 l 561 482 l 660 721 l 721 721 l 599 432 l 750 76 l 1025 722 m 444 1014 l 524 1014 l 610 896 l 563 874 l 444 1014 z "},"x":{"ha":685,"x_min":21,"x_max":663,"o":"m 99 722 l 331 424 l 342 404 l 354 424 l 586 722 l 663 722 l 382 360 l 663 0 l 585 0 l 354 297 l 342 315 l 331 297 l 100 0 l 22 0 l 303 360 l 21 722 l 99 722 z "},"y":{"ha":753,"x_min":22,"x_max":718,"o":"m 157 -246 q 194 -244 169 -246 q 231 -236 218 -243 q 244 -223 236 -233 q 264 -187 251 -212 q 296 -117 276 -162 q 344 0 315 -72 l 22 722 l 96 722 l 382 68 l 650 722 l 718 722 l 322 -228 q 267 -294 301 -278 q 185 -310 233 -310 q 171 -310 178 -310 q 157 -308 164 -310 l 157 -246 z "},"ý":{"ha":753,"x_min":22,"x_max":718,"o":"m 157 -246 q 194 -244 169 -246 q 231 -236 218 -243 q 244 -223 236 -233 q 264 -187 251 -212 q 296 -117 276 -162 q 344 0 315 -72 l 22 722 l 96 722 l 382 68 l 650 722 l 718 722 l 322 -228 q 267 -294 301 -278 q 185 -310 233 -310 q 171 -310 178 -310 q 157 -308 164 -310 l 157 -246 m 381 874 l 332 896 l 417 1014 l 497 1014 l 381 874 z "},"ŷ":{"ha":753,"x_min":22,"x_max":718,"o":"m 157 -246 q 194 -244 169 -246 q 231 -236 218 -243 q 244 -223 236 -233 q 264 -187 251 -212 q 296 -117 276 -162 q 344 0 315 -72 l 22 722 l 96 722 l 382 68 l 650 722 l 718 722 l 322 -228 q 267 -294 301 -278 q 185 -310 233 -310 q 171 -310 178 -310 q 157 -308 164 -310 l 157 -246 m 222 901 l 356 1014 l 407 1014 l 542 901 l 500 878 l 382 965 l 264 878 l 222 901 z "},"ÿ":{"ha":753,"x_min":22,"x_max":718,"o":"m 157 -246 q 194 -244 169 -246 q 231 -236 218 -243 q 244 -223 236 -233 q 264 -187 251 -212 q 296 -117 276 -162 q 344 0 315 -72 l 22 722 l 96 722 l 382 68 l 650 722 l 718 722 l 322 -228 q 267 -294 301 -278 q 185 -310 233 -310 q 171 -310 178 -310 q 157 -308 164 -310 l 157 -246 m 257 889 l 257 1011 l 318 1011 l 318 889 l 257 889 m 446 889 l 446 1011 l 507 1011 l 507 889 l 446 889 z "},"¥":{"ha":929,"x_min":40,"x_max":888,"o":"m 574 496 l 696 496 l 696 443 l 543 443 l 499 372 l 499 336 l 696 336 l 696 285 l 499 285 l 499 0 l 428 0 l 428 285 l 232 285 l 232 336 l 428 336 l 428 375 l 386 443 l 232 443 l 232 496 l 356 496 l 40 986 l 119 986 l 464 440 l 810 986 l 888 986 l 574 496 z "},"ỳ":{"ha":753,"x_min":22,"x_max":718,"o":"m 157 -246 q 194 -244 169 -246 q 231 -236 218 -243 q 244 -223 236 -233 q 264 -187 251 -212 q 296 -117 276 -162 q 344 0 315 -72 l 22 722 l 96 722 l 382 68 l 650 722 l 718 722 l 322 -228 q 267 -294 301 -278 q 185 -310 233 -310 q 171 -310 178 -310 q 157 -308 164 -310 l 157 -246 m 265 1014 l 344 1014 l 431 896 l 383 874 l 265 1014 z "},"ỹ":{"ha":753,"x_min":22,"x_max":718,"o":"m 157 -246 q 194 -244 169 -246 q 231 -236 218 -243 q 244 -223 236 -233 q 264 -187 251 -212 q 296 -117 276 -162 q 344 0 315 -72 l 22 722 l 96 722 l 382 68 l 650 722 l 718 722 l 322 -228 q 267 -294 301 -278 q 185 -310 233 -310 q 171 -310 178 -310 q 157 -308 164 -310 l 157 -246 m 467 899 q 413 907 436 899 q 369 926 389 915 q 331 945 350 936 q 292 954 313 954 q 254 944 268 954 q 233 923 240 935 q 224 901 226 911 q 221 888 221 890 l 174 888 q 178 912 174 893 q 195 951 182 931 q 231 987 208 971 q 292 1003 254 1003 q 341 994 319 1003 q 382 974 363 985 q 422 956 401 964 q 468 947 442 947 q 512 957 496 947 q 535 978 528 967 q 545 1001 543 990 q 547 1014 547 1011 l 594 1014 q 590 988 594 1007 q 572 950 585 969 q 533 915 558 931 q 467 899 508 899 z "},"z":{"ha":674,"x_min":40,"x_max":629,"o":"m 40 50 l 553 668 l 50 668 l 50 722 l 629 722 l 629 672 l 119 54 l 628 54 l 628 0 l 40 0 l 40 50 z "},"ź":{"ha":674,"x_min":40,"x_max":629,"o":"m 353 874 l 304 896 l 389 1014 l 469 1014 l 353 874 m 40 50 l 553 668 l 50 668 l 50 722 l 629 722 l 629 672 l 119 54 l 628 54 l 628 0 l 40 0 l 40 50 z "},"ž":{"ha":674,"x_min":40,"x_max":629,"o":"m 236 1014 l 354 926 l 472 1014 l 514 990 l 379 878 l 328 878 l 194 990 l 236 1014 m 40 50 l 553 668 l 50 668 l 50 722 l 629 722 l 629 672 l 119 54 l 628 54 l 628 0 l 40 0 l 40 50 z "},"ż":{"ha":674,"x_min":40,"x_max":629,"o":"m 40 50 l 553 668 l 50 668 l 50 722 l 629 722 l 629 672 l 119 54 l 628 54 l 628 0 l 40 0 l 40 50 m 321 889 l 321 1014 l 385 1014 l 385 889 l 321 889 z "},"₀":{"ha":625,"x_min":54,"x_max":571,"o":"m 314 -7 q 200 19 249 -7 q 119 86 151 46 q 71 175 88 126 q 54 269 54 224 q 72 369 54 319 q 124 458 90 418 q 206 522 158 497 q 314 546 254 546 q 426 519 378 546 q 506 452 474 493 q 554 363 538 411 q 571 269 571 314 q 553 170 571 219 q 501 81 535 121 q 421 17 468 42 q 314 -7 374 -7 m 106 269 q 119 189 106 229 q 160 116 133 149 q 225 63 186 83 q 314 42 264 42 q 404 64 365 42 q 469 119 443 86 q 508 193 496 153 q 521 269 521 233 q 507 350 521 310 q 467 423 493 390 q 401 476 440 456 q 314 497 363 497 q 222 475 261 497 q 157 419 183 453 q 118 346 131 386 q 106 269 106 306 z "},"⁰":{"ha":625,"x_min":54,"x_max":571,"o":"m 314 461 q 200 487 249 461 q 119 553 151 513 q 71 642 88 593 q 54 738 54 692 q 72 835 54 786 q 124 924 90 885 q 206 989 158 964 q 314 1014 254 1014 q 426 988 378 1014 q 506 920 474 961 q 554 831 538 879 q 571 738 571 782 q 553 638 571 688 q 501 549 535 588 q 421 485 468 510 q 314 461 374 461 m 106 738 q 119 657 106 697 q 160 584 133 617 q 225 531 186 551 q 314 510 264 510 q 404 532 365 510 q 469 588 443 554 q 508 661 496 621 q 521 738 521 701 q 507 818 521 778 q 467 891 493 858 q 401 944 440 924 q 314 965 363 965 q 222 943 261 965 q 157 888 183 921 q 118 814 131 854 q 106 738 106 774 z "}}}
